# Blender 4.5.3 LTS
# www.blender.org
mtllib cont8.mtl
o Cube.040
v -12.125180 0.884873 35.462799
v -12.125180 0.884873 34.462799
v -11.796017 0.884873 35.462799
v -12.125180 0.441074 35.462799
v -12.125180 0.441074 34.462799
v -11.796017 0.441074 35.462799
v -11.796017 0.441074 34.462799
v -11.796017 0.884873 34.462799
v -15.396082 0.884873 35.462799
v -15.066917 0.884873 35.462799
v -15.396082 0.884873 34.462799
v -15.066917 0.884873 34.462799
v -15.396082 0.441074 35.462799
v -15.066917 0.441074 35.462799
v -15.396082 0.441074 34.462799
v -15.066917 0.441074 34.462799
v -15.396049 0.883711 35.462799
v -15.396049 0.883711 34.462799
v -15.396049 1.212876 35.462799
v -11.796050 0.883711 35.462799
v -11.796050 0.883711 34.462799
v -11.796050 1.212876 35.462799
v -11.796050 1.212876 34.462799
v -15.396049 1.212876 34.462799
vn -1.0000 -0.0000 -0.0000
vn -0.0000 1.0000 -0.0000
vn -0.0000 -0.0000 1.0000
vn -0.0000 -1.0000 -0.0000
vn 1.0000 -0.0000 -0.0000
vn -0.0000 -0.0000 -1.0000
vt 0.780927 0.593204
vt 0.848855 0.296602
vt 0.848855 0.593204
vt 0.949618 0.296602
vt 1.000000 0.000000
vt 1.000000 0.296602
vt 0.949618 0.856468
vt 1.000000 0.790652
vt 1.000000 0.856468
vt 0.949618 0.593204
vt 1.000000 0.593204
vt 0.780928 0.889806
vt 0.848855 0.593204
vt 0.848855 0.889806
vt 0.949618 0.790652
vt 1.000000 0.724836
vt 0.899237 0.593204
vt 0.949618 0.296602
vt 0.949618 0.593204
vt 0.949619 0.659020
vt 1.000000 0.659020
vt 0.899237 0.889806
vt 0.949618 0.593204
vt 0.949618 0.889806
vt 0.949619 0.724836
vt 0.713000 0.762718
vt 0.780928 0.466116
vt 0.780928 0.762718
vt 0.780928 0.296602
vt 0.848855 0.000000
vt 0.848855 0.296602
vt 0.000000 0.000000
vt 0.306118 0.533884
vt 0.000000 0.533884
vt 0.899237 0.296602
vt 0.848855 0.593204
vt 0.848855 0.296602
vt 0.713000 0.000000
vt 0.662618 0.533884
vt 0.662618 0.000000
vt 0.899237 0.000000
vt 0.612237 0.533884
vt 0.306118 0.000000
vt 0.612237 0.000000
vt 0.612237 0.000000
vt 0.662618 0.000000
vt 0.780927 0.296602
vt 0.949619 0.000000
vt 0.780928 0.593204
vt 0.949618 0.724836
vt 0.949619 0.593204
vt 0.899237 0.593204
vt 0.713000 0.466116
vt 0.780928 0.000000
vt 0.713000 0.533884
vt 0.848855 0.000000
vt 0.612237 0.533884
s 0
usemtl Wood
f 5/1/1 1/2/1 2/3/1
f 3/4/2 2/5/2 1/6/2
f 6/7/3 1/8/3 4/9/3
f 7/10/4 4/6/4 5/11/4
f 8/12/5 6/13/5 7/14/5
f 8/15/6 5/16/6 2/8/6
f 10/17/2 11/18/2 9/19/2
f 12/20/6 15/11/6 11/21/6
f 16/22/4 13/23/4 15/24/4
f 14/25/3 9/21/3 13/16/3
f 15/26/1 9/27/1 11/28/1
f 12/29/5 14/30/5 16/31/5
f 21/32/4 17/33/4 18/34/4
f 19/35/1 18/36/1 17/37/1
f 22/38/3 17/39/3 20/40/3
f 23/37/5 20/41/5 21/35/5
f 24/42/2 22/43/2 23/44/2
f 18/39/6 23/45/6 21/46/6
f 5/1/1 4/47/1 1/2/1
f 3/4/2 8/48/2 2/5/2
f 6/7/3 3/15/3 1/8/3
f 7/10/4 6/4/4 4/6/4
f 8/12/5 3/49/5 6/13/5
f 8/15/6 7/50/6 5/16/6
f 10/17/2 12/35/2 11/18/2
f 12/20/6 16/51/6 15/11/6
f 16/22/4 14/52/4 13/23/4
f 14/25/3 10/20/3 9/21/3
f 15/26/1 13/53/1 9/27/1
f 12/29/5 10/54/5 14/30/5
f 21/32/4 20/43/4 17/33/4
f 19/35/1 24/52/1 18/36/1
f 22/38/3 19/55/3 17/39/3
f 23/37/5 22/56/5 20/41/5
f 24/42/2 19/33/2 22/43/2
f 18/39/6 24/57/6 23/45/6
