# Blender 4.5.3 LTS
# www.blender.org
mtllib cont9.mtl
o Cube.030
v -12.329239 0.547666 38.130264
v -12.329239 0.547666 38.630264
v -12.329239 1.447501 38.130264
v -12.981209 0.547666 38.130260
v -12.981209 0.547666 38.630260
v -12.981209 1.447501 38.130260
v -12.981209 1.447501 38.630260
v -12.981209 1.447501 38.130260
v -12.981209 1.617517 38.611153
v -12.329239 1.447501 38.130264
v -12.914091 1.465628 38.181534
v -12.914091 1.599390 38.559883
v -12.396357 1.465628 38.181534
v -12.396357 1.599390 38.559883
v -12.329239 1.617517 38.611153
v -12.329239 1.617517 38.630264
v -12.981209 1.617517 38.630260
v -12.329239 1.447501 38.630264
v -12.329239 1.447501 38.630264
v -12.981209 1.447501 38.630260
vn -0.0000 -1.0000 -0.0000
vn 1.0000 -0.0000 -0.0000
vn -0.0000 -0.0000 -1.0000
vn -1.0000 -0.0000 -0.0000
vn -0.0000 1.0000 -0.0000
vn -0.0000 0.9428 -0.3333
vn -0.0000 -0.0000 1.0000
vt 1.000000 0.874160
vt 0.722829 0.543158
vt 1.000000 0.543158
vt 0.722829 0.086316
vt 1.000000 0.543158
vt 0.361414 0.000000
vt 0.722829 0.456842
vt 0.361414 0.456842
vt 0.361414 0.543158
vt 0.638586 1.000000
vt 0.361414 1.000000
vt 0.372007 0.456842
vt 0.638586 0.543158
vt 0.292473 0.543158
vt 0.262374 0.840085
vt 0.010168 0.874160
vt 0.040268 0.840085
vt 0.262374 0.577233
vt 0.292473 0.874160
vt 0.077729 0.584045
vt 0.320883 0.397714
vt 0.320883 0.584045
vt 0.040268 0.577233
vt 0.292473 0.543158
vt 0.010168 0.543158
vt 0.000000 0.543158
vt 0.000000 0.874160
vt 1.000000 0.086316
vt 0.989408 0.000000
vt 0.000000 0.086316
vt 0.361414 0.000000
vt 0.361414 0.086316
vt 0.000000 0.543158
vt 0.722829 0.874160
vt 0.722829 0.000000
vt 0.361414 0.456842
vt 0.077729 0.397714
vt 1.000000 0.000000
vt 0.000000 0.000000
s 0
usemtl HormBlanc
f 5/1/1 1/2/1 2/3/1
f 3/4/2 2/5/2 1/2/2
f 6/6/3 1/7/3 4/8/3
f 7/9/4 4/10/4 5/11/4
f 7/9/4 9/12/4 8/13/4
f 6/14/5 10/14/5 3/14/5
f 11/15/6 9/16/6 12/17/6
f 13/18/6 8/19/6 11/15/6
f 14/23/6 10/24/6 13/18/6
f 12/17/6 15/25/6 14/23/6
f 16/26/5 9/16/5 17/27/5
f 18/28/2 3/4/2 15/29/2
f 18/30/7 17/31/7 7/32/7
f 18/30/7 5/9/7 2/33/7
f 7/14/5 19/14/5 18/14/5
f 5/1/1 4/34/1 1/2/1
f 3/4/2 18/28/2 2/5/2
f 6/6/3 3/35/3 1/7/3
f 7/9/4 6/13/4 4/10/4
f 7/9/4 17/36/4 9/12/4
f 8/13/5 6/13/5 7/9/5
f 6/14/5 8/14/5 10/14/5
f 11/15/6 8/19/6 9/16/6
f 13/18/6 10/24/6 8/19/6
f 14/23/6 15/25/6 10/24/6
f 12/17/6 9/16/6 15/25/6
f 16/26/5 15/25/5 9/16/5
f 15/29/2 16/38/2 18/28/2
f 3/4/5 10/4/5 15/29/5
f 18/30/7 16/39/7 17/31/7
f 18/30/7 7/32/7 5/9/7
f 7/14/5 20/14/5 19/14/5
usemtl CartelesAM
f 14/20/6 11/21/6 12/22/6
f 14/20/6 13/37/6 11/21/6
