# Blender 4.5.3 LTS
# www.blender.org
mtllib DadoPoke.mtl
o Cube
v 1.000000 1.000000 -1.000000
v 1.000000 -1.000000 -1.000000
v 1.000000 1.000000 1.000000
v 1.000000 -1.000000 1.000000
v -1.000000 1.000000 -1.000000
v -1.000000 -1.000000 -1.000000
v -1.000000 1.000000 1.000000
v -1.000000 -1.000000 1.000000
vn -0.0000 1.0000 -0.0000
vn -0.0000 -0.0000 1.0000
vn -1.0000 -0.0000 -0.0000
vn -0.0000 -1.0000 -0.0000
vn 1.0000 -0.0000 -0.0000
vn -0.0000 -0.0000 -1.0000
vt 0.474235 0.470141
vt 0.260358 0.256263
vt 0.474235 0.256263
vt 0.509061 0.234036
vt 0.716870 0.026227
vt 0.716870 0.234036
vt 0.487974 0.723260
vt 0.714021 0.497212
vt 0.714021 0.723260
vt 0.261833 0.506138
vt 0.481579 0.725883
vt 0.261833 0.725883
vt 0.268897 0.242495
vt 0.498452 0.012939
vt 0.498452 0.242495
vt 0.490772 0.474057
vt 0.703033 0.261796
vt 0.703033 0.474057
vt 0.260358 0.470141
vt 0.509061 0.026227
vt 0.487974 0.497212
vt 0.481579 0.506138
vt 0.268897 0.012939
vt 0.490772 0.261796
s 0
usemtl Material.001
f 5/1/1 3/2/1 1/3/1
f 3/4/2 8/5/2 4/6/2
f 7/7/3 6/8/3 8/9/3
f 2/10/4 8/11/4 6/12/4
f 1/13/5 4/14/5 2/15/5
f 5/16/6 2/17/6 6/18/6
f 5/1/1 7/19/1 3/2/1
f 3/4/2 7/20/2 8/5/2
f 7/7/3 5/21/3 6/8/3
f 2/10/4 4/22/4 8/11/4
f 1/13/5 3/23/5 4/14/5
f 5/16/6 1/24/6 2/17/6
