# Blender 4.5.3 LTS
# www.blender.org
mtllib Lamp.mtl
o Cube.001
v -0.204420 0.000000 -2.422542
v -0.204420 5.260503 -2.422542
v -0.204420 0.000000 -2.577458
v -0.204420 5.260503 -2.577458
v -0.075580 0.000000 -2.422542
v -0.075580 5.260503 -2.422542
v -0.075580 0.000000 -2.577458
v -0.075580 5.260503 -2.577458
v 1.000000 0.438045 -6.015293
v 1.000000 -0.438045 -6.015293
v 1.000000 0.438045 6.015293
v 1.000000 -0.438045 6.015293
v -1.000000 0.438045 -6.015293
v -1.000000 -0.438045 -6.015293
v -1.000000 0.438045 6.015293
v -1.000000 -0.438045 6.015293
v -0.344420 0.393398 2.577457
v -0.344420 5.653901 2.577457
v -0.344420 0.393398 2.422542
v -0.344420 5.653901 2.422542
v -0.215580 0.393398 2.577457
v -0.215580 5.653901 2.577457
v -0.215580 0.393398 2.422542
v -0.215580 5.653901 2.422542
vn -1.0000 -0.0000 -0.0000
vn -0.0000 -0.0000 -1.0000
vn 1.0000 -0.0000 -0.0000
vn -0.0000 -0.0000 1.0000
vn -0.0000 -1.0000 -0.0000
vn -0.0000 1.0000 -0.0000
vt 0.625000 0.000000
vt 0.375000 0.250000
vt 0.375000 0.000000
vt 0.625000 0.250000
vt 0.375000 0.500000
vt 0.625000 0.500000
vt 0.375000 0.750000
vt 0.625000 0.750000
vt 0.375000 1.000000
vt 0.125000 0.750000
vt 0.125000 0.500000
vt 0.875000 0.500000
vt 0.994750 0.987788
vt 0.661417 0.654455
vt 0.994750 0.654455
vt 0.008622 0.989185
vt 0.351027 0.646780
vt 0.351027 0.989185
vt 0.315928 0.994750
vt 0.649261 0.661417
vt 0.649261 0.994750
vt 0.955601 0.450836
vt 0.110540 0.110540
vt 0.941677 0.107059
vt 0.000000 1.000000
vt 0.333333 0.666667
vt 0.333333 1.000000
vt 0.333333 1.000000
vt 0.666667 0.666667
vt 0.666667 1.000000
vt 0.625000 1.000000
vt 0.875000 0.750000
vt 0.661417 0.987788
vt 0.008622 0.646780
vt 0.315928 0.661417
vt 0.110540 0.443874
vt 0.000000 0.666667
vt 0.333333 0.666667
s 0
usemtl 
f 2/1/1 3/2/1 1/3/1
f 4/4/2 7/5/2 3/2/2
f 8/6/3 5/7/3 7/5/3
f 6/8/4 1/9/4 5/7/4
f 7/5/5 1/10/5 3/11/5
f 4/12/6 6/8/6 8/6/6
f 18/1/1 19/2/1 17/3/1
f 20/4/2 23/5/2 19/2/2
f 24/6/3 21/7/3 23/5/3
f 22/8/4 17/9/4 21/7/4
f 23/5/5 17/10/5 19/11/5
f 20/12/6 22/8/6 24/6/6
f 2/1/1 4/4/1 3/2/1
f 4/4/2 8/6/2 7/5/2
f 8/6/3 6/8/3 5/7/3
f 6/8/4 2/31/4 1/9/4
f 7/5/5 5/7/5 1/10/5
f 4/12/6 2/32/6 6/8/6
f 18/1/1 20/4/1 19/2/1
f 20/4/2 24/6/2 23/5/2
f 24/6/3 22/8/3 21/7/3
f 22/8/4 18/31/4 17/9/4
f 23/5/5 21/7/5 17/10/5
f 20/12/6 18/32/6 22/8/6
usemtl Material.001
f 13/13/6 11/14/6 9/15/6
f 11/16/4 16/17/4 12/18/4
f 15/19/1 14/20/1 16/21/1
f 10/22/5 16/23/5 14/24/5
f 9/25/3 12/26/3 10/27/3
f 13/28/2 10/29/2 14/30/2
f 13/13/6 15/33/6 11/14/6
f 11/16/4 15/34/4 16/17/4
f 15/19/1 13/35/1 14/20/1
f 10/22/5 12/36/5 16/23/5
f 9/25/3 11/37/3 12/26/3
f 13/28/2 9/38/2 10/29/2
