# Blender 4.5.3 LTS
# www.blender.org
mtllib PC2.mtl
o Cube.011
v 18.968174 0.546014 38.486584
v 18.968174 1.445849 38.486584
v 18.968174 0.546014 38.986584
v 18.968174 1.445849 38.986584
v 18.316204 0.546014 38.486584
v 18.316204 1.445849 38.486584
v 18.316204 0.546014 38.986584
v 18.316204 1.445849 38.986584
v 18.968174 1.445849 38.986584
v 18.316204 1.445849 38.986584
v 18.968174 1.615865 38.986584
v 18.316204 1.615865 38.986584
v 18.901058 1.463976 38.537853
v 18.901056 1.597738 38.916203
v 18.383322 1.597738 38.916203
v 18.383322 1.463976 38.537853
v 18.316204 1.445849 38.486584
v 18.316204 1.615865 38.967476
v 18.968174 1.615865 38.967476
v 18.968174 1.445849 38.486584
vn 1.0000 -0.0000 -0.0000
vn -0.0000 -0.0000 1.0000
vn -1.0000 -0.0000 -0.0000
vn -0.0000 -0.0000 -1.0000
vn -0.0000 -1.0000 -0.0000
vn -0.0000 1.0000 -0.0000
vn -0.0000 0.9428 -0.3333
vt 0.722829 0.086316
vt 1.000000 0.543158
vt 0.722829 0.543158
vt 0.000000 0.086316
vt 0.361414 0.543158
vt 0.000000 0.543158
vt 0.638586 1.000000
vt 0.361414 1.000000
vt 0.361414 0.000000
vt 0.722829 0.456842
vt 0.361414 0.456842
vt 1.000000 0.874160
vt 1.000000 0.543158
vt 0.361414 0.000000
vt 0.361414 0.086316
vt 0.292473 0.543158
vt 0.032389 0.363248
vt 0.318239 0.025463
vt 0.318239 0.363248
vt 1.000000 0.086316
vt 0.989408 0.000000
vt 0.000000 0.543158
vt 0.010168 0.874160
vt 0.000000 0.874160
vt 0.372007 0.456842
vt 0.638586 0.543158
vt 0.262374 0.840085
vt 0.040268 0.840085
vt 0.010168 0.543158
vt 0.040268 0.577233
vt 0.262374 0.577233
vt 0.292473 0.543158
vt 0.292473 0.874160
vt 0.722829 0.000000
vt 0.722829 0.874160
vt 0.000000 0.000000
vt 0.032389 0.025463
vt 1.000000 0.000000
vt 0.361414 0.456842
s 0
usemtl Wood
f 2/1/1 3/2/1 1/3/1
f 4/4/2 7/5/2 3/6/2
f 8/5/3 5/7/3 7/8/3
f 6/9/4 1/10/4 5/11/4
f 7/12/5 1/3/5 3/13/5
f 4/4/2 12/14/2 8/15/2
f 8/16/6 9/16/6 4/16/6
f 4/20/1 2/1/1 19/21/1
f 11/22/6 18/23/6 12/24/6
f 6/16/6 20/16/6 2/16/6
f 8/5/3 18/25/3 17/26/3
f 16/27/7 18/23/7 15/28/7
f 15/28/7 19/29/7 14/30/7
f 13/31/7 19/29/7 20/32/7
f 13/31/7 17/33/7 16/27/7
f 2/1/1 4/20/1 3/2/1
f 4/4/2 8/15/2 7/5/2
f 8/5/3 6/26/3 5/7/3
f 6/9/4 2/34/4 1/10/4
f 7/12/5 5/35/5 1/3/5
f 4/4/2 11/36/2 12/14/2
f 8/16/6 10/16/6 9/16/6
f 19/21/1 11/38/1 4/20/1
f 2/1/6 20/1/6 19/21/6
f 11/22/6 19/29/6 18/23/6
f 6/16/6 17/16/6 20/16/6
f 8/5/3 12/39/3 18/25/3
f 17/26/6 6/26/6 8/5/6
f 16/27/7 17/33/7 18/23/7
f 15/28/7 18/23/7 19/29/7
f 13/31/7 14/30/7 19/29/7
f 13/31/7 20/32/7 17/33/7
usemtl CartelesPinturaC
f 14/17/7 16/18/7 15/19/7
f 14/17/7 13/37/7 16/18/7
o Cube.012
v 30.105156 0.546014 35.025013
v 30.105156 1.445849 35.025013
v 30.605156 0.546014 35.025013
v 30.605156 1.445849 35.025013
v 30.105156 0.546014 35.676983
v 30.105156 1.445849 35.676983
v 30.605156 0.546014 35.676983
v 30.605156 1.445849 35.676983
v 30.605156 1.445849 35.025013
v 30.605156 1.445849 35.676983
v 30.605156 1.615865 35.025013
v 30.605156 1.615865 35.676983
v 30.156429 1.463976 35.092129
v 30.534777 1.597738 35.092129
v 30.534777 1.597738 35.609867
v 30.156429 1.463976 35.609867
v 30.105156 1.445849 35.676983
v 30.586048 1.615865 35.676983
v 30.586048 1.615865 35.025013
v 30.105156 1.445849 35.025013
vn -0.0000 -0.0000 -1.0000
vn 1.0000 -0.0000 -0.0000
vn -0.0000 -0.0000 1.0000
vn -1.0000 -0.0000 -0.0000
vn -0.0000 -1.0000 -0.0000
vn -0.0000 1.0000 -0.0000
vn -0.3333 0.9428 -0.0000
vt 0.722829 0.086316
vt 1.000000 0.543158
vt 0.722829 0.543158
vt 0.000000 0.086316
vt 0.361414 0.543158
vt 0.000000 0.543158
vt 0.638586 1.000000
vt 0.361414 1.000000
vt 0.361414 0.000000
vt 0.722829 0.456842
vt 0.361414 0.456842
vt 1.000000 0.874160
vt 1.000000 0.543158
vt 0.361414 0.000000
vt 0.361414 0.086316
vt 0.292473 0.543158
vt 0.028513 0.972849
vt 0.312271 0.710234
vt 0.312271 0.972849
vt 1.000000 0.086316
vt 0.989408 0.000000
vt 0.000000 0.543158
vt 0.010168 0.874160
vt 0.000000 0.874160
vt 0.372007 0.456842
vt 0.638586 0.543158
vt 0.262374 0.840085
vt 0.040268 0.840085
vt 0.010168 0.543158
vt 0.040268 0.577233
vt 0.262374 0.577233
vt 0.292473 0.543158
vt 0.292473 0.874160
vt 0.722829 0.000000
vt 0.722829 0.874160
vt 0.000000 0.000000
vt 0.028513 0.710234
vt 1.000000 0.000000
vt 0.361414 0.456842
s 0
usemtl Wood
f 22/40/8 23/41/8 21/42/8
f 24/43/9 27/44/9 23/45/9
f 28/44/10 25/46/10 27/47/10
f 26/48/11 21/49/11 25/50/11
f 27/51/12 21/42/12 23/52/12
f 24/43/9 32/53/9 28/54/9
f 28/55/13 29/55/13 24/55/13
f 24/59/8 22/40/8 39/60/8
f 31/61/13 38/62/13 32/63/13
f 26/55/13 40/55/13 22/55/13
f 28/44/10 38/64/10 37/65/10
f 36/66/14 38/62/14 35/67/14
f 35/67/14 39/68/14 34/69/14
f 33/70/14 39/68/14 40/71/14
f 33/70/14 37/72/14 36/66/14
f 22/40/8 24/59/8 23/41/8
f 24/43/9 28/54/9 27/44/9
f 28/44/10 26/65/10 25/46/10
f 26/48/11 22/73/11 21/49/11
f 27/51/12 25/74/12 21/42/12
f 24/43/9 31/75/9 32/53/9
f 28/55/13 30/55/13 29/55/13
f 39/60/8 31/77/8 24/59/8
f 22/40/13 40/40/13 39/60/13
f 31/61/13 39/68/13 38/62/13
f 26/55/13 37/55/13 40/55/13
f 28/44/10 32/78/10 38/64/10
f 37/65/13 26/65/13 28/44/13
f 36/66/14 37/72/14 38/62/14
f 35/67/14 38/62/14 39/68/14
f 33/70/14 34/69/14 39/68/14
f 33/70/14 40/71/14 37/72/14
usemtl CartelesPinturaC
f 34/56/14 36/57/14 35/58/14
f 34/56/14 33/76/14 36/57/14
o Cube.013
v 28.567629 0.546014 38.486584
v 28.567629 1.445849 38.486584
v 28.567629 0.546014 38.986584
v 28.567629 1.445849 38.986584
v 27.915659 0.546014 38.486584
v 27.915659 1.445849 38.486584
v 27.915659 0.546014 38.986584
v 27.915659 1.445849 38.986584
v 28.567629 1.445849 38.986584
v 27.915659 1.445849 38.986584
v 28.567629 1.615865 38.986584
v 27.915659 1.615865 38.986584
v 28.500513 1.463976 38.537853
v 28.500511 1.597738 38.916203
v 27.982777 1.597738 38.916203
v 27.982777 1.463976 38.537853
v 27.915659 1.445849 38.486584
v 27.915659 1.615865 38.967476
v 28.567629 1.615865 38.967476
v 28.567629 1.445849 38.486584
vn 1.0000 -0.0000 -0.0000
vn -0.0000 -0.0000 1.0000
vn -1.0000 -0.0000 -0.0000
vn -0.0000 -0.0000 -1.0000
vn -0.0000 -1.0000 -0.0000
vn -0.0000 1.0000 -0.0000
vn -0.0000 0.9428 -0.3333
vt 0.722829 0.086316
vt 1.000000 0.543158
vt 0.722829 0.543158
vt 0.000000 0.086316
vt 0.361414 0.543158
vt 0.000000 0.543158
vt 0.638586 1.000000
vt 0.361414 1.000000
vt 0.361414 0.000000
vt 0.722829 0.456842
vt 0.361414 0.456842
vt 1.000000 0.874160
vt 1.000000 0.543158
vt 0.361414 0.000000
vt 0.361414 0.086316
vt 0.292473 0.543158
vt 0.016209 0.650486
vt 0.260594 0.387871
vt 0.260594 0.650486
vt 1.000000 0.086316
vt 0.989408 0.000000
vt 0.000000 0.543158
vt 0.010168 0.874160
vt 0.000000 0.874160
vt 0.372007 0.456842
vt 0.638586 0.543158
vt 0.262374 0.840085
vt 0.040268 0.840085
vt 0.010168 0.543158
vt 0.040268 0.577233
vt 0.262374 0.577233
vt 0.292473 0.543158
vt 0.292473 0.874160
vt 0.722829 0.000000
vt 0.722829 0.874160
vt 0.000000 0.000000
vt 0.016209 0.387871
vt 1.000000 0.000000
vt 0.361414 0.456842
s 0
usemtl Wood
f 42/79/15 43/80/15 41/81/15
f 44/82/16 47/83/16 43/84/16
f 48/83/17 45/85/17 47/86/17
f 46/87/18 41/88/18 45/89/18
f 47/90/19 41/81/19 43/91/19
f 44/82/16 52/92/16 48/93/16
f 48/94/20 49/94/20 44/94/20
f 44/98/15 42/79/15 59/99/15
f 51/100/20 58/101/20 52/102/20
f 46/94/20 60/94/20 42/94/20
f 48/83/17 58/103/17 57/104/17
f 56/105/21 58/101/21 55/106/21
f 55/106/21 59/107/21 54/108/21
f 53/109/21 59/107/21 60/110/21
f 53/109/21 57/111/21 56/105/21
f 42/79/15 44/98/15 43/80/15
f 44/82/16 48/93/16 47/83/16
f 48/83/17 46/104/17 45/85/17
f 46/87/18 42/112/18 41/88/18
f 47/90/19 45/113/19 41/81/19
f 44/82/16 51/114/16 52/92/16
f 48/94/20 50/94/20 49/94/20
f 59/99/15 51/116/15 44/98/15
f 42/79/20 60/79/20 59/99/20
f 51/100/20 59/107/20 58/101/20
f 46/94/20 57/94/20 60/94/20
f 48/83/17 52/117/17 58/103/17
f 57/104/20 46/104/20 48/83/20
f 56/105/21 57/111/21 58/101/21
f 55/106/21 58/101/21 59/107/21
f 53/109/21 54/108/21 59/107/21
f 53/109/21 60/110/21 57/111/21
usemtl CartelesPinturaC
f 54/95/21 56/96/21 55/97/21
f 54/95/21 53/115/21 56/96/21
o Cube.014
v 23.224424 0.546014 38.486584
v 23.224424 1.445849 38.486584
v 23.224424 0.546014 38.986584
v 23.224424 1.445849 38.986584
v 22.572454 0.546014 38.486584
v 22.572454 1.445849 38.486584
v 22.572454 0.546014 38.986584
v 22.572454 1.445849 38.986584
v 23.224424 1.445849 38.986584
v 22.572454 1.445849 38.986584
v 23.224424 1.615865 38.986584
v 22.572454 1.615865 38.986584
v 23.157309 1.463976 38.537853
v 23.157307 1.597738 38.916203
v 22.639572 1.597738 38.916203
v 22.639572 1.463976 38.537853
v 22.572454 1.445849 38.486584
v 22.572454 1.615865 38.967476
v 23.224424 1.615865 38.967476
v 23.224424 1.445849 38.486584
vn 1.0000 -0.0000 -0.0000
vn -0.0000 -0.0000 1.0000
vn -1.0000 -0.0000 -0.0000
vn -0.0000 -0.0000 -1.0000
vn -0.0000 -1.0000 -0.0000
vn -0.0000 1.0000 -0.0000
vn -0.0000 0.9428 -0.3333
vt 0.722829 0.086316
vt 1.000000 0.543158
vt 0.722829 0.543158
vt 0.000000 0.086316
vt 0.361414 0.543158
vt 0.000000 0.543158
vt 0.638586 1.000000
vt 0.361414 1.000000
vt 0.361414 0.000000
vt 0.722829 0.456842
vt 0.361414 0.456842
vt 1.000000 0.874160
vt 1.000000 0.543158
vt 0.361414 0.000000
vt 0.361414 0.086316
vt 0.292473 0.543158
vt 0.507136 0.480692
vt 0.729373 0.218077
vt 0.729373 0.480692
vt 1.000000 0.086316
vt 0.989408 0.000000
vt 0.000000 0.543158
vt 0.010168 0.874160
vt 0.000000 0.874160
vt 0.372007 0.456842
vt 0.638586 0.543158
vt 0.262374 0.840085
vt 0.040268 0.840085
vt 0.010168 0.543158
vt 0.040268 0.577233
vt 0.262374 0.577233
vt 0.292473 0.543158
vt 0.292473 0.874160
vt 0.722829 0.000000
vt 0.722829 0.874160
vt 0.000000 0.000000
vt 0.507136 0.218077
vt 1.000000 0.000000
vt 0.361414 0.456842
s 0
usemtl Wood
f 62/118/22 63/119/22 61/120/22
f 64/121/23 67/122/23 63/123/23
f 68/122/24 65/124/24 67/125/24
f 66/126/25 61/127/25 65/128/25
f 67/129/26 61/120/26 63/130/26
f 64/121/23 72/131/23 68/132/23
f 68/133/27 69/133/27 64/133/27
f 64/137/22 62/118/22 79/138/22
f 71/139/27 78/140/27 72/141/27
f 66/133/27 80/133/27 62/133/27
f 68/122/24 78/142/24 77/143/24
f 76/144/28 78/140/28 75/145/28
f 75/145/28 79/146/28 74/147/28
f 73/148/28 79/146/28 80/149/28
f 73/148/28 77/150/28 76/144/28
f 62/118/22 64/137/22 63/119/22
f 64/121/23 68/132/23 67/122/23
f 68/122/24 66/143/24 65/124/24
f 66/126/25 62/151/25 61/127/25
f 67/129/26 65/152/26 61/120/26
f 64/121/23 71/153/23 72/131/23
f 68/133/27 70/133/27 69/133/27
f 79/138/22 71/155/22 64/137/22
f 62/118/27 80/118/27 79/138/27
f 71/139/27 79/146/27 78/140/27
f 66/133/27 77/133/27 80/133/27
f 68/122/24 72/156/24 78/142/24
f 77/143/27 66/143/27 68/122/27
f 76/144/28 77/150/28 78/140/28
f 75/145/28 78/140/28 79/146/28
f 73/148/28 74/147/28 79/146/28
f 73/148/28 80/149/28 77/150/28
usemtl CartelesPinturaC
f 74/134/28 76/135/28 75/136/28
f 74/134/28 73/154/28 76/135/28
o Cube.015
v 4.935134 0.546014 37.538872
v 4.935134 1.445849 37.538872
v 4.435134 0.546014 37.538872
v 4.435134 1.445849 37.538872
v 4.935134 0.546014 36.886902
v 4.935134 1.445849 36.886902
v 4.435134 0.546014 36.886902
v 4.435134 1.445849 36.886902
v 4.435134 1.445849 37.538872
v 4.435134 1.445849 36.886902
v 4.435134 1.615865 37.538872
v 4.435134 1.615865 36.886902
v 4.883862 1.463976 37.471756
v 4.505515 1.597738 37.471756
v 4.505515 1.597738 36.954018
v 4.883862 1.463976 36.954018
v 4.935134 1.445849 36.886902
v 4.454242 1.615865 36.886902
v 4.454242 1.615865 37.538872
v 4.935134 1.445849 37.538872
vn -0.0000 -0.0000 1.0000
vn -1.0000 -0.0000 -0.0000
vn -0.0000 -0.0000 -1.0000
vn 1.0000 -0.0000 -0.0000
vn -0.0000 -1.0000 -0.0000
vn -0.0000 1.0000 -0.0000
vn 0.3333 0.9428 -0.0000
vt 0.722829 0.086316
vt 1.000000 0.543158
vt 0.722829 0.543158
vt 0.000000 0.086316
vt 0.361414 0.543158
vt 0.000000 0.543158
vt 0.638586 1.000000
vt 0.361414 1.000000
vt 0.361414 0.000000
vt 0.722829 0.456842
vt 0.361414 0.456842
vt 1.000000 0.874160
vt 1.000000 0.543158
vt 0.361414 0.000000
vt 0.361414 0.086316
vt 0.292473 0.543158
vt 0.508366 0.254300
vt 0.854873 -0.008315
vt 0.854873 0.254300
vt 1.000000 0.086316
vt 0.989408 0.000000
vt 0.000000 0.543158
vt 0.010168 0.874160
vt 0.000000 0.874160
vt 0.372007 0.456842
vt 0.638586 0.543158
vt 0.262374 0.840085
vt 0.040268 0.840085
vt 0.010168 0.543158
vt 0.040268 0.577233
vt 0.262374 0.577233
vt 0.292473 0.543158
vt 0.292473 0.874160
vt 0.722829 0.000000
vt 0.722829 0.874160
vt 0.000000 0.000000
vt 0.508366 -0.008315
vt 1.000000 0.000000
vt 0.361414 0.456842
s 0
usemtl Wood
f 82/157/29 83/158/29 81/159/29
f 84/160/30 87/161/30 83/162/30
f 88/161/31 85/163/31 87/164/31
f 86/165/32 81/166/32 85/167/32
f 87/168/33 81/159/33 83/169/33
f 84/160/30 92/170/30 88/171/30
f 88/172/34 89/172/34 84/172/34
f 84/176/29 82/157/29 99/177/29
f 91/178/34 98/179/34 92/180/34
f 86/172/34 100/172/34 82/172/34
f 88/161/31 98/181/31 97/182/31
f 96/183/35 98/179/35 95/184/35
f 95/184/35 99/185/35 94/186/35
f 93/187/35 99/185/35 100/188/35
f 93/187/35 97/189/35 96/183/35
f 82/157/29 84/176/29 83/158/29
f 84/160/30 88/171/30 87/161/30
f 88/161/31 86/182/31 85/163/31
f 86/165/32 82/190/32 81/166/32
f 87/168/33 85/191/33 81/159/33
f 84/160/30 91/192/30 92/170/30
f 88/172/34 90/172/34 89/172/34
f 99/177/29 91/194/29 84/176/29
f 82/157/34 100/157/34 99/177/34
f 91/178/34 99/185/34 98/179/34
f 86/172/34 97/172/34 100/172/34
f 88/161/31 92/195/31 98/181/31
f 97/182/34 86/182/34 88/161/34
f 96/183/35 97/189/35 98/179/35
f 95/184/35 98/179/35 99/185/35
f 93/187/35 94/186/35 99/185/35
f 93/187/35 100/188/35 97/189/35
usemtl CartelesPinturaC
f 94/173/35 96/174/35 95/175/35
f 94/173/35 93/193/35 96/174/35
o Cube.016
v 14.903257 0.546014 38.486584
v 14.903257 1.445849 38.486584
v 14.903257 0.546014 38.986584
v 14.903257 1.445849 38.986584
v 14.251287 0.546014 38.486584
v 14.251287 1.445849 38.486584
v 14.251287 0.546014 38.986584
v 14.251287 1.445849 38.986584
v 14.903257 1.445849 38.986584
v 14.251287 1.445849 38.986584
v 14.903257 1.615865 38.986584
v 14.251287 1.615865 38.986584
v 14.836141 1.463976 38.537853
v 14.836141 1.597738 38.916203
v 14.318404 1.597738 38.916203
v 14.318404 1.463976 38.537853
v 14.251287 1.445849 38.486584
v 14.251287 1.615865 38.967476
v 14.903257 1.615865 38.967476
v 14.903257 1.445849 38.486584
vn 1.0000 -0.0000 -0.0000
vn -0.0000 -0.0000 1.0000
vn -1.0000 -0.0000 -0.0000
vn -0.0000 -0.0000 -1.0000
vn -0.0000 -1.0000 -0.0000
vn -0.0000 1.0000 -0.0000
vn -0.0000 0.9428 -0.3333
vt 0.722829 0.086316
vt 1.000000 0.543158
vt 0.722829 0.543158
vt 0.000000 0.086316
vt 0.361414 0.543158
vt 0.000000 0.543158
vt 0.638586 1.000000
vt 0.361414 1.000000
vt 0.361414 0.000000
vt 0.722829 0.456842
vt 0.361414 0.456842
vt 1.000000 0.874160
vt 1.000000 0.543158
vt 0.361414 0.000000
vt 0.361414 0.086316
vt 0.292473 0.543158
vt 0.505905 0.741535
vt 0.852412 0.478920
vt 0.852412 0.741535
vt 1.000000 0.086316
vt 0.989408 0.000000
vt 0.000000 0.543158
vt 0.010168 0.874160
vt 0.000000 0.874160
vt 0.372007 0.456842
vt 0.638586 0.543158
vt 0.262374 0.840085
vt 0.040268 0.840085
vt 0.010168 0.543158
vt 0.040268 0.577233
vt 0.262374 0.577233
vt 0.292473 0.543158
vt 0.292473 0.874160
vt 0.722829 0.000000
vt 0.722829 0.874160
vt 0.000000 0.000000
vt 0.505905 0.478920
vt 1.000000 0.000000
vt 0.361414 0.456842
s 0
usemtl Wood
f 102/196/36 103/197/36 101/198/36
f 104/199/37 107/200/37 103/201/37
f 108/200/38 105/202/38 107/203/38
f 106/204/39 101/205/39 105/206/39
f 107/207/40 101/198/40 103/208/40
f 104/199/37 112/209/37 108/210/37
f 108/211/41 109/211/41 104/211/41
f 104/215/36 102/196/36 119/216/36
f 111/217/41 118/218/41 112/219/41
f 106/211/41 120/211/41 102/211/41
f 108/200/38 118/220/38 117/221/38
f 116/222/42 118/218/42 115/223/42
f 115/223/42 119/224/42 114/225/42
f 113/226/42 119/224/42 120/227/42
f 113/226/42 117/228/42 116/222/42
f 102/196/36 104/215/36 103/197/36
f 104/199/37 108/210/37 107/200/37
f 108/200/38 106/221/38 105/202/38
f 106/204/39 102/229/39 101/205/39
f 107/207/40 105/230/40 101/198/40
f 104/199/37 111/231/37 112/209/37
f 108/211/41 110/211/41 109/211/41
f 119/216/36 111/233/36 104/215/36
f 102/196/41 120/196/41 119/216/41
f 111/217/41 119/224/41 118/218/41
f 106/211/41 117/211/41 120/211/41
f 108/200/38 112/234/38 118/220/38
f 117/221/41 106/221/41 108/200/41
f 116/222/42 117/228/42 118/218/42
f 115/223/42 118/218/42 119/224/42
f 113/226/42 114/225/42 119/224/42
f 113/226/42 120/227/42 117/228/42
usemtl CartelesPinturaC
f 114/212/42 116/213/42 115/214/42
f 114/212/42 113/232/42 116/213/42
o Cube.017
v 10.870617 0.546014 38.486584
v 10.870617 1.445849 38.486584
v 10.870617 0.546014 38.986584
v 10.870617 1.445849 38.986584
v 10.218647 0.546014 38.486584
v 10.218647 1.445849 38.486584
v 10.218647 0.546014 38.986584
v 10.218647 1.445849 38.986584
v 10.870617 1.445849 38.986584
v 10.218647 1.445849 38.986584
v 10.870617 1.615865 38.986584
v 10.218647 1.615865 38.986584
v 10.803500 1.463976 38.537853
v 10.803500 1.597738 38.916203
v 10.285764 1.597738 38.916203
v 10.285764 1.463976 38.537853
v 10.218647 1.445849 38.486584
v 10.218647 1.615865 38.967476
v 10.870617 1.615865 38.967476
v 10.870617 1.445849 38.486584
vn 1.0000 -0.0000 -0.0000
vn -0.0000 -0.0000 1.0000
vn -1.0000 -0.0000 -0.0000
vn -0.0000 -0.0000 -1.0000
vn -0.0000 -1.0000 -0.0000
vn -0.0000 1.0000 -0.0000
vn -0.0000 0.9428 -0.3333
vt 0.722829 0.086316
vt 1.000000 0.543158
vt 0.722829 0.543158
vt 0.000000 0.086316
vt 0.361414 0.543158
vt 0.000000 0.543158
vt 0.638586 1.000000
vt 0.361414 1.000000
vt 0.361414 0.000000
vt 0.722829 0.456842
vt 0.361414 0.456842
vt 1.000000 0.874160
vt 1.000000 0.543158
vt 0.361414 0.000000
vt 0.361414 0.086316
vt 0.292473 0.543158
vt 0.487449 0.990074
vt 0.833957 0.727459
vt 0.833957 0.990074
vt 1.000000 0.086316
vt 0.989408 0.000000
vt 0.000000 0.543158
vt 0.010168 0.874160
vt 0.000000 0.874160
vt 0.372007 0.456842
vt 0.638586 0.543158
vt 0.262374 0.840085
vt 0.040268 0.840085
vt 0.010168 0.543158
vt 0.040268 0.577233
vt 0.262374 0.577233
vt 0.292473 0.543158
vt 0.292473 0.874160
vt 0.722829 0.000000
vt 0.722829 0.874160
vt 0.000000 0.000000
vt 0.487449 0.727459
vt 1.000000 0.000000
vt 0.361414 0.456842
s 0
usemtl Wood
f 122/235/43 123/236/43 121/237/43
f 124/238/44 127/239/44 123/240/44
f 128/239/45 125/241/45 127/242/45
f 126/243/46 121/244/46 125/245/46
f 127/246/47 121/237/47 123/247/47
f 124/238/44 132/248/44 128/249/44
f 128/250/48 129/250/48 124/250/48
f 124/254/43 122/235/43 139/255/43
f 131/256/48 138/257/48 132/258/48
f 126/250/48 140/250/48 122/250/48
f 128/239/45 138/259/45 137/260/45
f 136/261/49 138/257/49 135/262/49
f 135/262/49 139/263/49 134/264/49
f 133/265/49 139/263/49 140/266/49
f 133/265/49 137/267/49 136/261/49
f 122/235/43 124/254/43 123/236/43
f 124/238/44 128/249/44 127/239/44
f 128/239/45 126/260/45 125/241/45
f 126/243/46 122/268/46 121/244/46
f 127/246/47 125/269/47 121/237/47
f 124/238/44 131/270/44 132/248/44
f 128/250/48 130/250/48 129/250/48
f 139/255/43 131/272/43 124/254/43
f 122/235/48 140/235/48 139/255/48
f 131/256/48 139/263/48 138/257/48
f 126/250/48 137/250/48 140/250/48
f 128/239/45 132/273/45 138/259/45
f 137/260/48 126/260/48 128/239/48
f 136/261/49 137/267/49 138/257/49
f 135/262/49 138/257/49 139/263/49
f 133/265/49 134/264/49 139/263/49
f 133/265/49 140/266/49 137/267/49
usemtl CartelesPinturaC
f 134/251/49 136/252/49 135/253/49
f 134/251/49 133/271/49 136/252/49
o Cube.018
v 4.935134 0.546014 33.835480
v 4.935134 1.445849 33.835480
v 4.435134 0.546014 33.835480
v 4.435134 1.445849 33.835480
v 4.935134 0.546014 33.183510
v 4.935134 1.445849 33.183510
v 4.435134 0.546014 33.183510
v 4.435134 1.445849 33.183510
v 4.435134 1.445849 33.835480
v 4.435134 1.445849 33.183510
v 4.435134 1.615865 33.835480
v 4.435134 1.615865 33.183510
v 4.883862 1.463976 33.768364
v 4.505515 1.597738 33.768364
v 4.505515 1.597738 33.250626
v 4.883862 1.463976 33.250626
v 4.935134 1.445849 33.183510
v 4.454242 1.615865 33.183510
v 4.454242 1.615865 33.835480
v 4.935134 1.445849 33.835480
vn -0.0000 -0.0000 1.0000
vn -1.0000 -0.0000 -0.0000
vn -0.0000 -0.0000 -1.0000
vn 1.0000 -0.0000 -0.0000
vn -0.0000 -1.0000 -0.0000
vn -0.0000 1.0000 -0.0000
vn 0.3333 0.9428 -0.0000
vt 0.722829 0.086316
vt 1.000000 0.543158
vt 0.722829 0.543158
vt 0.000000 0.086316
vt 0.361414 0.543158
vt 0.000000 0.543158
vt 0.638586 1.000000
vt 0.361414 1.000000
vt 0.361414 0.000000
vt 0.722829 0.456842
vt 0.361414 0.456842
vt 1.000000 0.874160
vt 1.000000 0.543158
vt 0.361414 0.000000
vt 0.361414 0.086316
vt 0.292473 0.543158
vt 0.261057 0.655408
vt 0.504212 0.392793
vt 0.504212 0.655408
vt 1.000000 0.086316
vt 0.989408 0.000000
vt 0.000000 0.543158
vt 0.010168 0.874160
vt 0.000000 0.874160
vt 0.372007 0.456842
vt 0.638586 0.543158
vt 0.262374 0.840085
vt 0.040268 0.840085
vt 0.010168 0.543158
vt 0.040268 0.577233
vt 0.262374 0.577233
vt 0.292473 0.543158
vt 0.292473 0.874160
vt 0.722829 0.000000
vt 0.722829 0.874160
vt 0.000000 0.000000
vt 0.261057 0.392793
vt 1.000000 0.000000
vt 0.361414 0.456842
s 0
usemtl Wood
f 142/274/50 143/275/50 141/276/50
f 144/277/51 147/278/51 143/279/51
f 148/278/52 145/280/52 147/281/52
f 146/282/53 141/283/53 145/284/53
f 147/285/54 141/276/54 143/286/54
f 144/277/51 152/287/51 148/288/51
f 148/289/55 149/289/55 144/289/55
f 144/293/50 142/274/50 159/294/50
f 151/295/55 158/296/55 152/297/55
f 146/289/55 160/289/55 142/289/55
f 148/278/52 158/298/52 157/299/52
f 156/300/56 158/296/56 155/301/56
f 155/301/56 159/302/56 154/303/56
f 153/304/56 159/302/56 160/305/56
f 153/304/56 157/306/56 156/300/56
f 142/274/50 144/293/50 143/275/50
f 144/277/51 148/288/51 147/278/51
f 148/278/52 146/299/52 145/280/52
f 146/282/53 142/307/53 141/283/53
f 147/285/54 145/308/54 141/276/54
f 144/277/51 151/309/51 152/287/51
f 148/289/55 150/289/55 149/289/55
f 159/294/50 151/311/50 144/293/50
f 142/274/55 160/274/55 159/294/55
f 151/295/55 159/302/55 158/296/55
f 146/289/55 157/289/55 160/289/55
f 148/278/52 152/312/52 158/298/52
f 157/299/55 146/299/55 148/278/55
f 156/300/56 157/306/56 158/296/56
f 155/301/56 158/296/56 159/302/56
f 153/304/56 154/303/56 159/302/56
f 153/304/56 160/305/56 157/306/56
usemtl CartelesPinturaC
f 154/290/56 156/291/56 155/292/56
f 154/290/56 153/310/56 156/291/56
