# Blender 4.5.3 LTS
# www.blender.org
mtllib Puertas.mtl
o Puerta2
v 16.306259 0.560957 30.107357
v 16.306259 3.159462 30.107357
v 16.705063 0.560957 30.107357
v 16.705063 3.159462 30.107357
v 16.306259 0.560957 28.093056
v 16.306259 3.159462 28.093056
v 16.705063 0.560957 28.093056
v 16.705063 3.159462 28.093056
v 16.306259 0.560957 28.093056
v 16.306259 0.560957 30.107357
v 16.306259 3.159462 30.107357
v 16.306259 3.159462 28.093056
v 19.800598 0.560955 30.328918
v 19.800598 3.159461 30.328918
v 20.199402 0.560955 30.328918
v 20.199402 3.159461 30.328918
v 19.800598 0.560955 28.314617
v 19.800598 3.159461 28.314617
v 20.199402 0.560955 28.314617
v 20.199402 3.159461 28.314617
v 19.800598 0.560955 28.314617
v 19.800598 0.560955 30.328918
v 19.800598 3.159461 30.328918
v 19.800598 3.159461 28.314617
vn 1.0000 -0.0000 -0.0000
vn -0.0000 -0.0000 1.0000
vn -0.0000 -1.0000 -0.0000
vn -0.0000 1.0000 -0.0000
vn -0.0000 -0.0000 -1.0000
vn -1.0000 -0.0000 -0.0000
vt 0.500000 1.000000
vt 0.000000 0.000000
vt 0.500000 0.000000
vt 0.500000 0.000000
vt 1.000000 1.000000
vt 1.000000 0.000000
vt 1.000000 0.000000
vt 0.000000 1.000000
vt 0.500000 1.000000
s 0
usemtl Door
f 8/1/1 3/2/1 7/3/1
f 4/4/2 1/1/2 3/1/2
f 7/5/3 1/1/3 5/5/3
f 6/6/4 4/4/4 8/6/4
f 6/6/5 7/5/5 5/5/5
f 1/1/4 9/5/4 5/5/4
f 11/5/6 9/4/6 10/7/6
f 2/4/4 10/1/4 1/1/4
f 5/5/4 12/6/4 6/6/4
f 6/6/4 11/4/4 2/4/4
f 20/1/1 15/2/1 19/3/1
f 16/4/2 13/1/2 15/1/2
f 19/5/3 13/1/3 17/5/3
f 18/6/4 16/4/4 20/6/4
f 18/6/5 19/5/5 17/5/5
f 13/1/4 21/5/4 17/5/4
f 23/5/6 21/4/6 22/7/6
f 14/4/4 22/1/4 13/1/4
f 17/5/4 24/6/4 18/6/4
f 18/6/4 23/4/4 14/4/4
f 8/1/1 4/8/1 3/2/1
f 4/4/2 2/4/2 1/1/2
f 7/5/3 3/1/3 1/1/3
f 6/6/4 2/4/4 4/4/4
f 6/6/5 8/6/5 7/5/5
f 1/1/4 10/1/4 9/5/4
f 11/5/6 12/9/6 9/4/6
f 2/4/4 11/4/4 10/1/4
f 5/5/4 9/5/4 12/6/4
f 6/6/4 12/6/4 11/4/4
f 20/1/1 16/8/1 15/2/1
f 16/4/2 14/4/2 13/1/2
f 19/5/3 15/1/3 13/1/3
f 18/6/4 14/4/4 16/4/4
f 18/6/5 20/6/5 19/5/5
f 13/1/4 22/1/4 21/5/4
f 23/5/6 24/9/6 21/4/6
f 14/4/4 23/4/4 22/1/4
f 17/5/4 21/5/4 24/6/4
f 18/6/4 24/6/4 23/4/4
o Puerta2.003
v -32.965454 0.560955 -1.962582
v -32.965454 3.159461 -1.962582
v -32.965454 0.560955 -1.842941
v -32.965454 3.159461 -1.842941
v -30.951153 0.560955 -1.962582
v -30.951153 3.159461 -1.962582
v -30.951153 0.560955 -1.842941
v -30.951153 3.159461 -1.842941
v -30.951153 0.560955 -1.962582
v -32.965454 0.560955 -1.962582
v -32.965454 3.159461 -1.962582
v -30.951153 3.159461 -1.962582
v -32.986576 0.560955 1.837102
v -32.986576 3.159460 1.837102
v -32.986576 0.560955 1.956742
v -32.986576 3.159460 1.956742
v -30.972275 0.560955 1.837102
v -30.972275 3.159460 1.837102
v -30.972275 0.560955 1.956742
v -30.972275 3.159460 1.956742
v -30.972275 0.560955 1.837102
v -32.986576 0.560955 1.837102
v -32.986576 3.159460 1.837102
v -30.972275 3.159460 1.837102
vn -0.0000 -0.0000 1.0000
vn -1.0000 -0.0000 -0.0000
vn -0.0000 -1.0000 -0.0000
vn -0.0000 1.0000 -0.0000
vn 1.0000 -0.0000 -0.0000
vn -0.0000 -0.0000 -1.0000
vt 0.500000 1.000000
vt 0.000000 0.000000
vt 0.500000 0.000000
vt 0.500000 0.000000
vt 1.000000 1.000000
vt 1.000000 0.000000
vt 1.000000 0.000000
vt 0.000000 1.000000
vt 0.500000 1.000000
s 0
usemtl Door
f 32/10/7 27/11/7 31/12/7
f 28/13/8 25/10/8 27/10/8
f 31/14/9 25/10/9 29/14/9
f 30/15/10 28/13/10 32/15/10
f 30/15/11 31/14/11 29/14/11
f 25/10/10 33/14/10 29/14/10
f 35/14/12 33/13/12 34/16/12
f 26/13/10 34/10/10 25/10/10
f 29/14/10 36/15/10 30/15/10
f 30/15/10 35/13/10 26/13/10
f 44/10/7 39/11/7 43/12/7
f 40/13/8 37/10/8 39/10/8
f 43/14/9 37/10/9 41/14/9
f 42/15/10 40/13/10 44/15/10
f 42/15/11 43/14/11 41/14/11
f 37/10/10 45/14/10 41/14/10
f 47/14/12 45/13/12 46/16/12
f 38/13/10 46/10/10 37/10/10
f 41/14/10 48/15/10 42/15/10
f 42/15/10 47/13/10 38/13/10
f 32/10/7 28/17/7 27/11/7
f 28/13/8 26/13/8 25/10/8
f 31/14/9 27/10/9 25/10/9
f 30/15/10 26/13/10 28/13/10
f 30/15/11 32/15/11 31/14/11
f 25/10/10 34/10/10 33/14/10
f 35/14/12 36/18/12 33/13/12
f 26/13/10 35/13/10 34/10/10
f 29/14/10 33/14/10 36/15/10
f 30/15/10 36/15/10 35/13/10
f 44/10/7 40/17/7 39/11/7
f 40/13/8 38/13/8 37/10/8
f 43/14/9 39/10/9 37/10/9
f 42/15/10 38/13/10 40/13/10
f 42/15/11 44/15/11 43/14/11
f 37/10/10 46/10/10 45/14/10
f 47/14/12 48/18/12 45/13/12
f 38/13/10 47/13/10 46/10/10
f 41/14/10 45/14/10 48/15/10
f 42/15/10 48/15/10 47/13/10
o Puerta2.007
v 32.980930 0.560956 -1.843757
v 32.980930 3.159461 -1.843757
v 32.980930 0.560956 -1.963397
v 32.980930 3.159461 -1.963397
v 30.966629 0.560956 -1.843756
v 30.966629 3.159461 -1.843756
v 30.966629 0.560956 -1.963397
v 30.966629 3.159461 -1.963397
v 30.966629 0.560956 -1.843756
v 32.980930 0.560956 -1.843757
v 32.980930 3.159461 -1.843757
v 30.966629 3.159461 -1.843756
v 32.974457 0.560956 1.985538
v 32.974457 3.159461 1.985538
v 32.974457 0.560956 1.865897
v 32.974457 3.159461 1.865897
v 30.960155 0.560956 1.985538
v 30.960155 3.159461 1.985538
v 30.960155 0.560956 1.865897
v 30.960155 3.159461 1.865897
v 30.960155 0.560956 1.985538
v 32.974457 0.560956 1.985538
v 32.974457 3.159461 1.985538
v 30.960155 3.159461 1.985538
vn -0.0000 -0.0000 -1.0000
vn 1.0000 -0.0000 -0.0000
vn -0.0000 -1.0000 -0.0000
vn -0.0000 1.0000 -0.0000
vn -1.0000 -0.0000 -0.0000
vn -0.0000 -0.0000 1.0000
vt 0.500000 1.000000
vt 0.000000 0.000000
vt 0.500000 0.000000
vt 0.500000 0.000000
vt 1.000000 1.000000
vt 1.000000 0.000000
vt 1.000000 0.000000
vt 0.000000 1.000000
vt 0.500000 1.000000
s 0
usemtl Door
f 56/19/13 51/20/13 55/21/13
f 52/22/14 49/19/14 51/19/14
f 55/23/15 49/19/15 53/23/15
f 54/24/16 52/22/16 56/24/16
f 54/24/17 55/23/17 53/23/17
f 49/19/16 57/23/16 53/23/16
f 59/23/18 57/22/18 58/25/18
f 50/22/16 58/19/16 49/19/16
f 53/23/16 60/24/16 54/24/16
f 54/24/16 59/22/16 50/22/16
f 68/19/13 63/20/13 67/21/13
f 64/22/14 61/19/14 63/19/14
f 67/23/15 61/19/15 65/23/15
f 66/24/16 64/22/16 68/24/16
f 66/24/17 67/23/17 65/23/17
f 61/19/16 69/23/16 65/23/16
f 71/23/18 69/22/18 70/25/18
f 62/22/16 70/19/16 61/19/16
f 65/23/16 72/24/16 66/24/16
f 66/24/16 71/22/16 62/22/16
f 56/19/13 52/26/13 51/20/13
f 52/22/14 50/22/14 49/19/14
f 55/23/15 51/19/15 49/19/15
f 54/24/16 50/22/16 52/22/16
f 54/24/17 56/24/17 55/23/17
f 49/19/16 58/19/16 57/23/16
f 59/23/18 60/27/18 57/22/18
f 50/22/16 59/22/16 58/19/16
f 53/23/16 57/23/16 60/24/16
f 54/24/16 60/24/16 59/22/16
f 68/19/13 64/26/13 63/20/13
f 64/22/14 62/22/14 61/19/14
f 67/23/15 63/19/15 61/19/15
f 66/24/16 62/22/16 64/22/16
f 66/24/17 68/24/17 67/23/17
f 61/19/16 70/19/16 69/23/16
f 71/23/18 72/27/18 69/22/18
f 62/22/16 71/22/16 70/19/16
f 65/23/16 69/23/16 72/24/16
f 66/24/16 72/24/16 71/22/16
o Puerta2.005
v -23.510984 0.560957 30.043692
v -23.510984 3.159462 30.043692
v -23.391344 0.560957 30.043692
v -23.391344 3.159462 30.043692
v -23.510984 0.560957 28.029390
v -23.510984 3.159462 28.029390
v -23.391344 0.560957 28.029390
v -23.391344 3.159462 28.029390
v -23.510984 0.560957 28.029390
v -23.510984 0.560957 30.043692
v -23.510984 3.159462 30.043692
v -23.510984 3.159462 28.029390
v -19.555984 0.560957 30.043692
v -19.555984 3.159462 30.043692
v -19.436344 0.560957 30.043692
v -19.436344 3.159462 30.043692
v -19.555984 0.560957 28.029390
v -19.555984 3.159462 28.029390
v -19.436344 0.560957 28.029390
v -19.436344 3.159462 28.029390
v -19.555984 0.560957 28.029390
v -19.555984 0.560957 30.043692
v -19.555984 3.159462 30.043692
v -19.555984 3.159462 28.029390
vn 1.0000 -0.0000 -0.0000
vn -0.0000 -0.0000 1.0000
vn -0.0000 -1.0000 -0.0000
vn -0.0000 1.0000 -0.0000
vn -0.0000 -0.0000 -1.0000
vn -1.0000 -0.0000 -0.0000
vt 0.500000 1.000000
vt 0.000000 0.000000
vt 0.500000 0.000000
vt 0.500000 0.000000
vt 1.000000 1.000000
vt 1.000000 0.000000
vt 1.000000 0.000000
vt 0.000000 1.000000
vt 0.500000 1.000000
s 0
usemtl Door
f 80/28/19 75/29/19 79/30/19
f 76/31/20 73/28/20 75/28/20
f 79/32/21 73/28/21 77/32/21
f 78/33/22 76/31/22 80/33/22
f 78/33/23 79/32/23 77/32/23
f 73/28/22 81/32/22 77/32/22
f 83/32/24 81/31/24 82/34/24
f 74/31/22 82/28/22 73/28/22
f 77/32/22 84/33/22 78/33/22
f 78/33/22 83/31/22 74/31/22
f 92/28/19 87/29/19 91/30/19
f 88/31/20 85/28/20 87/28/20
f 91/32/21 85/28/21 89/32/21
f 90/33/22 88/31/22 92/33/22
f 90/33/23 91/32/23 89/32/23
f 85/28/22 93/32/22 89/32/22
f 95/32/24 93/31/24 94/34/24
f 86/31/22 94/28/22 85/28/22
f 89/32/22 96/33/22 90/33/22
f 90/33/22 95/31/22 86/31/22
f 80/28/19 76/35/19 75/29/19
f 76/31/20 74/31/20 73/28/20
f 79/32/21 75/28/21 73/28/21
f 78/33/22 74/31/22 76/31/22
f 78/33/23 80/33/23 79/32/23
f 73/28/22 82/28/22 81/32/22
f 83/32/24 84/36/24 81/31/24
f 74/31/22 83/31/22 82/28/22
f 77/32/22 81/32/22 84/33/22
f 78/33/22 84/33/22 83/31/22
f 92/28/19 88/35/19 87/29/19
f 88/31/20 86/31/20 85/28/20
f 91/32/21 87/28/21 85/28/21
f 90/33/22 86/31/22 88/31/22
f 90/33/23 92/33/23 91/32/23
f 85/28/22 94/28/22 93/32/22
f 95/32/24 96/36/24 93/31/24
f 86/31/22 95/31/22 94/28/22
f 89/32/22 93/32/22 96/33/22
f 90/33/22 96/33/22 95/31/22
