# Blender 4.5.3 LTS
# www.blender.org
mtllib Relojp.mtl
o Cylinder
v -0.052209 2.147314 -0.250000
v 0.447791 2.147314 -0.250000
v -0.052209 2.098541 -0.245196
v 0.447791 2.098541 -0.245196
v -0.052209 2.051643 -0.230970
v 0.447791 2.051643 -0.230970
v -0.052209 2.008421 -0.207867
v 0.447791 2.008421 -0.207867
v -0.052209 1.970537 -0.176777
v 0.447791 1.970537 -0.176777
v -0.052209 1.939447 -0.138893
v 0.447791 1.939447 -0.138893
v -0.052209 1.916344 -0.095671
v 0.447791 1.916344 -0.095671
v -0.052209 1.902118 -0.048773
v 0.447791 1.902118 -0.048773
v -0.052209 1.897314 0.000000
v 0.447791 1.897314 0.000000
v -0.052209 1.902118 0.048773
v 0.447791 1.902118 0.048773
v -0.052209 1.916344 0.095671
v 0.447791 1.916344 0.095671
v -0.052209 1.939447 0.138893
v 0.447791 1.939447 0.138893
v -0.052209 1.970537 0.176777
v 0.447791 1.970537 0.176777
v -0.052209 2.008421 0.207867
v 0.447791 2.008421 0.207867
v -0.052209 2.051643 0.230970
v 0.447791 2.051643 0.230970
v -0.052209 2.098541 0.245196
v 0.447791 2.098541 0.245196
v -0.052209 2.147314 0.250000
v 0.447791 2.147314 0.250000
v -0.052209 2.196087 0.245196
v 0.447791 2.196087 0.245196
v -0.052209 2.242985 0.230970
v 0.447791 2.242985 0.230970
v -0.052209 2.286207 0.207867
v 0.447791 2.286207 0.207867
v -0.052209 2.324091 0.176777
v 0.447791 2.324091 0.176777
v -0.052209 2.355181 0.138893
v 0.447791 2.355181 0.138893
v -0.052209 2.378284 0.095671
v 0.447791 2.378284 0.095671
v -0.052209 2.392510 0.048773
v 0.447791 2.392510 0.048773
v -0.052209 2.397314 0.000000
v 0.447791 2.397314 0.000000
v -0.052209 2.392510 -0.048773
v 0.447791 2.392510 -0.048773
v -0.052209 2.378284 -0.095671
v 0.447791 2.378284 -0.095671
v -0.052209 2.355181 -0.138893
v 0.447791 2.355181 -0.138893
v -0.052209 2.324091 -0.176777
v 0.447791 2.324091 -0.176777
v -0.052209 2.286207 -0.207867
v 0.447791 2.286207 -0.207867
v -0.052209 2.242985 -0.230970
v 0.447791 2.242985 -0.230970
v -0.052209 2.196087 -0.245196
v 0.447791 2.196087 -0.245196
v -0.335827 -0.036947 0.308001
v -0.335827 -0.009711 0.308001
v -0.335827 -0.036947 0.255842
v -0.335827 -0.009711 0.255842
v 0.484065 -0.036947 0.308001
v 0.484065 -0.009711 0.308001
v 0.484065 -0.036947 0.255842
v 0.484065 -0.009711 0.255842
v -0.141121 -0.007320 0.309307
v -0.045280 1.485948 0.182121
v -0.141121 0.114787 0.309307
v -0.141121 -0.007320 -0.309307
v -0.045280 1.485948 -0.182121
v -0.141121 0.114787 -0.309307
v -0.045280 0.295536 0.182121
v 0.483656 -0.007320 0.309307
v 0.483656 0.114787 0.309307
v 0.483656 -0.007320 -0.309307
v -0.045280 0.295536 -0.182121
v 0.483656 0.114787 -0.309307
v 0.398343 1.745598 -0.273174
v 0.398343 0.107897 -0.273174
v 0.398343 1.745598 0.273174
v 0.398343 0.107897 0.273174
v -0.101657 1.745599 -0.273174
v -0.101657 0.107897 -0.273174
v -0.101657 1.745599 0.273174
v -0.101657 0.107897 0.273174
v 0.398343 1.726448 -0.375000
v 0.398343 1.726448 0.375000
v -0.101657 1.726448 -0.375000
v -0.101657 1.726448 0.375000
v 0.398343 2.330667 -0.375000
v 0.398343 2.330667 0.375000
v -0.101657 2.330667 -0.375000
v -0.101657 2.330667 0.375000
v 0.398343 2.427755 -0.234454
v 0.398343 2.476448 -0.064277
v 0.398343 2.476448 0.064277
v 0.398343 2.427755 0.234454
v -0.101657 2.476448 -0.064277
v -0.101657 2.427755 -0.234454
v -0.101657 2.427755 0.234454
v -0.101657 2.476448 0.064277
v 0.398343 1.485948 0.182121
v 0.398343 1.485948 -0.182121
v 0.398343 0.295536 0.182121
v 0.398343 0.295536 -0.182121
v -0.335827 -0.036947 -0.255840
v -0.335827 -0.009711 -0.255840
v -0.335827 -0.036947 -0.308000
v -0.335827 -0.009711 -0.308000
v 0.484065 -0.036947 -0.255840
v 0.484065 -0.009711 -0.255840
v 0.484065 -0.036947 -0.308000
v 0.484065 -0.009711 -0.308000
v -0.065958 2.425937 0.244233
v -0.065958 2.425937 -0.244233
v 0.384042 2.425937 0.244233
v 0.384042 2.425937 -0.244233
v -0.065958 2.679679 0.244233
v -0.065958 2.914403 0.009509
v -0.065958 2.773143 0.225642
v -0.065958 2.846678 0.176508
v -0.065958 2.895812 0.102973
v -0.065958 2.914403 -0.009509
v -0.065958 2.679679 -0.244233
v -0.065958 2.895812 -0.102973
v -0.065958 2.846678 -0.176508
v -0.065958 2.773143 -0.225642
v 0.384042 2.914403 0.009509
v 0.384042 2.679679 0.244233
v 0.384042 2.895812 0.102973
v 0.384042 2.846678 0.176508
v 0.384042 2.773143 0.225642
v 0.384042 2.679679 -0.244233
v 0.384042 2.914403 -0.009509
v 0.384042 2.773143 -0.225642
v 0.384042 2.846678 -0.176508
v 0.384042 2.895812 -0.102973
v -0.065958 2.357670 -0.312500
v -0.065958 2.357670 0.312500
v 0.384042 2.357670 0.312500
v 0.384042 2.357670 -0.312500
v -0.065958 2.960118 -0.129609
v -0.065958 2.982670 -0.016232
v 0.384042 2.982670 -0.016232
v 0.384042 2.960118 -0.129609
v -0.065958 2.895895 -0.225725
v 0.384042 2.895895 -0.225725
v -0.065958 2.799779 -0.289948
v 0.384042 2.799779 -0.289948
v -0.065958 2.686403 -0.312500
v 0.384042 2.686403 -0.312500
v 0.384042 2.960118 0.129609
v 0.384042 2.982670 0.016232
v -0.065958 2.982670 0.016232
v -0.065958 2.960118 0.129609
v 0.384042 2.895895 0.225725
v -0.065958 2.895895 0.225725
v 0.384042 2.799779 0.289948
v -0.065958 2.799779 0.289948
v 0.384042 2.686403 0.312500
v -0.065958 2.686403 0.312500
v 0.159042 2.795886 -0.050000
v 0.159042 2.895886 -0.050000
v 0.209042 2.795886 0.000000
v 0.209042 2.895886 0.000000
v 0.159042 2.795886 0.050000
v 0.159042 2.895886 0.050000
v 0.109042 2.795886 0.000000
v 0.109042 2.895886 0.000000
vn -0.0000 -0.0980 -0.9952
vn -0.0000 -0.2903 -0.9569
vn -0.0000 -0.4714 -0.8819
vn -0.0000 -0.6344 -0.7730
vn -0.0000 -0.7730 -0.6344
vn -0.0000 -0.8819 -0.4714
vn -0.0000 -0.9569 -0.2903
vn -0.0000 -0.9952 -0.0980
vn -0.0000 -0.9952 0.0980
vn -0.0000 -0.9569 0.2903
vn -0.0000 -0.8819 0.4714
vn -0.0000 -0.7730 0.6344
vn -0.0000 -0.6344 0.7730
vn -0.0000 -0.4714 0.8819
vn -0.0000 -0.2903 0.9569
vn -0.0000 -0.0980 0.9952
vn -0.0000 0.0980 0.9952
vn -0.0000 0.2903 0.9569
vn -0.0000 0.4714 0.8819
vn -0.0000 0.6344 0.7730
vn -0.0000 0.7730 0.6344
vn -0.0000 0.8819 0.4714
vn -0.0000 0.9569 0.2903
vn -0.0000 0.9952 0.0980
vn -0.0000 0.9952 -0.0980
vn -0.0000 0.9569 -0.2903
vn -0.0000 0.8819 -0.4714
vn -0.0000 0.7730 -0.6344
vn -0.0000 0.6344 -0.7730
vn -0.0000 0.4714 -0.8819
vn 1.0000 -0.0000 -0.0000
vn -0.0000 0.2903 -0.9569
vn -0.0000 0.0980 -0.9952
vn -1.0000 -0.0000 -0.0000
vn -0.0000 -0.0000 -1.0000
vn -0.0000 -0.0000 1.0000
vn -0.0000 -1.0000 -0.0000
vn -0.0000 1.0000 -0.0000
vn -0.0000 0.9614 0.2751
vn -0.0000 0.9614 -0.2751
vn -0.0000 0.8228 -0.5684
vn -0.0000 0.8228 0.5684
vn -0.0000 0.9808 -0.1951
vn -0.0000 0.8315 -0.5556
vn -0.0000 0.5556 -0.8315
vn -0.0000 0.1951 -0.9808
vn -0.0000 0.9808 0.1951
vn -0.0000 0.8315 0.5556
vn -0.0000 0.5556 0.8315
vn -0.0000 0.1951 0.9808
vn 0.7071 -0.0000 -0.7071
vn 0.7071 -0.0000 0.7071
vn -0.7071 -0.0000 0.7071
vn -0.7071 -0.0000 -0.7071
vt 1.000000 1.000000
vt 0.968750 0.500000
vt 1.000000 0.500000
vt 0.968750 1.000000
vt 0.937500 0.500000
vt 0.937500 1.000000
vt 0.906250 0.500000
vt 0.906250 1.000000
vt 0.875000 0.500000
vt 0.875000 1.000000
vt 0.843750 0.500000
vt 0.843750 1.000000
vt 0.812500 0.500000
vt 0.812500 1.000000
vt 0.781250 0.500000
vt 0.781250 1.000000
vt 0.750000 0.500000
vt 0.750000 1.000000
vt 0.718750 0.500000
vt 0.718750 1.000000
vt 0.687500 0.500000
vt 0.687500 1.000000
vt 0.656250 0.500000
vt 0.656250 1.000000
vt 0.625000 0.500000
vt 0.625000 1.000000
vt 0.593750 0.500000
vt 0.593750 1.000000
vt 0.562500 0.500000
vt 0.562500 1.000000
vt 0.531250 0.500000
vt 0.531250 1.000000
vt 0.500000 0.500000
vt 0.500000 1.000000
vt 0.468750 0.500000
vt 0.468750 1.000000
vt 0.437500 0.500000
vt 0.437500 1.000000
vt 0.406250 0.500000
vt 0.406250 1.000000
vt 0.375000 0.500000
vt 0.375000 1.000000
vt 0.343750 0.500000
vt 0.343750 1.000000
vt 0.312500 0.500000
vt 0.312500 1.000000
vt 0.281250 0.500000
vt 0.281250 1.000000
vt 0.250000 0.500000
vt 0.250000 1.000000
vt 0.218750 0.500000
vt 0.218750 1.000000
vt 0.187500 0.500000
vt 0.187500 1.000000
vt 0.156250 0.500000
vt 0.156250 1.000000
vt 0.125000 0.500000
vt 0.125000 1.000000
vt 0.093750 0.500000
vt 0.093750 1.000000
vt 0.062500 0.500000
vt 0.363880 0.066716
vt 0.821955 0.256458
vt 0.632214 0.714534
vt 0.062500 1.000000
vt 0.031250 0.500000
vt 0.031250 1.000000
vt 0.000000 0.500000
vt 0.796822 0.014612
vt 0.514612 0.203178
vt 0.703178 0.485388
vt 0.625000 0.000000
vt 0.375000 0.250000
vt 0.375000 0.000000
vt 0.625000 0.250000
vt 0.375000 0.750000
vt 0.625000 0.750000
vt 0.125000 0.750000
vt 0.585364 0.541664
vt 0.403644 0.708336
vt 0.403644 0.541664
vt 0.576406 0.250000
vt 0.576406 0.750000
vt 0.608769 0.707839
vt 0.625000 0.651794
vt 0.625000 0.598206
vt 0.608769 0.208418
vt 0.625000 0.154535
vt 0.875000 0.603574
vt 0.608769 0.542161
vt 0.576406 1.000000
vt 0.576406 0.000000
vt 0.608769 0.046849
vt 0.611726 0.250000
vt 0.611726 1.000000
vt 0.611726 0.750000
vt 0.566445 0.734485
vt 0.498047 0.741221
vt 0.429649 0.734485
vt 0.363880 0.714534
vt 0.303266 0.682135
vt 0.250138 0.638534
vt 0.206537 0.585406
vt 0.174138 0.524792
vt 0.154187 0.459023
vt 0.147451 0.390625
vt 0.154187 0.322227
vt 0.174138 0.256458
vt 0.206537 0.195844
vt 0.250138 0.142716
vt 0.303266 0.099115
vt 0.429649 0.046765
vt 0.632214 0.066716
vt 0.498047 0.040029
vt 0.566445 0.046765
vt 0.692828 0.099115
vt 0.745956 0.142716
vt 0.789557 0.195844
vt 0.841906 0.322227
vt 0.821955 0.524792
vt 0.848643 0.390625
vt 0.841906 0.459023
vt 0.789557 0.585406
vt 0.745956 0.638534
vt 0.692828 0.682135
vt 0.000000 1.000000
vt 0.750000 0.490000
vt 0.796822 0.485388
vt 0.841844 0.471731
vt 0.883337 0.449553
vt 0.919706 0.419706
vt 0.949553 0.383337
vt 0.971731 0.341844
vt 0.985388 0.296822
vt 0.990000 0.250000
vt 0.985388 0.203178
vt 0.971731 0.158156
vt 0.949553 0.116663
vt 0.919706 0.080294
vt 0.883337 0.050447
vt 0.841844 0.028269
vt 0.750000 0.010000
vt 0.703178 0.014612
vt 0.658156 0.028269
vt 0.616663 0.050447
vt 0.580294 0.080294
vt 0.550447 0.116663
vt 0.528269 0.158156
vt 0.510000 0.250000
vt 0.514612 0.296822
vt 0.528269 0.341844
vt 0.550447 0.383337
vt 0.580294 0.419706
vt 0.616663 0.449553
vt 0.658156 0.471731
vt 0.875000 0.750000
vt 0.585364 0.708336
vt 0.576406 0.500000
vt 0.608769 1.000000
vt 0.875000 0.646426
vt 0.625000 0.105978
vt 0.611726 0.500000
vt 0.875000 0.618507
vt 0.625000 0.618507
vt 0.618618 0.573156
vt 0.875000 0.573156
vt 0.600444 0.524556
vt 0.596237 0.221237
vt 0.551844 0.506382
vt 0.551844 0.243618
vt 0.506493 0.500000
vt 0.506493 0.250000
vt 0.625000 0.631493
vt 0.875000 0.631493
vt 0.875000 0.676844
vt 0.618618 0.676844
vt 0.600444 0.725444
vt 0.551844 1.000000
vt 0.551844 0.743618
vt 0.506493 1.000000
vt 0.506493 0.750000
vt 0.402336 0.027350
vt 0.402347 0.222753
vt 0.402454 0.527283
vt 0.402454 0.722717
vt 0.591270 0.167318
vt 0.597938 0.129106
vt 0.625000 0.131493
vt 0.615979 0.176844
vt 0.599155 0.621122
vt 0.593413 0.582183
vt 0.573223 0.198672
vt 0.575703 0.549635
vt 0.542213 0.217456
vt 0.543197 0.531954
vt 0.504061 0.223380
vt 0.504436 0.526566
vt 0.593413 0.667818
vt 0.599155 0.628878
vt 0.597897 0.121453
vt 0.590363 0.083953
vt 0.615979 0.073156
vt 0.625000 0.118507
vt 0.575703 0.700365
vt 0.570680 0.054502
vt 0.590290 0.034710
vt 0.543197 0.718045
vt 0.541253 0.034833
vt 0.551844 0.009021
vt 0.504436 0.723434
vt 0.503864 0.027392
vt 0.506493 0.000000
vt 0.490000 0.250000
vt 0.250000 0.490000
vt 0.010000 0.250000
vt 0.250000 0.010000
s 0
usemtl reloj
f 2/1/1 3/2/1 1/3/1
f 4/4/2 5/5/2 3/2/2
f 6/6/3 7/7/3 5/5/3
f 8/8/4 9/9/4 7/7/4
f 10/10/5 11/11/5 9/9/5
f 12/12/6 13/13/6 11/11/6
f 14/14/7 15/15/7 13/13/7
f 16/16/8 17/17/8 15/15/8
f 18/18/9 19/19/9 17/17/9
f 20/20/10 21/21/10 19/19/10
f 22/22/11 23/23/11 21/21/11
f 24/24/12 25/25/12 23/23/12
f 26/26/13 27/27/13 25/25/13
f 28/28/14 29/29/14 27/27/14
f 30/30/15 31/31/15 29/29/15
f 32/32/16 33/33/16 31/31/16
f 34/34/17 35/35/17 33/33/17
f 36/36/18 37/37/18 35/35/18
f 38/38/19 39/39/19 37/37/19
f 40/40/20 41/41/20 39/39/20
f 42/42/21 43/43/21 41/41/21
f 44/44/22 45/45/22 43/43/22
f 46/46/23 47/47/23 45/45/23
f 48/48/24 49/49/24 47/47/24
f 50/50/25 51/51/25 49/49/25
f 52/52/26 53/53/26 51/51/26
f 54/54/27 55/55/27 53/53/27
f 56/56/28 57/57/28 55/55/28
f 58/58/29 59/59/29 57/57/29
f 60/60/30 61/61/30 59/59/30
f 38/62/31 22/63/31 6/64/31
f 62/65/32 63/66/32 61/61/32
f 64/67/33 1/68/33 63/66/33
f 31/69/34 47/70/34 63/71/34
f 2/1/1 4/4/1 3/2/1
f 4/4/2 6/6/2 5/5/2
f 6/6/3 8/8/3 7/7/3
f 8/8/4 10/10/4 9/9/4
f 10/10/5 12/12/5 11/11/5
f 12/12/6 14/14/6 13/13/6
f 14/14/7 16/16/7 15/15/7
f 16/16/8 18/18/8 17/17/8
f 18/18/9 20/20/9 19/19/9
f 20/20/10 22/22/10 21/21/10
f 22/22/11 24/24/11 23/23/11
f 24/24/12 26/26/12 25/25/12
f 26/26/13 28/28/13 27/27/13
f 28/28/14 30/30/14 29/29/14
f 30/30/15 32/32/15 31/31/15
f 32/32/16 34/34/16 33/33/16
f 34/34/17 36/36/17 35/35/17
f 36/36/18 38/38/18 37/37/18
f 38/38/19 40/40/19 39/39/19
f 40/40/20 42/42/20 41/41/20
f 42/42/21 44/44/21 43/43/21
f 44/44/22 46/46/22 45/45/22
f 46/46/23 48/48/23 47/47/23
f 48/48/24 50/50/24 49/49/24
f 50/50/25 52/52/25 51/51/25
f 52/52/26 54/54/26 53/53/26
f 54/54/27 56/56/27 55/55/27
f 56/56/28 58/58/28 57/57/28
f 58/58/29 60/60/29 59/59/29
f 60/60/30 62/65/30 61/61/30
f 6/64/31 4/97/31 2/98/31
f 2/98/31 64/99/31 6/64/31
f 64/99/31 62/100/31 6/64/31
f 62/100/31 60/101/31 58/102/31
f 58/102/31 56/103/31 54/104/31
f 54/104/31 52/105/31 50/106/31
f 50/106/31 48/107/31 54/104/31
f 48/107/31 46/108/31 54/104/31
f 46/108/31 44/109/31 42/110/31
f 42/110/31 40/111/31 38/62/31
f 38/62/31 36/112/31 30/113/31
f 36/112/31 34/114/31 30/113/31
f 34/114/31 32/115/31 30/113/31
f 30/113/31 28/116/31 26/117/31
f 26/117/31 24/118/31 22/63/31
f 22/63/31 20/119/31 14/120/31
f 20/119/31 18/121/31 14/120/31
f 18/121/31 16/122/31 14/120/31
f 14/120/31 12/123/31 10/124/31
f 10/124/31 8/125/31 6/64/31
f 62/100/31 58/102/31 6/64/31
f 58/102/31 54/104/31 6/64/31
f 46/108/31 42/110/31 54/104/31
f 42/110/31 38/62/31 54/104/31
f 30/113/31 26/117/31 38/62/31
f 26/117/31 22/63/31 38/62/31
f 14/120/31 10/124/31 22/63/31
f 10/124/31 6/64/31 22/63/31
f 6/64/31 54/104/31 38/62/31
f 62/65/32 64/67/32 63/66/32
f 64/67/33 2/126/33 1/68/33
f 63/71/34 1/127/34 3/128/34
f 3/128/34 5/129/34 7/130/34
f 7/130/34 9/131/34 11/132/34
f 11/132/34 13/133/34 15/134/34
f 15/134/34 17/135/34 19/136/34
f 19/136/34 21/137/34 23/138/34
f 23/138/34 25/139/34 27/140/34
f 27/140/34 29/141/34 31/69/34
f 31/69/34 33/142/34 35/143/34
f 35/143/34 37/144/34 39/145/34
f 39/145/34 41/146/34 43/147/34
f 43/147/34 45/148/34 47/70/34
f 47/70/34 49/149/34 51/150/34
f 51/150/34 53/151/34 55/152/34
f 55/152/34 57/153/34 59/154/34
f 59/154/34 61/155/34 63/71/34
f 63/71/34 3/128/34 15/134/34
f 3/128/34 7/130/34 15/134/34
f 7/130/34 11/132/34 15/134/34
f 15/134/34 19/136/34 31/69/34
f 19/136/34 23/138/34 31/69/34
f 23/138/34 27/140/34 31/69/34
f 31/69/34 35/143/34 47/70/34
f 35/143/34 39/145/34 47/70/34
f 39/145/34 43/147/34 47/70/34
f 47/70/34 51/150/34 63/71/34
f 51/150/34 55/152/34 63/71/34
f 55/152/34 59/154/34 63/71/34
f 63/71/34 15/134/34 31/69/34
usemtl Madera.001
f 66/72/34 67/73/34 65/74/34
f 68/75/35 71/41/35 67/73/35
f 72/25/31 69/76/31 71/41/31
f 70/77/36 65/42/36 69/76/36
f 71/41/37 65/78/37 67/57/37
f 68/9/38 70/77/38 72/25/38
f 75/72/34 76/73/34 73/74/34
f 78/75/35 82/41/35 76/73/35
f 84/25/31 80/76/31 82/41/31
f 80/76/36 75/26/36 73/42/36
f 82/41/37 73/78/37 76/57/37
f 78/9/38 81/77/38 84/25/38
f 89/9/38 87/77/38 85/25/38
f 87/77/36 92/42/36 88/76/36
f 91/72/34 90/73/34 92/74/34
f 86/41/37 92/78/37 90/57/37
f 85/25/31 87/77/31 110/79/31
f 111/80/31 86/41/31 112/81/31
f 89/75/35 86/41/35 90/73/35
f 93/41/37 96/78/37 95/57/37
f 99/82/35 93/41/35 95/73/35
f 98/83/36 96/42/36 94/76/36
f 108/26/39 104/84/39 103/85/39
f 102/86/40 106/87/40 105/88/40
f 105/89/38 103/85/38 102/86/38
f 101/90/41 99/82/41 106/87/41
f 102/86/31 103/85/31 93/41/31
f 104/84/42 100/91/42 98/83/42
f 96/74/34 100/92/34 107/93/34
f 77/73/37 109/74/37 74/74/37
f 83/41/36 110/94/36 77/73/36
f 79/76/38 112/41/38 83/41/38
f 79/76/35 109/95/35 111/96/35
f 74/78/31 83/57/31 77/57/31
f 114/72/34 115/73/34 113/74/34
f 116/75/35 119/41/35 115/73/35
f 120/25/31 117/76/31 119/41/31
f 118/77/36 113/42/36 117/76/36
f 119/41/37 113/78/37 115/57/37
f 116/9/38 118/77/38 120/25/38
f 66/72/34 68/75/34 67/73/34
f 68/75/35 72/25/35 71/41/35
f 72/25/31 70/77/31 69/76/31
f 70/77/36 66/26/36 65/42/36
f 71/41/37 69/76/37 65/78/37
f 68/9/38 66/156/38 70/77/38
f 75/72/34 78/75/34 76/73/34
f 78/75/35 84/25/35 82/41/35
f 84/25/31 81/77/31 80/76/31
f 80/76/36 81/77/36 75/26/36
f 82/41/37 80/76/37 73/78/37
f 78/9/38 75/156/38 81/77/38
f 89/9/38 91/156/38 87/77/38
f 87/77/36 91/26/36 92/42/36
f 91/72/34 89/75/34 90/73/34
f 86/41/37 88/76/37 92/78/37
f 112/81/31 86/41/31 110/79/31
f 86/41/31 85/25/31 110/79/31
f 87/77/31 88/76/31 109/157/31
f 88/76/31 111/80/31 109/157/31
f 87/77/31 109/157/31 110/79/31
f 111/80/31 88/76/31 86/41/31
f 89/75/35 85/25/35 86/41/35
f 93/41/37 94/76/37 96/78/37
f 99/82/35 97/158/35 93/41/35
f 98/83/36 100/91/36 96/42/36
f 108/26/39 107/159/39 104/84/39
f 102/86/40 101/90/40 106/87/40
f 105/89/38 108/160/38 103/85/38
f 101/90/41 97/158/41 99/82/41
f 103/85/31 104/84/31 94/76/31
f 104/84/31 98/83/31 94/76/31
f 94/76/31 93/41/31 103/85/31
f 93/41/31 97/158/31 101/90/31
f 101/90/31 102/86/31 93/41/31
f 104/84/42 107/159/42 100/91/42
f 107/93/34 108/161/34 96/74/34
f 108/161/34 105/88/34 96/74/34
f 105/88/34 106/87/34 95/73/34
f 106/87/34 99/82/34 95/73/34
f 95/73/34 96/74/34 105/88/34
f 77/73/37 110/73/37 109/74/37
f 83/41/36 112/162/36 110/94/36
f 79/76/38 111/76/38 112/41/38
f 79/76/35 74/42/35 109/95/35
f 74/78/31 79/78/31 83/57/31
f 114/72/34 116/75/34 115/73/34
f 116/75/35 120/25/35 119/41/35
f 120/25/31 118/77/31 117/76/31
f 118/77/36 114/26/36 113/42/36
f 119/41/37 117/76/37 113/78/37
f 116/9/38 114/156/38 118/77/38
f 145/57/37 148/41/37 147/76/37 146/78/37
f 150/163/43 151/164/43 152/165/43 149/166/43
f 149/166/44 152/165/44 154/167/44 153/9/44
f 153/168/45 154/167/45 156/169/45 155/170/45
f 155/170/46 156/169/46 158/171/46 157/172/46
f 160/173/47 161/174/47 162/175/47 159/176/47
f 159/176/48 162/175/48 164/156/48 163/177/48
f 163/177/49 164/26/49 166/178/49 165/179/49
f 165/179/50 166/178/50 168/180/50 167/181/50
f 147/76/36 167/181/36 168/180/36 146/42/36
f 151/164/38 150/163/38 161/174/38 160/173/38
f 145/73/35 157/172/35 158/171/35 148/41/35
f 121/182/34 122/183/34 145/73/34 146/74/34
f 124/184/31 123/185/31 147/76/31 148/41/31
f 132/186/34 130/187/34 150/188/34 149/189/34
f 141/190/31 144/191/31 152/165/31 151/164/31
f 133/192/34 132/186/34 149/189/34 153/168/34
f 144/191/31 143/193/31 154/167/31 152/165/31
f 134/194/34 133/192/34 153/168/34 155/170/34
f 143/193/31 142/195/31 156/169/31 154/167/31
f 131/196/34 134/194/34 155/170/34 157/172/34
f 142/195/31 140/197/31 158/171/31 156/169/31
f 137/198/31 135/199/31 160/173/31 159/176/31
f 126/200/34 129/201/34 162/202/34 161/203/34
f 138/204/31 137/198/31 159/176/31 163/177/31
f 129/201/34 128/205/34 164/206/34 162/202/34
f 139/207/31 138/204/31 163/177/31 165/179/31
f 128/205/34 127/208/34 166/209/34 164/206/34
f 136/210/31 139/207/31 165/179/31 167/181/31
f 127/208/34 125/211/34 168/212/34 166/209/34
f 123/185/31 136/210/31 167/181/31 147/76/31
f 125/211/34 121/182/34 146/74/34 168/212/34
f 130/187/34 126/200/34 161/203/34 150/188/34
f 122/183/34 131/196/34 157/172/34 145/73/34
f 135/199/31 141/190/31 151/164/31 160/173/31
f 140/197/31 124/184/31 148/41/31 158/171/31
f 169/3/51 170/1/51 172/18/51 171/17/51
f 171/17/52 172/18/52 174/34/52 173/33/52
f 172/213/38 170/214/38 176/215/38 174/216/38
f 173/33/53 174/34/53 176/50/53 175/49/53
f 175/49/54 176/50/54 170/126/54 169/68/54
f 169/127/37 171/135/37 173/142/37 175/149/37
