# Blender 4.5.3 LTS
# www.blender.org
mtllib sala.mtl
o Cube
v 8.352031 8.769061 -16.390192
v 8.352031 -8.769061 -16.390192
v 8.352031 8.769061 16.390192
v 8.352031 -8.769061 16.390192
v -8.352031 8.769061 -16.390192
v -8.352031 -8.769061 -16.390192
v -8.352031 8.769061 16.390192
v -8.352031 -8.769061 16.390192
vn -0.0000 1.0000 -0.0000
vn -0.0000 -0.0000 1.0000
vn -1.0000 -0.0000 -0.0000
vn -0.0000 -1.0000 -0.0000
vn 1.0000 -0.0000 -0.0000
vn -0.0000 -0.0000 -1.0000
vt 0.998219 0.670027
vt 0.664886 0.336694
vt 0.998219 0.336694
vt 0.346949 0.494867
vt 0.676777 0.165038
vt 0.676777 0.494867
vt 0.344747 0.980003
vt 0.634847 0.689904
vt 0.634847 0.980003
vt 0.312365 0.703475
vt 0.041454 0.432563
vt 0.312365 0.432564
vt 0.329892 1.001700
vt 0.663226 0.668367
vt 0.663226 1.001700
vt 0.333333 1.000000
vt 0.666667 0.666667
vt 0.666667 1.000000
vt 0.664886 0.670027
vt 0.346949 0.165038
vt 0.344747 0.689904
vt 0.041454 0.703475
vt 0.329892 0.668367
vt 0.333333 0.666667
s 0
usemtl Material.001
f 5/1/1 3/2/1 1/3/1
f 3/4/2 8/5/2 4/6/2
f 7/7/3 6/8/3 8/9/3
f 2/10/4 8/11/4 6/12/4
f 1/13/5 4/14/5 2/15/5
f 5/16/6 2/17/6 6/18/6
f 5/1/1 7/19/1 3/2/1
f 3/4/2 7/20/2 8/5/2
f 7/7/3 5/21/3 6/8/3
f 2/10/4 4/22/4 8/11/4
f 1/13/5 3/23/5 4/14/5
f 5/16/6 1/24/6 2/17/6
