# Blender 4.5.3 LTS
# www.blender.org
mtllib vidrio2.mtl
o Puerta.002
v -0.358059 -4.233692 -5.654236
v -0.863072 -4.233692 -5.654236
v -0.358059 0.945565 -5.654236
v -0.863072 0.945565 -5.654236
v -6.246336 0.971855 -4.839320
v -6.197873 0.665869 -4.839320
v -6.386983 1.247889 -4.839318
v -6.606044 1.466951 -4.839318
v -6.882078 1.607598 -4.839318
v -10.420492 1.607598 -4.839318
v -10.696527 1.466951 -4.839318
v -10.915588 1.247888 -4.839318
v -11.104698 0.665869 -4.839320
v -11.056234 0.971854 -4.839320
v -11.104698 -1.714163 -4.839324
v -8.586779 -1.714163 -4.839324
v -6.197873 -1.714162 -4.839320
v -10.114508 1.656060 -4.839318
v -8.586779 1.656060 -4.839318
v -7.188062 1.656060 -4.839318
v -6.246336 0.971855 -4.639320
v -6.197873 0.665868 -4.639320
v -6.386983 1.247889 -4.639318
v -6.606044 1.466951 -4.639318
v -6.882078 1.607597 -4.639318
v -11.056234 0.971854 -4.639320
v -11.104698 0.665868 -4.639320
v -11.104698 -1.714163 -4.639324
v -8.586779 -1.714163 -4.639324
v -6.197873 -1.714162 -4.639320
v -10.915588 1.247888 -4.639318
v -10.696527 1.466951 -4.639318
v -10.420492 1.607597 -4.639318
v -10.114508 1.656060 -4.639318
v -8.586779 1.656060 -4.639318
v -7.188062 1.656060 -4.639318
vn -0.0000 -0.0000 -1.0000
vn 0.7094 -0.0559 0.7025
vn -0.0000 0.7149 0.6992
vn -0.0000 -0.7149 0.6992
vn -0.4344 -0.5996 -0.6721
vn -0.5930 -0.4320 -0.6795
vn -0.0574 -0.7301 -0.6810
vn 0.2299 -0.7097 0.6660
vn 0.0574 -0.7301 -0.6810
vn 0.2299 -0.7097 -0.6660
vn 0.5603 0.5922 -0.5792
vn 0.5603 0.5922 0.5792
vn 0.0574 -0.7301 0.6810
vn -0.0000 0.7149 -0.6992
vn -0.0574 -0.7301 0.6810
vn -0.0000 -0.7149 -0.6992
vn -0.5603 0.5922 0.5792
vn -0.5603 0.5922 -0.5792
vn -0.7094 -0.0559 0.7025
vn -0.6925 -0.2256 -0.6852
vn -0.6925 -0.2256 0.6852
vn -0.2299 -0.7097 0.6660
vn -0.7094 -0.0559 -0.7025
vn -0.5930 -0.4320 0.6795
vn 0.5930 -0.4320 0.6795
vn 0.6925 -0.2256 -0.6852
vn 0.6925 -0.2256 0.6852
vn -0.4344 -0.5996 0.6721
vn 0.4344 -0.5996 -0.6721
vn 0.5930 -0.4320 -0.6795
vn -0.2299 -0.7097 -0.6660
vn 0.4344 -0.5996 0.6721
vn 0.7094 -0.0559 -0.7025
vt 0.179688 0.996094
vt 0.007812 0.003906
vt 0.179688 0.003906
vt 0.847656 0.632812
vt 0.847656 0.003906
vt 0.847656 0.996094
vt 0.056112 0.083184
vt 0.121111 0.038540
vt 0.000000 0.201798
vt 0.847656 0.773438
vt 0.847656 0.812500
vt 0.847656 0.312500
vt 0.847656 0.671875
vt 0.847656 0.703125
vt 0.847656 0.734375
vt 0.007812 0.996094
vt 0.203015 0.009877
vt 0.293806 0.000000
vt 1.000000 0.000000
vt 1.000000 0.486854
vt 1.000000 1.000000
vt 0.293806 1.000000
vt 0.000000 0.486854
vt 0.203015 0.990123
vt 0.000000 0.798201
vt 0.121111 0.961460
vt 0.056112 0.916816
vt 0.014380 0.860560
vt 0.014380 0.139439
s 1
usemtl Vidrio
f 4/1/1 1/2/1 2/3/1
f 13/4/2 16/5/3 19/6/4
f 24/7/5 23/8/6 36/9/7
f 10/10/8 34/11/9 33/10/10
f 13/4/2 28/12/11 15/12/12
f 19/6/4 34/11/9 18/11/13
f 15/12/12 29/5/14 16/5/3
f 20/11/15 35/6/16 19/6/4
f 17/12/17 29/5/14 30/12/18
f 6/4/19 21/13/20 5/13/21
f 9/10/22 36/11/7 20/11/15
f 17/12/17 22/4/23 6/4/19
f 7/14/24 21/13/20 23/14/6
f 12/14/25 26/13/26 14/13/27
f 7/14/24 24/15/5 8/15/28
f 12/14/25 32/15/29 31/14/30
f 8/15/28 25/10/31 9/10/22
f 11/15/32 33/10/10 32/15/29
f 13/4/2 26/13/26 27/4/33
f 4/1/1 3/16/1 1/2/1
f 17/12/17 6/4/19 16/5/3
f 6/4/19 5/13/21 20/11/15
f 16/5/3 6/4/19 19/6/4
f 5/13/21 7/14/24 20/11/15
f 7/14/24 8/15/28 20/11/15
f 8/15/28 9/10/22 20/11/15
f 19/6/4 18/11/13 13/4/2
f 18/11/13 10/10/8 11/15/32
f 14/13/27 18/11/13 12/14/25
f 20/11/15 19/6/4 6/4/19
f 15/12/12 16/5/3 13/4/2
f 14/13/27 13/4/2 18/11/13
f 11/15/32 12/14/25 18/11/13
f 21/17/20 22/18/23 36/9/7
f 22/18/23 30/19/18 29/20/14
f 29/20/14 28/21/11 27/22/33
f 22/18/23 35/23/16 36/9/7
f 27/22/33 26/24/26 34/25/9
f 29/20/14 27/22/33 35/23/16
f 26/24/26 31/26/30 34/25/9
f 31/26/30 32/27/29 34/25/9
f 32/27/29 33/28/10 34/25/9
f 36/9/7 25/29/31 24/7/5
f 21/17/20 36/9/7 23/8/6
f 34/25/9 35/23/16 27/22/33
f 22/18/23 29/20/14 35/23/16
f 10/10/8 18/11/13 34/11/9
f 13/4/2 27/4/33 28/12/11
f 19/6/4 35/6/16 34/11/9
f 15/12/12 28/12/11 29/5/14
f 20/11/15 36/11/7 35/6/16
f 17/12/17 16/5/3 29/5/14
f 6/4/19 22/4/23 21/13/20
f 9/10/22 25/10/31 36/11/7
f 17/12/17 30/12/18 22/4/23
f 7/14/24 5/13/21 21/13/20
f 12/14/25 31/14/30 26/13/26
f 7/14/24 23/14/6 24/15/5
f 12/14/25 11/15/32 32/15/29
f 8/15/28 24/15/5 25/10/31
f 11/15/32 10/10/8 33/10/10
f 13/4/2 14/13/27 26/13/26
