# Blender 4.5.3 LTS
# www.blender.org
mtllib Dado3.mtl
o Cube
v 1.000000 1.000000 -1.000000
v 1.000000 -1.000000 -1.000000
v 1.000000 1.000000 1.000000
v 1.000000 -1.000000 1.000000
v -1.000000 1.000000 -1.000000
v -1.000000 -1.000000 -1.000000
v -1.000000 1.000000 1.000000
v -1.000000 -1.000000 1.000000
vn -0.0000 1.0000 -0.0000
vn -0.0000 -0.0000 1.0000
vn -1.0000 -0.0000 -0.0000
vn -0.0000 -1.0000 -0.0000
vn 1.0000 -0.0000 -0.0000
vn -0.0000 -0.0000 -1.0000
vt 0.225352 0.229443
vt 0.026161 0.030252
vt 0.225352 0.030252
vt 0.277646 0.225380
vt 0.475698 0.027328
vt 0.475698 0.225380
vt 0.513717 0.240225
vt 0.726289 0.027653
vt 0.726289 0.240225
vt 0.467390 0.471481
vt 0.281695 0.285786
vt 0.467390 0.285786
vt 0.275555 0.729900
vt 0.472334 0.533120
vt 0.472334 0.729900
vt 0.261569 0.992812
vt 0.500993 0.753388
vt 0.500993 0.992812
vt 0.026161 0.229443
vt 0.277646 0.027328
vt 0.513717 0.027653
vt 0.281695 0.471481
vt 0.275555 0.533120
vt 0.261569 0.753388
s 0
usemtl Material.001
f 5/1/1 3/2/1 1/3/1
f 3/4/2 8/5/2 4/6/2
f 7/7/3 6/8/3 8/9/3
f 2/10/4 8/11/4 6/12/4
f 1/13/5 4/14/5 2/15/5
f 5/16/6 2/17/6 6/18/6
f 5/1/1 7/19/1 3/2/1
f 3/4/2 7/20/2 8/5/2
f 7/7/3 5/21/3 6/8/3
f 2/10/4 4/22/4 8/11/4
f 1/13/5 3/23/5 4/14/5
f 5/16/6 1/24/6 2/17/6
