# Blender 4.5.3 LTS
# www.blender.org
mtllib minutero.mtl
o Cylinder.002
v 0.453203 2.410016 -0.011101
v 0.468359 2.410016 -0.011101
v 0.453203 2.309072 -0.056204
v 0.468359 2.309072 -0.056204
v 0.453203 2.309072 0.034002
v 0.468359 2.309072 0.034002
v 0.451249 2.181212 0.003113
v 0.459127 2.181212 0.003113
v 0.451249 2.351118 0.003113
v 0.459127 2.351118 0.003113
v 0.451249 2.181212 -0.020339
v 0.459127 2.181212 -0.020339
v 0.451249 2.351118 -0.020339
v 0.459127 2.351118 -0.020339
vn -0.0000 0.4079 -0.9130
vn -0.0000 -1.0000 -0.0000
vn 1.0000 -0.0000 -0.0000
vn -0.0000 0.4079 0.9130
vn -1.0000 -0.0000 -0.0000
vn -0.0000 -0.0000 1.0000
vn -0.0000 1.0000 -0.0000
vn -0.0000 -0.0000 -1.0000
vt 1.000000 0.500000
vt 1.000000 1.000000
vt 0.666667 1.000000
vt 0.666667 0.500000
vt 0.333333 1.000000
vt 0.333333 0.500000
vt 0.457846 0.130000
vt 0.250000 0.490000
vt 0.042154 0.130000
vt -0.000000 1.000000
vt -0.000000 0.500000
vt 0.750000 0.490000
vt 0.957846 0.130000
vt 0.542154 0.130000
vt 0.375000 0.000000
vt 0.625000 0.000000
vt 0.625000 0.250000
vt 0.375000 0.250000
vt 0.625000 0.500000
vt 0.375000 0.500000
vt 0.625000 0.750000
vt 0.375000 0.750000
vt 0.625000 1.000000
vt 0.375000 1.000000
vt 0.125000 0.500000
vt 0.125000 0.750000
vt 0.875000 0.500000
vt 0.875000 0.750000
s 0
usemtl Material.003
f 1/1/1 2/2/1 4/3/1 3/4/1
f 3/4/2 4/3/2 6/5/2 5/6/2
f 4/7/3 2/8/3 6/9/3
f 5/6/4 6/5/4 2/10/4 1/11/4
f 1/12/5 3/13/5 5/14/5
f 7/15/6 8/16/6 10/17/6 9/18/6
f 9/18/7 10/17/7 14/19/7 13/20/7
f 13/20/8 14/19/8 12/21/8 11/22/8
f 11/22/2 12/21/2 8/23/2 7/24/2
f 9/25/5 13/20/5 11/22/5 7/26/5
f 14/19/3 10/27/3 8/28/3 12/21/3
