# Blender 4.5.3 LTS
# www.blender.org
mtllib Piramide.mtl
o Cone
v -11.487319 0.100000 -15.403172
v 9.725884 0.100000 -15.403172
v 9.725884 0.100000 5.810031
v -11.487319 0.100000 5.810031
v -0.880717 15.100000 -4.796571
v -10.574298 0.537163 -15.291261
v 8.812862 0.537163 -15.291262
v 8.812862 0.537163 5.698120
v -11.375408 0.537163 4.897009
v -0.880717 14.426332 -5.597681
v -11.375408 0.537163 -14.490150
v 9.613974 0.537163 -14.490150
v -1.681828 14.426332 -4.796571
v -11.628740 0.174181 -15.544594
v -0.880717 14.426332 -3.995460
v -10.574297 0.537163 5.698120
v -0.079607 14.426332 -4.796571
v 9.613973 0.537163 4.897010
v -11.628740 0.174181 5.951452
v -0.880717 15.574181 -4.796571
v 9.867306 0.174181 -15.544594
v 9.867306 0.174181 5.951452
vn -0.0000 0.5774 -0.8165
vn 0.8165 0.5774 -0.0000
vn -0.0000 -1.0000 -0.0000
vn -0.0000 0.5774 0.8165
vn -0.8165 0.5774 -0.0000
vn -0.0000 0.5723 -0.8200
vn -0.8200 0.5723 -0.0000
vn -0.0000 0.5723 0.8200
vn 0.8200 0.5723 -0.0000
vt -9.500000 2.801997
vt -4.500000 -3.864671
vt 0.500000 2.801996
vt 0.500000 10.500000
vt 5.499999 3.833333
vt 10.500000 10.499999
vt -9.499999 10.500000
vt 0.500000 3.833333
vt 5.499999 -2.833335
vt 10.500000 3.833331
vt 0.500000 -2.833333
vt 5.499999 -9.500000
vt 10.500000 -2.833334
vt 0.990000 0.250000
vt 0.510000 0.250000
vt 0.750000 0.490000
vt 0.475399 0.258944
vt 0.250000 0.490000
vt 0.258944 0.475399
vt 0.258944 0.258944
vt 0.250000 0.250000
vt 0.490000 0.250000
vt 0.241056 0.258944
vt 0.241056 0.475399
vt 0.010000 0.250000
vt 0.024601 0.258944
vt 0.241056 0.241056
vt 0.250000 0.010000
vt 0.024601 0.241056
vt 0.241056 0.024601
vt 0.258944 0.241056
vt 0.475399 0.241056
vt 0.258944 0.024601
vt -9.500000 2.801996
vt 0.750000 0.010000
s 0
usemtl VentanasT.001
f 1/1/1 5/2/1 2/3/1
f 2/4/2 5/5/2 3/6/2
f 2/7/3 4/3/3 1/4/3
f 3/8/4 5/9/4 4/10/4
f 4/11/5 5/12/5 1/13/5
f 2/7/3 3/34/3 4/3/3
usemtl Roof
f 21/14/3 19/15/3 14/16/3
f 7/17/6 14/18/6 6/19/6
f 10/20/6 14/18/6 20/21/6
f 10/20/6 21/22/6 7/17/6
f 13/23/7 14/18/7 11/24/7
f 13/23/7 19/25/7 20/21/7
f 11/24/7 19/25/7 9/26/7
f 15/27/8 22/28/8 20/21/8
f 16/29/8 22/28/8 8/30/8
f 15/27/8 19/25/8 16/29/8
f 17/31/9 21/22/9 20/21/9
f 12/32/9 22/28/9 21/22/9
f 17/31/9 22/28/9 18/33/9
f 21/14/3 22/35/3 19/15/3
f 7/17/6 21/22/6 14/18/6
f 10/20/6 6/19/6 14/18/6
f 10/20/6 20/21/6 21/22/6
f 13/23/7 20/21/7 14/18/7
f 13/23/7 9/26/7 19/25/7
f 11/24/7 14/18/7 19/25/7
f 15/27/8 8/30/8 22/28/8
f 16/29/8 19/25/8 22/28/8
f 15/27/8 20/21/8 19/25/8
f 17/31/9 12/32/9 21/22/9
f 12/32/9 18/33/9 22/28/9
f 17/31/9 20/21/9 22/28/9
