# Blender 4.5.3 LTS
# www.blender.org
mtllib room.mtl
o Cube.003
v 11.303617 -0.054647 -11.646641
v -0.398739 -0.049980 -11.646641
v 11.303617 -0.054647 11.737556
v -0.398739 -0.049980 11.737556
v 30.348145 0.167598 -11.646641
v -0.665023 0.172265 -11.646641
v 30.348145 0.167598 11.737556
v -0.665023 0.172265 11.737556
v -0.353145 11.682629 -11.692099
v -0.353145 -0.019727 -11.692099
v -0.353145 11.682629 11.692099
v -0.353145 -0.019727 11.692099
v -0.575390 11.682629 -11.692099
v -0.575390 -0.019727 -11.692099
v -0.575390 11.682629 11.692099
v -0.575390 -0.019727 11.692099
v -0.584648 11.745892 -11.932864
v -0.584648 0.043536 -11.932864
v 22.796131 11.745892 -11.533039
v 22.796131 0.043536 -11.533039
v -0.588448 11.745892 -11.710651
v -0.588447 0.043536 -11.710651
v 22.792332 11.745892 -11.310826
v 22.792332 0.043536 -11.310826
v -0.575940 11.672222 11.455534
v -0.573930 -0.026395 11.751289
v 22.807018 11.682323 11.696058
v 22.809029 -0.016295 11.991814
v -0.578228 11.677838 11.677696
v -0.576218 -0.020779 11.973452
v 22.804729 11.687940 11.918221
v 22.806740 -0.010678 12.213976
v 11.288148 11.642168 -11.752913
v -0.414207 11.646835 -11.752913
v 11.288148 11.642168 11.631284
v -0.414207 11.646835 11.631284
v 30.332676 11.864413 -11.752913
v -0.680491 11.869081 -11.752913
v 30.332676 11.864413 11.631284
v -0.680491 11.869081 11.631284
vn 0.0117 -0.9999 -0.0000
vn -0.0000 -0.0000 1.0000
vn 0.0002 1.0000 -0.0000
vn -0.6408 -0.7677 -0.0000
vn -0.0004 -1.0000 -0.0000
vn -0.0000 -0.0000 -1.0000
vn -0.0000 1.0000 -0.0000
vn -1.0000 -0.0000 -0.0000
vn -0.0000 -1.0000 -0.0000
vn 1.0000 -0.0000 -0.0000
vn 0.9999 -0.0000 0.0171
vn -0.0171 -0.0000 0.9999
vn 0.0171 -0.0000 -0.9999
vn -0.9999 -0.0000 -0.0171
vn -0.0002 0.9997 -0.0253
vn 0.9999 0.0004 0.0103
vn -0.0103 0.0253 0.9996
vn 0.0002 -0.9997 0.0253
vn 0.0103 -0.0253 -0.9996
vn -0.9999 -0.0004 -0.0103
vt 0.875000 0.500000
vt 0.625000 0.750000
vt 0.625000 0.500000
vt 0.375000 1.000000
vt 0.375000 0.750000
vt 0.239431 0.640389
vt 0.513206 1.003482
vt 0.239431 1.003482
vt 0.375000 0.500000
vt 0.125000 0.750000
vt 0.125000 0.500000
vt 0.946727 0.502142
vt 0.950372 0.308354
vt 0.950325 0.497830
vt 0.625000 0.000000
vt 0.375000 0.250000
vt 0.375000 0.000000
vt 0.756947 0.993504
vt 1.001807 0.504233
vt 1.001807 0.993504
vt 0.950621 0.691628
vt 0.947023 0.881105
vt 0.947023 0.691629
vt 0.875000 0.750000
vt 0.954220 0.691629
vt 0.950621 0.502150
vt 0.954220 0.502150
vt 0.518796 0.524989
vt 0.752733 0.992435
vt 0.518796 0.992435
vt 0.757251 0.378611
vt 0.946727 -0.000000
vt 0.946727 0.378600
vt 0.950621 0.502150
vt 0.947023 0.691629
vt 0.947023 0.502150
vt 0.532847 0.982476
vt 0.722287 0.603873
vt 0.722287 0.982494
vt 0.625000 0.250000
vt -0.007999 0.764088
vt 0.238988 0.965249
vt -0.007999 0.965249
vt 0.954017 0.308348
vt 0.957662 0.502131
vt 0.954064 0.497820
vt 0.378625 0.000000
vt 0.757251 0.502150
vt 0.378625 0.502150
vt -0.011113 0.815655
vt 0.255225 0.948938
vt -0.011113 0.948938
vt 0.950372 0.502142
vt 0.954017 0.308354
vt 0.953970 0.497830
vt 0.625000 1.000000
vt 0.513206 0.640389
vt 0.946727 -0.000000
vt 0.756947 0.504233
vt 0.950621 0.881105
vt 0.950621 0.691629
vt 0.752733 0.524989
vt 0.757251 0.000011
vt 0.950621 0.691629
vt 0.532847 0.603855
vt 0.238988 0.764088
vt 0.957662 -0.000000
vt 0.757251 0.000000
vt 0.255225 0.815655
vt 0.950372 -0.000000
s 0
usemtl Material.002
f 5/1/1 3/2/1 1/3/1
f 3/2/2 8/4/2 4/5/2
f 7/6/3 6/7/3 8/8/3
f 2/9/4 8/10/4 6/11/4
f 1/3/5 4/5/5 2/9/5
f 6/12/6 1/13/6 2/14/6
f 13/1/7 11/2/7 9/3/7
f 11/2/2 16/4/2 12/5/2
f 15/15/8 14/16/8 16/17/8
f 10/9/9 16/10/9 14/11/9
f 9/18/10 12/19/10 10/20/10
f 14/21/6 9/22/6 10/23/6
f 17/3/7 23/24/7 19/2/7
f 19/25/11 24/26/11 20/27/11
f 24/28/12 21/29/12 22/30/12
f 18/9/9 24/10/9 22/11/9
f 17/31/13 20/32/13 18/33/13
f 22/16/14 17/3/14 18/9/14
f 29/1/15 27/2/15 25/3/15
f 28/34/16 31/35/16 32/36/16
f 31/15/17 30/16/17 32/17/17
f 26/9/18 32/10/18 30/11/18
f 25/37/19 28/38/19 26/39/19
f 29/40/20 26/9/20 30/16/20
f 37/41/1 35/42/1 33/43/1
f 35/44/2 40/45/2 36/46/2
f 39/47/3 38/48/3 40/49/3
f 34/9/4 40/10/4 38/11/4
f 33/50/5 36/51/5 34/52/5
f 38/53/6 33/54/6 34/55/6
f 5/1/1 7/24/1 3/2/1
f 3/2/2 7/56/2 8/4/2
f 7/6/3 5/57/3 6/7/3
f 2/9/4 4/5/4 8/10/4
f 1/3/5 3/2/5 4/5/5
f 6/12/6 5/58/6 1/13/6
f 13/1/7 15/24/7 11/2/7
f 11/2/2 15/56/2 16/4/2
f 15/15/8 13/40/8 14/16/8
f 10/9/9 12/5/9 16/10/9
f 9/18/10 11/59/10 12/19/10
f 14/21/6 13/60/6 9/22/6
f 17/3/7 21/1/7 23/24/7
f 19/25/11 23/61/11 24/26/11
f 24/28/12 23/62/12 21/29/12
f 18/9/9 20/5/9 24/10/9
f 17/31/13 19/63/13 20/32/13
f 22/16/14 21/40/14 17/3/14
f 29/1/15 31/24/15 27/2/15
f 28/34/16 27/64/16 31/35/16
f 31/15/17 29/40/17 30/16/17
f 26/9/18 28/5/18 32/10/18
f 25/37/19 27/65/19 28/38/19
f 29/40/20 25/3/20 26/9/20
f 37/41/1 39/66/1 35/42/1
f 35/44/2 39/67/2 40/45/2
f 39/47/3 37/68/3 38/48/3
f 34/9/4 36/5/4 40/10/4
f 33/50/5 35/69/5 36/51/5
f 38/53/6 37/70/6 33/54/6
