# Blender 4.5.3 LTS
# www.blender.org
mtllib AM1.mtl
o Cube.026
v -32.520515 0.547666 33.413616
v -32.520515 1.447501 33.413616
v -33.020515 0.547666 33.413616
v -33.020515 1.447501 33.413616
v -32.520515 0.547666 32.761646
v -32.520515 1.447501 32.761646
v -33.020515 0.547666 32.761646
v -33.020515 1.447501 32.761646
v -33.020515 1.447501 33.413616
v -33.020515 1.447501 32.761646
v -33.020515 1.617517 33.413616
v -33.020515 1.617517 32.761646
v -32.571785 1.465628 33.346500
v -32.950134 1.599390 33.346500
v -32.950134 1.599390 32.828762
v -32.571785 1.465628 32.828762
v -32.520515 1.447501 32.761646
v -33.001408 1.617517 32.761646
v -33.001408 1.617517 33.413616
v -32.520515 1.447501 33.413616
v -29.565828 0.547666 38.130264
v -29.565828 1.447501 38.130264
v -29.565828 0.547666 38.630264
v -29.565828 1.447501 38.630264
v -30.217798 0.547666 38.130264
v -30.217798 1.447501 38.130264
v -30.217798 0.547666 38.630264
v -30.217798 1.447501 38.630264
v -29.565828 1.447501 38.630264
v -30.217798 1.447501 38.630264
v -29.565828 1.617517 38.630264
v -30.217798 1.617517 38.630264
v -29.632946 1.465628 38.181538
v -29.632946 1.599390 38.559883
v -30.150682 1.599390 38.559883
v -30.150682 1.465628 38.181538
v -30.217798 1.447501 38.130264
v -30.217798 1.617517 38.611156
v -29.565828 1.617517 38.611156
v -29.565828 1.447501 38.130264
v -9.394499 0.547666 33.071415
v -9.394499 1.447501 33.071415
v -8.894499 0.547666 33.071415
v -8.894499 1.447501 33.071415
v -9.394499 0.547666 33.723385
v -9.394499 1.447501 33.723385
v -8.894499 0.547666 33.723385
v -8.894499 1.447501 33.723385
v -8.894499 1.447501 33.071415
v -8.894499 1.447501 33.723385
v -8.894499 1.617517 33.071415
v -8.894499 1.617517 33.723385
v -9.343225 1.465628 33.138531
v -8.964878 1.599390 33.138531
v -8.964878 1.599390 33.656269
v -9.343225 1.465628 33.656269
v -9.394499 1.447501 33.723385
v -8.913607 1.617517 33.723385
v -8.913607 1.617517 33.071415
v -9.394499 1.447501 33.071415
v -9.394501 0.547666 35.803082
v -9.394501 1.447501 35.803082
v -8.894501 0.547666 35.803082
v -8.894501 1.447501 35.803082
v -9.394501 0.547666 36.455051
v -9.394501 1.447501 36.455051
v -8.894501 0.547666 36.455051
v -8.894501 1.447501 36.455051
v -8.894501 1.447501 35.803082
v -8.894501 1.447501 36.455051
v -8.894501 1.617517 35.803082
v -8.894501 1.617517 36.455051
v -9.343227 1.465628 35.870197
v -8.964880 1.599390 35.870197
v -8.964880 1.599390 36.387936
v -9.343227 1.465628 36.387936
v -9.394501 1.447501 36.455051
v -8.913609 1.617517 36.455051
v -8.913609 1.617517 35.803082
v -9.394501 1.447501 35.803082
v -12.329239 0.547666 38.130264
v -12.329239 1.447501 38.130264
v -12.329239 0.547666 38.630264
v -12.329239 1.447501 38.630264
v -12.981209 0.547666 38.130260
v -12.981209 1.447501 38.130260
v -12.981209 0.547666 38.630260
v -12.981209 1.447501 38.630260
v -12.329239 1.447501 38.630264
v -12.981209 1.447501 38.630260
v -12.329239 1.617517 38.630264
v -12.981209 1.617517 38.630260
v -12.396357 1.465628 38.181534
v -12.396357 1.599390 38.559883
v -12.914091 1.599390 38.559883
v -12.914091 1.465628 38.181534
v -12.981209 1.447501 38.130260
v -12.981209 1.617517 38.611153
v -12.329239 1.617517 38.611153
v -12.329239 1.447501 38.130264
v -17.989769 0.547666 38.130264
v -17.989769 1.447501 38.130264
v -17.989769 0.547666 38.630264
v -17.989769 1.447501 38.630264
v -18.641739 0.547666 38.130264
v -18.641739 1.447501 38.130264
v -18.641739 0.547666 38.630264
v -18.641739 1.447501 38.630264
v -17.989769 1.447501 38.630264
v -18.641739 1.447501 38.630264
v -17.989769 1.617517 38.630264
v -18.641739 1.617517 38.630264
v -18.056887 1.465628 38.181538
v -18.056887 1.599390 38.559883
v -18.574623 1.599390 38.559883
v -18.574623 1.465628 38.181538
v -18.641739 1.447501 38.130264
v -18.641739 1.617517 38.611156
v -17.989769 1.617517 38.611156
v -17.989769 1.447501 38.130264
v -24.299049 0.547666 38.130264
v -24.299049 1.447501 38.130264
v -24.299049 0.547666 38.630264
v -24.299049 1.447501 38.630264
v -24.951019 0.547666 38.130260
v -24.951019 1.447501 38.130260
v -24.951019 0.547666 38.630260
v -24.951019 1.447501 38.630260
v -24.299049 1.447501 38.630264
v -24.951019 1.447501 38.630260
v -24.299049 1.617517 38.630264
v -24.951019 1.617517 38.630260
v -24.366167 1.465628 38.181534
v -24.366167 1.599390 38.559883
v -24.883904 1.599390 38.559883
v -24.883904 1.465628 38.181534
v -24.951019 1.447501 38.130260
v -24.951019 1.617517 38.611153
v -24.299049 1.617517 38.611153
v -24.299049 1.447501 38.130264
v -32.520515 0.547666 36.092621
v -32.520515 1.447501 36.092621
v -33.020515 0.547666 36.092621
v -33.020515 1.447501 36.092621
v -32.520512 0.547666 35.440651
v -32.520512 1.447501 35.440651
v -33.020512 0.547666 35.440651
v -33.020512 1.447501 35.440651
v -33.020515 1.447501 36.092621
v -33.020512 1.447501 35.440651
v -33.020515 1.617517 36.092621
v -33.020512 1.617517 35.440651
v -32.571785 1.465628 36.025505
v -32.950134 1.599390 36.025505
v -32.950134 1.599390 35.507767
v -32.571785 1.465628 35.507767
v -32.520512 1.447501 35.440651
v -33.001408 1.617517 35.440651
v -33.001408 1.617517 36.092621
v -32.520515 1.447501 36.092621
v -25.958118 0.547666 32.323612
v -25.958118 1.447501 32.323612
v -26.458118 0.547666 32.323612
v -26.458118 1.447501 32.323612
v -25.958118 0.547666 31.671642
v -25.958118 1.447501 31.671642
v -26.458118 0.547666 31.671642
v -26.458118 1.447501 31.671642
v -26.458118 1.447501 32.323612
v -26.458118 1.447501 31.671642
v -26.458118 1.617517 32.323612
v -26.458118 1.617517 31.671642
v -26.009392 1.465628 32.256496
v -26.387739 1.599390 32.256496
v -26.387739 1.599390 31.738760
v -26.009392 1.465628 31.738760
v -25.958118 1.447501 31.671642
v -26.439013 1.617517 31.671642
v -26.439013 1.617517 32.323612
v -25.958118 1.447501 32.323612
v -20.809509 0.547666 33.619507
v -20.809509 1.447501 33.619507
v -20.809511 0.547666 34.119507
v -20.809511 1.447501 34.119507
v -21.461479 0.547666 33.619507
v -21.461479 1.447501 33.619507
v -21.461481 0.547666 34.119507
v -21.461481 1.447501 34.119507
v -20.809511 1.447501 34.119507
v -21.461481 1.447501 34.119507
v -20.809511 1.617517 34.119507
v -21.461481 1.617517 34.119507
v -20.876627 1.465628 33.670780
v -20.876627 1.599390 34.049126
v -21.394363 1.599390 34.049126
v -21.394363 1.465628 33.670776
v -21.461479 1.447501 33.619507
v -21.461481 1.617517 34.100399
v -20.809511 1.617517 34.100399
v -20.809509 1.447501 33.619507
v -14.431217 0.547666 31.671642
v -14.431217 1.447501 31.671642
v -13.931217 0.547666 31.671644
v -13.931217 1.447501 31.671644
v -14.431217 0.547666 32.323612
v -14.431217 1.447501 32.323612
v -13.931217 0.547666 32.323612
v -13.931217 1.447501 32.323612
v -13.931217 1.447501 31.671644
v -13.931217 1.447501 32.323612
v -13.931217 1.617517 31.671644
v -13.931217 1.617517 32.323612
v -14.379944 1.465628 31.738760
v -14.001596 1.599390 31.738760
v -14.001596 1.599390 32.256496
v -14.379944 1.465628 32.256496
v -14.431217 1.447501 32.323612
v -13.950325 1.617517 32.323612
v -13.950325 1.617517 31.671644
v -14.431217 1.447501 31.671642
vn -0.0000 -0.0000 1.0000
vn -1.0000 -0.0000 -0.0000
vn -0.0000 -0.0000 -1.0000
vn 1.0000 -0.0000 -0.0000
vn -0.0000 -1.0000 -0.0000
vn -0.0000 1.0000 -0.0000
vn 0.3333 0.9428 -0.0000
vn -0.0000 0.9428 -0.3333
vn -0.3333 0.9428 -0.0000
vt 0.722829 0.086316
vt 1.000000 0.543158
vt 0.722829 0.543158
vt 0.000000 0.086316
vt 0.361414 0.543158
vt 0.000000 0.543158
vt 0.638586 1.000000
vt 0.361414 1.000000
vt 0.361414 0.000000
vt 0.722829 0.456842
vt 0.361414 0.456842
vt 1.000000 0.874160
vt 0.361414 0.000000
vt 0.361414 0.086316
vt 0.292473 0.543158
vt 0.552660 0.470849
vt 0.829035 0.284518
vt 0.829035 0.470849
vt 1.000000 0.086316
vt 0.989408 0.000000
vt 0.000000 0.543158
vt 0.010168 0.874160
vt 0.000000 0.874160
vt 0.372007 0.456842
vt 0.638586 0.543158
vt 0.262374 0.840085
vt 0.040268 0.840085
vt 0.010168 0.543158
vt 0.040268 0.577233
vt 0.262374 0.577233
vt 0.292473 0.874160
vt 0.722829 0.874160
vt 0.498523 0.874418
vt 0.741677 0.688087
vt 0.741677 0.874418
vt 0.493712 0.692583
vt 0.939660 0.446666
vt 0.939660 0.692583
vt 0.067886 0.790751
vt 0.311040 0.604420
vt 0.311040 0.790751
vt 0.077729 0.584045
vt 0.320883 0.397714
vt 0.320883 0.584045
vt 0.060504 0.377340
vt 0.303658 0.191008
vt 0.303658 0.377340
vt 0.088803 0.190320
vt 0.381173 0.003989
vt 0.381173 0.190320
vt 0.308579 0.992535
vt 0.065425 0.806204
vt 0.308579 0.806204
vt 0.318581 0.790190
vt 0.529847 0.603859
vt 0.529847 0.790190
vt 0.535259 0.246127
vt 0.827629 0.059796
vt 0.827629 0.246127
vt 0.335633 0.997916
vt 0.546899 0.811585
vt 0.546899 0.997916
vt 0.722829 0.000000
vt 0.000000 0.000000
vt 0.552660 0.284518
vt 1.000000 0.000000
vt 0.361414 0.456842
vt 0.498523 0.688087
vt 0.493712 0.446666
vt 0.067886 0.604420
vt 0.077729 0.397714
vt 0.060504 0.191008
vt 0.088803 0.003989
vt 0.065425 0.992535
vt 0.318581 0.603859
vt 0.535259 0.059796
vt 0.335633 0.811585
s 0
usemtl HormBlanc
f 2/1/1 3/2/1 1/3/1
f 4/4/2 7/5/2 3/6/2
f 8/5/3 5/7/3 7/8/3
f 6/9/4 1/10/4 5/11/4
f 7/12/5 1/3/5 3/2/5
f 4/4/2 12/13/2 8/14/2
f 8/15/6 9/15/6 4/15/6
f 4/19/1 2/1/1 19/20/1
f 11/21/6 18/22/6 12/23/6
f 6/15/6 20/15/6 2/15/6
f 8/5/3 18/24/3 17/25/3
f 16/26/7 18/22/7 15/27/7
f 15/27/7 19/28/7 14/29/7
f 13/30/7 19/28/7 20/15/7
f 13/30/7 17/31/7 16/26/7
f 22/1/4 23/2/4 21/3/4
f 24/4/1 27/5/1 23/6/1
f 28/5/2 25/7/2 27/8/2
f 26/9/3 21/10/3 25/11/3
f 23/2/5 25/32/5 21/3/5
f 24/4/1 32/13/1 28/14/1
f 28/15/6 29/15/6 24/15/6
f 24/19/4 22/1/4 39/20/4
f 31/21/6 38/22/6 32/23/6
f 26/15/6 40/15/6 22/15/6
f 28/5/2 38/24/2 37/25/2
f 35/27/8 37/31/8 38/22/8
f 35/27/8 39/28/8 34/29/8
f 33/30/8 39/28/8 40/15/8
f 33/30/8 37/31/8 36/26/8
f 42/1/3 43/2/3 41/3/3
f 44/4/4 47/5/4 43/6/4
f 48/5/1 45/7/1 47/8/1
f 46/9/2 41/10/2 45/11/2
f 47/12/5 41/3/5 43/2/5
f 44/4/4 52/13/4 48/14/4
f 48/15/6 49/15/6 44/15/6
f 44/19/3 42/1/3 59/20/3
f 51/21/6 58/22/6 52/23/6
f 46/15/6 60/15/6 42/15/6
f 48/5/1 58/24/1 57/25/1
f 56/26/9 58/22/9 55/27/9
f 55/27/9 59/28/9 54/29/9
f 53/30/9 59/28/9 60/15/9
f 53/30/9 57/31/9 56/26/9
f 62/1/3 63/2/3 61/3/3
f 64/4/4 67/5/4 63/6/4
f 68/5/1 65/7/1 67/8/1
f 66/9/2 61/10/2 65/11/2
f 67/12/5 61/3/5 63/2/5
f 64/4/4 72/13/4 68/14/4
f 68/15/6 69/15/6 64/15/6
f 64/19/3 62/1/3 79/20/3
f 71/21/6 78/22/6 72/23/6
f 66/15/6 80/15/6 62/15/6
f 68/5/1 78/24/1 77/25/1
f 76/26/9 78/22/9 75/27/9
f 74/29/9 78/22/9 79/28/9
f 73/30/9 79/28/9 80/15/9
f 76/26/9 80/15/9 77/31/9
f 82/1/4 83/2/4 81/3/4
f 84/4/1 87/5/1 83/6/1
f 88/5/2 85/7/2 87/8/2
f 86/9/3 81/10/3 85/11/3
f 87/12/5 81/3/5 83/2/5
f 84/4/1 92/13/1 88/14/1
f 88/15/6 89/15/6 84/15/6
f 84/19/4 82/1/4 99/20/4
f 91/21/6 98/22/6 92/23/6
f 86/15/6 100/15/6 82/15/6
f 88/5/2 98/24/2 97/25/2
f 96/26/8 98/22/8 95/27/8
f 95/27/8 99/28/8 94/29/8
f 94/29/8 100/15/8 93/30/8
f 93/30/8 97/31/8 96/26/8
f 102/1/4 103/2/4 101/3/4
f 104/4/1 107/5/1 103/6/1
f 108/5/2 105/7/2 107/8/2
f 106/9/3 101/10/3 105/11/3
f 107/12/5 101/3/5 103/2/5
f 104/4/1 112/13/1 108/14/1
f 108/15/6 109/15/6 104/15/6
f 104/19/4 102/1/4 119/20/4
f 111/21/6 118/22/6 112/23/6
f 106/15/6 120/15/6 102/15/6
f 108/5/2 118/24/2 117/25/2
f 116/26/8 118/22/8 115/27/8
f 115/27/8 119/28/8 114/29/8
f 114/29/8 120/15/8 113/30/8
f 113/30/8 117/31/8 116/26/8
f 122/1/4 123/2/4 121/3/4
f 124/4/1 127/5/1 123/6/1
f 128/5/2 125/7/2 127/8/2
f 126/9/3 121/10/3 125/11/3
f 127/12/5 121/3/5 123/2/5
f 124/4/1 132/13/1 128/14/1
f 128/15/6 129/15/6 124/15/6
f 124/19/4 122/1/4 139/20/4
f 131/21/6 138/22/6 132/23/6
f 126/15/6 140/15/6 122/15/6
f 128/5/2 138/24/2 137/25/2
f 136/26/8 138/22/8 135/27/8
f 135/27/8 139/28/8 134/29/8
f 133/30/8 139/28/8 140/15/8
f 133/30/8 137/31/8 136/26/8
f 142/1/1 143/2/1 141/3/1
f 144/4/2 147/5/2 143/6/2
f 148/5/3 145/7/3 147/8/3
f 146/9/4 141/10/4 145/11/4
f 147/12/5 141/3/5 143/2/5
f 144/4/2 152/13/2 148/14/2
f 148/15/6 149/15/6 144/15/6
f 144/19/1 142/1/1 159/20/1
f 152/23/6 159/28/6 158/22/6
f 146/15/6 160/15/6 142/15/6
f 148/5/3 158/24/3 157/25/3
f 156/26/7 158/22/7 155/27/7
f 154/29/7 158/22/7 159/28/7
f 154/29/7 160/15/7 153/30/7
f 156/26/7 160/15/7 157/31/7
f 162/1/1 163/2/1 161/3/1
f 164/4/2 167/5/2 163/6/2
f 168/5/3 165/7/3 167/8/3
f 166/9/4 161/10/4 165/11/4
f 167/12/5 161/3/5 163/2/5
f 164/4/2 172/13/2 168/14/2
f 168/15/6 169/15/6 164/15/6
f 164/19/1 162/1/1 179/20/1
f 171/21/6 178/22/6 172/23/6
f 166/15/6 180/15/6 162/15/6
f 168/5/3 178/24/3 177/25/3
f 176/26/7 178/22/7 175/27/7
f 175/27/7 179/28/7 174/29/7
f 174/29/7 180/15/7 173/30/7
f 173/30/7 177/31/7 176/26/7
f 182/1/4 183/2/4 181/3/4
f 184/4/1 187/5/1 183/6/1
f 188/5/2 185/7/2 187/8/2
f 186/9/3 181/10/3 185/11/3
f 187/12/5 181/3/5 183/2/5
f 184/4/1 192/13/1 188/14/1
f 188/15/6 189/15/6 184/15/6
f 184/19/4 182/1/4 199/20/4
f 191/21/6 198/22/6 192/23/6
f 186/15/6 200/15/6 182/15/6
f 188/5/2 198/24/2 197/25/2
f 196/26/8 198/22/8 195/27/8
f 195/27/8 199/28/8 194/29/8
f 194/29/8 200/15/8 193/30/8
f 193/30/8 197/31/8 196/26/8
f 202/1/3 203/2/3 201/3/3
f 204/4/4 207/5/4 203/6/4
f 208/5/1 205/7/1 207/8/1
f 206/9/2 201/10/2 205/11/2
f 207/12/5 201/3/5 203/2/5
f 204/4/4 212/13/4 208/14/4
f 208/15/6 209/15/6 204/15/6
f 204/19/3 202/1/3 219/20/3
f 211/21/6 218/22/6 212/23/6
f 206/15/6 220/15/6 202/15/6
f 208/5/1 218/24/1 217/25/1
f 216/26/9 218/22/9 215/27/9
f 215/27/9 219/28/9 214/29/9
f 213/30/9 219/28/9 220/15/9
f 213/30/9 217/31/9 216/26/9
f 2/1/1 4/19/1 3/2/1
f 4/4/2 8/14/2 7/5/2
f 8/5/3 6/25/3 5/7/3
f 6/9/4 2/63/4 1/10/4
f 7/12/5 5/32/5 1/3/5
f 4/4/2 11/64/2 12/13/2
f 8/15/6 10/15/6 9/15/6
f 19/20/1 11/66/1 4/19/1
f 2/1/6 20/1/6 19/20/6
f 11/21/6 19/28/6 18/22/6
f 6/15/6 17/15/6 20/15/6
f 8/5/3 12/67/3 18/24/3
f 17/25/6 6/25/6 8/5/6
f 16/26/7 17/31/7 18/22/7
f 15/27/7 18/22/7 19/28/7
f 13/30/7 14/29/7 19/28/7
f 13/30/7 20/15/7 17/31/7
f 22/1/4 24/19/4 23/2/4
f 24/4/1 28/14/1 27/5/1
f 28/5/2 26/25/2 25/7/2
f 26/9/3 22/63/3 21/10/3
f 23/2/5 27/12/5 25/32/5
f 24/4/1 31/64/1 32/13/1
f 28/15/6 30/15/6 29/15/6
f 39/20/4 31/66/4 24/19/4
f 22/1/6 40/1/6 39/20/6
f 31/21/6 39/28/6 38/22/6
f 26/15/6 37/15/6 40/15/6
f 28/5/2 32/67/2 38/24/2
f 37/25/6 26/25/6 28/5/6
f 35/27/8 36/26/8 37/31/8
f 35/27/8 38/22/8 39/28/8
f 33/30/8 34/29/8 39/28/8
f 33/30/8 40/15/8 37/31/8
f 42/1/3 44/19/3 43/2/3
f 44/4/4 48/14/4 47/5/4
f 48/5/1 46/25/1 45/7/1
f 46/9/2 42/63/2 41/10/2
f 47/12/5 45/32/5 41/3/5
f 44/4/4 51/64/4 52/13/4
f 48/15/6 50/15/6 49/15/6
f 59/20/3 51/66/3 44/19/3
f 42/1/6 60/1/6 59/20/6
f 51/21/6 59/28/6 58/22/6
f 46/15/6 57/15/6 60/15/6
f 48/5/1 52/67/1 58/24/1
f 57/25/6 46/25/6 48/5/6
f 56/26/9 57/31/9 58/22/9
f 55/27/9 58/22/9 59/28/9
f 53/30/9 54/29/9 59/28/9
f 53/30/9 60/15/9 57/31/9
f 62/1/3 64/19/3 63/2/3
f 64/4/4 68/14/4 67/5/4
f 68/5/1 66/25/1 65/7/1
f 66/9/2 62/63/2 61/10/2
f 67/12/5 65/32/5 61/3/5
f 64/4/4 71/64/4 72/13/4
f 68/15/6 70/15/6 69/15/6
f 79/20/3 71/66/3 64/19/3
f 62/1/6 80/1/6 79/20/6
f 71/21/6 79/28/6 78/22/6
f 66/15/6 77/15/6 80/15/6
f 68/5/1 72/67/1 78/24/1
f 77/25/6 66/25/6 68/5/6
f 76/26/9 77/31/9 78/22/9
f 74/29/9 75/27/9 78/22/9
f 73/30/9 74/29/9 79/28/9
f 76/26/9 73/30/9 80/15/9
f 82/1/4 84/19/4 83/2/4
f 84/4/1 88/14/1 87/5/1
f 88/5/2 86/25/2 85/7/2
f 86/9/3 82/63/3 81/10/3
f 87/12/5 85/32/5 81/3/5
f 84/4/1 91/64/1 92/13/1
f 88/15/6 90/15/6 89/15/6
f 99/20/4 91/66/4 84/19/4
f 82/1/6 100/1/6 99/20/6
f 91/21/6 99/28/6 98/22/6
f 86/15/6 97/15/6 100/15/6
f 88/5/2 92/67/2 98/24/2
f 97/25/6 86/25/6 88/5/6
f 96/26/8 97/31/8 98/22/8
f 95/27/8 98/22/8 99/28/8
f 94/29/8 99/28/8 100/15/8
f 93/30/8 100/15/8 97/31/8
f 102/1/4 104/19/4 103/2/4
f 104/4/1 108/14/1 107/5/1
f 108/5/2 106/25/2 105/7/2
f 106/9/3 102/63/3 101/10/3
f 107/12/5 105/32/5 101/3/5
f 104/4/1 111/64/1 112/13/1
f 108/15/6 110/15/6 109/15/6
f 119/20/4 111/66/4 104/19/4
f 102/1/6 120/1/6 119/20/6
f 111/21/6 119/28/6 118/22/6
f 106/15/6 117/15/6 120/15/6
f 108/5/2 112/67/2 118/24/2
f 117/25/6 106/25/6 108/5/6
f 116/26/8 117/31/8 118/22/8
f 115/27/8 118/22/8 119/28/8
f 114/29/8 119/28/8 120/15/8
f 113/30/8 120/15/8 117/31/8
f 122/1/4 124/19/4 123/2/4
f 124/4/1 128/14/1 127/5/1
f 128/5/2 126/25/2 125/7/2
f 126/9/3 122/63/3 121/10/3
f 127/12/5 125/32/5 121/3/5
f 124/4/1 131/64/1 132/13/1
f 128/15/6 130/15/6 129/15/6
f 139/20/4 131/66/4 124/19/4
f 122/1/6 140/1/6 139/20/6
f 131/21/6 139/28/6 138/22/6
f 126/15/6 137/15/6 140/15/6
f 128/5/2 132/67/2 138/24/2
f 137/25/6 126/25/6 128/5/6
f 136/26/8 137/31/8 138/22/8
f 135/27/8 138/22/8 139/28/8
f 133/30/8 134/29/8 139/28/8
f 133/30/8 140/15/8 137/31/8
f 142/1/1 144/19/1 143/2/1
f 144/4/2 148/14/2 147/5/2
f 148/5/3 146/25/3 145/7/3
f 146/9/4 142/63/4 141/10/4
f 147/12/5 145/32/5 141/3/5
f 144/4/2 151/64/2 152/13/2
f 148/15/6 150/15/6 149/15/6
f 159/20/1 151/66/1 144/19/1
f 142/1/6 160/1/6 159/20/6
f 152/23/6 151/21/6 159/28/6
f 146/15/6 157/15/6 160/15/6
f 148/5/3 152/67/3 158/24/3
f 157/25/6 146/25/6 148/5/6
f 156/26/7 157/31/7 158/22/7
f 154/29/7 155/27/7 158/22/7
f 154/29/7 159/28/7 160/15/7
f 156/26/7 153/30/7 160/15/7
f 162/1/1 164/19/1 163/2/1
f 164/4/2 168/14/2 167/5/2
f 168/5/3 166/25/3 165/7/3
f 166/9/4 162/63/4 161/10/4
f 167/12/5 165/32/5 161/3/5
f 164/4/2 171/64/2 172/13/2
f 168/15/6 170/15/6 169/15/6
f 179/20/1 171/66/1 164/19/1
f 162/1/6 180/1/6 179/20/6
f 171/21/6 179/28/6 178/22/6
f 166/15/6 177/15/6 180/15/6
f 168/5/3 172/67/3 178/24/3
f 177/25/6 166/25/6 168/5/6
f 176/26/7 177/31/7 178/22/7
f 175/27/7 178/22/7 179/28/7
f 174/29/7 179/28/7 180/15/7
f 173/30/7 180/15/7 177/31/7
f 182/1/4 184/19/4 183/2/4
f 184/4/1 188/14/1 187/5/1
f 188/5/2 186/25/2 185/7/2
f 186/9/3 182/63/3 181/10/3
f 187/12/5 185/32/5 181/3/5
f 184/4/1 191/64/1 192/13/1
f 188/15/6 190/15/6 189/15/6
f 199/20/4 191/66/4 184/19/4
f 182/1/6 200/1/6 199/20/6
f 191/21/6 199/28/6 198/22/6
f 186/15/6 197/15/6 200/15/6
f 188/5/2 192/67/2 198/24/2
f 197/25/6 186/25/6 188/5/6
f 196/26/8 197/31/8 198/22/8
f 195/27/8 198/22/8 199/28/8
f 194/29/8 199/28/8 200/15/8
f 193/30/8 200/15/8 197/31/8
f 202/1/3 204/19/3 203/2/3
f 204/4/4 208/14/4 207/5/4
f 208/5/1 206/25/1 205/7/1
f 206/9/2 202/63/2 201/10/2
f 207/12/5 205/32/5 201/3/5
f 204/4/4 211/64/4 212/13/4
f 208/15/6 210/15/6 209/15/6
f 219/20/3 211/66/3 204/19/3
f 202/1/6 220/1/6 219/20/6
f 211/21/6 219/28/6 218/22/6
f 206/15/6 217/15/6 220/15/6
f 208/5/1 212/67/1 218/24/1
f 217/25/6 206/25/6 208/5/6
f 216/26/9 217/31/9 218/22/9
f 215/27/9 218/22/9 219/28/9
f 213/30/9 214/29/9 219/28/9
f 213/30/9 220/15/9 217/31/9
usemtl CartelesAM
f 14/16/7 16/17/7 15/18/7
f 34/33/8 36/34/8 35/35/8
f 54/36/9 56/37/9 55/38/9
f 74/39/9 76/40/9 75/41/9
f 94/42/8 96/43/8 95/44/8
f 114/45/8 116/46/8 115/47/8
f 134/48/8 136/49/8 135/50/8
f 155/51/7 153/52/7 156/53/7
f 174/54/7 176/55/7 175/56/7
f 194/57/8 196/58/8 195/59/8
f 214/60/9 216/61/9 215/62/9
f 14/16/7 13/65/7 16/17/7
f 34/33/8 33/68/8 36/34/8
f 54/36/9 53/69/9 56/37/9
f 74/39/9 73/70/9 76/40/9
f 94/42/8 93/71/8 96/43/8
f 114/45/8 113/72/8 116/46/8
f 134/48/8 133/73/8 136/49/8
f 155/51/7 154/74/7 153/52/7
f 174/54/7 173/75/7 176/55/7
f 194/57/8 193/76/8 196/58/8
f 214/60/9 213/77/9 216/61/9
