# Blender 4.5.3 LTS
# www.blender.org
mtllib cont4.mtl
o Cube.029
v -9.394501 0.547666 35.803082
v -8.894501 0.547666 35.803082
v -9.394501 1.447501 35.803082
v -9.394501 0.547666 36.455051
v -8.894501 0.547666 36.455051
v -9.394501 1.447501 36.455051
v -8.894501 1.447501 36.455051
v -9.394501 1.447501 36.455051
v -8.913609 1.617517 36.455051
v -9.394501 1.447501 35.803082
v -9.343227 1.465628 36.387936
v -8.964880 1.599390 36.387936
v -9.343227 1.465628 35.870197
v -8.964880 1.599390 35.870197
v -8.913609 1.617517 35.803082
v -8.894501 1.617517 35.803082
v -8.894501 1.617517 36.455051
v -8.894501 1.447501 35.803082
v -8.894501 1.447501 35.803082
v -8.894501 1.447501 36.455051
vn -0.0000 -1.0000 -0.0000
vn -0.0000 -0.0000 -1.0000
vn -1.0000 -0.0000 -0.0000
vn -0.0000 -0.0000 1.0000
vn -0.0000 1.0000 -0.0000
vn -0.3333 0.9428 -0.0000
vn 1.0000 -0.0000 -0.0000
vt 1.000000 0.874160
vt 0.722829 0.543158
vt 1.000000 0.543158
vt 0.722829 0.086316
vt 1.000000 0.543158
vt 0.361414 0.000000
vt 0.722829 0.456842
vt 0.361414 0.456842
vt 0.361414 0.543158
vt 0.638586 1.000000
vt 0.361414 1.000000
vt 0.372007 0.456842
vt 0.638586 0.543158
vt 0.292473 0.543158
vt 0.262374 0.840085
vt 0.010168 0.874160
vt 0.040268 0.840085
vt 0.292473 0.543158
vt 0.292473 0.874160
vt 0.067886 0.790751
vt 0.311040 0.604420
vt 0.311040 0.790751
vt 0.262374 0.577233
vt 0.010168 0.543158
vt 0.040268 0.577233
vt 0.000000 0.543158
vt 0.000000 0.874160
vt 1.000000 0.086316
vt 0.989408 0.000000
vt 0.000000 0.086316
vt 0.361414 0.000000
vt 0.361414 0.086316
vt 0.000000 0.543158
vt 0.722829 0.874160
vt 0.722829 0.000000
vt 0.361414 0.456842
vt 0.067886 0.604420
vt 1.000000 0.000000
vt 0.000000 0.000000
s 0
usemtl HormBlanc
f 5/1/1 1/2/1 2/3/1
f 3/4/2 2/5/2 1/2/2
f 6/6/3 1/7/3 4/8/3
f 7/9/4 4/10/4 5/11/4
f 7/9/4 9/12/4 8/13/4
f 6/14/5 10/14/5 3/14/5
f 11/15/6 9/16/6 12/17/6
f 11/15/6 10/18/6 8/19/6
f 13/23/6 15/24/6 10/18/6
f 14/25/6 9/16/6 15/24/6
f 16/26/5 9/16/5 17/27/5
f 18/28/2 3/4/2 15/29/2
f 18/30/7 17/31/7 7/32/7
f 18/30/7 5/9/7 2/33/7
f 7/14/5 19/14/5 18/14/5
f 5/1/1 4/34/1 1/2/1
f 3/4/2 18/28/2 2/5/2
f 6/6/3 3/35/3 1/7/3
f 7/9/4 6/13/4 4/10/4
f 7/9/4 17/36/4 9/12/4
f 8/13/5 6/13/5 7/9/5
f 6/14/5 8/14/5 10/14/5
f 11/15/6 8/19/6 9/16/6
f 11/15/6 13/23/6 10/18/6
f 13/23/6 14/25/6 15/24/6
f 14/25/6 12/17/6 9/16/6
f 16/26/5 15/24/5 9/16/5
f 15/29/2 16/38/2 18/28/2
f 3/4/5 10/4/5 15/29/5
f 18/30/7 16/39/7 17/31/7
f 18/30/7 7/32/7 5/9/7
f 7/14/5 20/14/5 19/14/5
usemtl CartelesAM
f 14/20/6 11/21/6 12/22/6
f 14/20/6 13/37/6 11/21/6
