# Blender 4.5.3 LTS
# www.blender.org
mtllib cortinas2.mtl
o curtain.001_meshId127.002
v -9.951847 14.819142 -5.146705
v -9.951847 14.670716 -5.205050
v -10.265705 14.670717 -5.205050
v -10.265704 14.819143 -5.146705
v -9.324129 14.819143 -5.146705
v -9.324128 14.670716 -5.205050
v -9.637987 14.670716 -5.205050
v -9.637987 14.819142 -5.146705
v -8.696410 14.819143 -5.146705
v -8.696410 14.670717 -5.205050
v -9.010269 14.670717 -5.205050
v -9.010269 14.819143 -5.146705
v -8.068694 14.819143 -5.146705
v -8.068693 14.670717 -5.205047
v -8.382551 14.670717 -5.205050
v -8.382551 14.819143 -5.146705
v -10.166126 12.579887 -5.177195
v -10.123114 14.067123 -5.161620
v -9.912614 14.540844 -5.153998
v -10.123931 11.598260 -5.176840
v -10.280827 7.265585 -5.238160
v -10.265704 14.522291 -5.146705
v -10.108775 14.596504 -5.175878
v -9.951847 14.596504 -5.175878
v -9.481058 14.596504 -5.175878
v -9.637987 14.596504 -5.175878
v -9.324129 14.522291 -5.146705
v -9.455746 14.187796 -5.159713
v -9.677220 14.540844 -5.153998
v -8.853340 14.596504 -5.175876
v -9.010269 14.596504 -5.175876
v -8.696410 14.596504 -5.175876
v -8.657178 14.540844 -5.153998
v -8.850812 13.814875 -5.153731
v -9.029886 14.540844 -5.153998
v -8.225623 14.596504 -5.175876
v -8.382551 14.596504 -5.175876
v -8.068693 14.596504 -5.175876
v -8.066803 13.822480 -5.165428
v -8.229846 14.064073 -5.146021
v -8.421783 14.540844 -5.153998
v -9.040648 12.571084 -5.177195
v -9.088734 14.522291 -5.146705
v -8.959654 11.829546 -5.176928
v -8.944473 7.235519 -5.191367
v -9.061319 11.591411 -5.176837
v -9.167199 14.522291 -5.146705
v -9.948442 10.577317 -5.145286
v -9.946738 7.197457 -5.144574
v -10.058102 7.225663 -5.097780
v -10.013828 11.088463 -5.122067
v -9.886017 11.556746 -5.176840
v -9.835376 7.174373 -5.191367
v -10.096925 10.610528 -5.145286
v -10.169464 7.247273 -5.144574
v -9.695338 10.557762 -5.145286
v -9.724013 7.168125 -5.144574
v -9.744276 11.551858 -5.176840
v -9.623208 11.061817 -5.122067
v -9.612650 7.170299 -5.050987
v -9.808403 12.546678 -5.177195
v -9.794917 14.522291 -5.146705
v -9.379810 13.062572 -5.169575
v -9.294594 11.714282 -5.174933
v -9.389925 7.235519 -5.191367
v -9.488645 11.705237 -5.174933
v -9.245664 14.522291 -5.146705
v -9.546854 10.582168 -5.145286
v -9.501287 7.204733 -5.144574
v -9.241442 10.618348 -5.145286
v -9.278563 7.259003 -5.144574
v -9.167199 11.113142 -5.122067
v -9.167199 7.278834 -5.050987
v -9.092957 10.618348 -5.145286
v -9.055837 7.259003 -5.144574
v -8.600237 12.548126 -5.114802
v -8.559744 11.553307 -5.114448
v -8.721748 7.178364 -5.097780
v -8.715405 11.806589 -5.114536
v -8.539481 14.522291 -5.146705
v -8.843225 11.570887 -5.145643
v -8.833111 7.204733 -5.144574
v -8.534441 10.557762 -5.145286
v -8.610385 7.168125 -5.144574
v -8.450493 11.059518 -5.168860
v -8.499022 7.174372 -5.191367
v -8.132854 10.610528 -5.145286
v -8.164933 7.247273 -5.144574
v -8.276297 7.225663 -5.097780
v -8.180090 11.586052 -5.114446
v -8.061132 11.601313 -5.192436
v -8.053571 7.265584 -5.238160
v -8.385957 10.577318 -5.145286
v -8.321830 11.577750 -5.114446
v -8.387659 7.197457 -5.144574
v -8.242514 12.567681 -5.114802
vn -0.0000 0.3658 -0.9307
vn -0.0000 -0.0000 -1.0000
vn 0.0068 0.0084 -0.9999
vn -0.0301 -0.0006 -0.9995
vn 0.0426 -0.0271 -0.9987
vn 0.2801 -0.0058 -0.9599
vn 0.6047 -0.0122 -0.7963
vn -0.0641 -0.1675 -0.9838
vn -0.0115 -0.2048 -0.9787
vn -0.0000 -0.3658 -0.9307
vn 0.0057 -0.2108 -0.9775
vn 0.0373 -0.1053 -0.9937
vn 0.0346 -0.0062 -0.9994
vn -0.0355 -0.0280 -0.9990
vn -0.0032 -0.2036 -0.9790
vn 0.0704 -0.0457 -0.9965
vn -0.0009 -0.0101 -0.9999
vn -0.0638 -0.0551 -0.9964
vn -0.0478 -0.2064 -0.9773
vn -0.0000 -0.1870 -0.9824
vn -0.1621 -0.0212 -0.9866
vn -0.1083 -0.0362 -0.9935
vn -0.0387 -0.0483 -0.9981
vn -0.0398 0.0072 -0.9992
vn -0.0612 0.0141 -0.9980
vn 0.1694 0.0082 -0.9855
vn 0.0223 -0.0018 -0.9997
vn -0.3278 -0.0050 -0.9447
vn -0.0008 0.0117 -0.9999
vn -0.3884 -0.0015 -0.9215
vn -0.3875 -0.0004 -0.9219
vn -0.0034 -0.0049 -1.0000
vn 0.0268 -0.0095 -0.9996
vn -0.2810 0.0027 -0.9597
vn 0.0038 -0.0020 -1.0000
vn 0.4672 -0.0110 -0.8841
vn 0.5337 -0.0117 -0.8456
vn 0.4266 -0.0096 -0.9044
vn 0.5289 -0.0047 -0.8486
vn 0.2823 -0.0010 -0.9593
vn -0.0264 -0.0112 -0.9996
vn 0.0169 -0.0099 -0.9998
vn 0.0002 0.0066 -1.0000
vn -0.0012 0.0154 -0.9999
vn 0.0165 0.0075 -0.9998
vn 0.1914 -0.0015 -0.9815
vn -0.0127 -0.0049 -0.9999
vn -0.1399 -0.0029 -0.9902
vn -0.0000 0.0157 -0.9999
vn -0.3847 -0.0111 -0.9230
vn -0.5309 -0.0073 -0.8474
vn 0.4020 -0.0101 -0.9156
vn 0.5249 -0.0060 -0.8512
vn -0.0000 -0.0093 -1.0000
vn -0.0000 -0.0101 -0.9999
vn -0.4613 -0.0128 -0.8872
vn -0.5249 -0.0060 -0.8512
vn -0.0209 -0.0107 -0.9997
vn -0.3117 0.0059 -0.9501
vn 0.0013 0.0045 -1.0000
vn 0.1533 -0.0101 -0.9881
vn -0.0050 -0.0160 -0.9999
vn 0.2478 -0.0009 -0.9688
vn 0.3875 0.0007 -0.9219
vn -0.4094 0.0118 -0.9123
vn -0.3872 0.0085 -0.9220
vn 0.0259 0.0043 -0.9997
vn -0.0215 0.0047 -0.9998
vn -0.5403 0.0067 -0.8414
vn -0.5254 0.0048 -0.8508
vn 0.0193 0.0015 -0.9998
vn -0.2810 0.0002 -0.9597
vn -0.6227 0.0078 -0.7824
vn -0.6424 0.0061 -0.7664
vn 0.3866 0.0010 -0.9223
vn 0.2367 -0.0013 -0.9716
vn 0.3875 -0.0004 -0.9219
vn -0.0411 -0.0117 -0.9991
vt 0.140625 0.898438
vt 0.140625 0.875000
vt 0.000000 0.875000
vt 0.000000 0.898438
vt 0.425781 0.898438
vt 0.425781 0.875000
vt 0.285156 0.875000
vt 0.285156 0.898438
vt 0.714844 0.898438
vt 0.714844 0.875000
vt 0.570312 0.875000
vt 0.570312 0.898438
vt 1.000000 0.898438
vt 1.000000 0.875000
vt 0.855469 0.875000
vt 0.855469 0.898438
vt 0.046875 0.571615
vt 0.064453 0.786947
vt 0.158691 0.857910
vt 0.066732 0.429688
vt 0.000000 0.003906
vt 0.000000 0.855469
vt 0.070312 0.865234
vt 0.140625 0.865234
vt 0.355469 0.865234
vt 0.285156 0.865234
vt 0.425781 0.855469
vt 0.367188 0.804688
vt 0.267090 0.857910
vt 0.642578 0.865234
vt 0.570312 0.865234
vt 0.714844 0.865234
vt 0.732422 0.857910
vt 0.643310 0.751465
vt 0.561523 0.857910
vt 0.927734 0.865234
vt 0.855469 0.865234
vt 1.000000 0.865234
vt 1.000000 0.751465
vt 0.925293 0.786947
vt 0.837891 0.857910
vt 0.555990 0.571615
vt 0.535156 0.855469
vt 0.592367 0.465169
vt 0.598145 0.003906
vt 0.546549 0.429688
vt 0.499512 0.855469
vt 0.145833 0.287760
vt 0.148438 0.003906
vt 0.098145 0.003906
vt 0.115885 0.358724
vt 0.173503 0.429688
vt 0.199219 0.003906
vt 0.079427 0.287760
vt 0.048828 0.003906
vt 0.261719 0.287760
vt 0.250000 0.003906
vt 0.238607 0.429688
vt 0.293945 0.358724
vt 0.300781 0.003906
vt 0.208333 0.571615
vt 0.212891 0.855469
vt 0.402344 0.642578
vt 0.441732 0.447428
vt 0.398926 0.003906
vt 0.353516 0.447428
vt 0.462891 0.855469
vt 0.328125 0.287760
vt 0.349609 0.003906
vt 0.466146 0.287760
vt 0.449219 0.003906
vt 0.499674 0.358724
vt 0.500000 0.003906
vt 0.532552 0.287760
vt 0.548828 0.003906
vt 0.756510 0.571615
vt 0.774089 0.429688
vt 0.699219 0.003906
vt 0.704020 0.465169
vt 0.785156 0.855469
vt 0.645508 0.429688
vt 0.648438 0.003906
vt 0.785156 0.287760
vt 0.750000 0.003906
vt 0.823242 0.358724
vt 0.800293 0.003906
vt 0.966146 0.287760
vt 0.949219 0.003906
vt 0.898926 0.003906
vt 0.945638 0.429688
vt 1.000000 0.429688
vt 1.000000 0.003906
vt 0.851562 0.287760
vt 0.880859 0.429688
vt 0.849609 0.003906
vt 0.917969 0.571615
s 1
usemtl f003_002_curtain_a_1.003
f 1/1/1 2/2/2 3/3/2
f 3/3/2 4/4/1 1/1/1
f 5/5/1 6/6/2 7/7/2
f 7/7/2 8/8/1 5/5/1
f 9/9/1 10/10/2 11/11/2
f 11/11/2 12/12/1 9/9/1
f 13/13/1 14/14/2 15/15/2
f 15/15/2 16/16/1 13/13/1
f 17/17/3 18/18/4 19/19/5
f 19/19/5 20/20/6 17/17/3
f 21/21/7 22/22/8 17/17/3
f 20/20/6 21/21/7 17/17/3
f 22/22/8 18/18/4 17/17/3
f 3/3/2 2/2/2 23/23/9
f 2/2/2 24/24/10 23/23/9
f 23/23/9 24/24/10 19/19/5
f 19/19/5 18/18/4 23/23/9
f 22/22/8 3/3/2 23/23/9
f 18/18/4 22/22/8 23/23/9
f 7/7/2 6/6/2 25/25/11
f 26/26/10 7/7/2 25/25/11
f 6/6/2 27/27/12 25/25/11
f 27/27/12 28/28/13 25/25/11
f 25/25/11 28/28/13 29/29/14
f 29/29/14 26/26/10 25/25/11
f 11/11/2 10/10/2 30/30/15
f 31/31/10 11/11/2 30/30/15
f 10/10/2 32/32/10 30/30/15
f 30/30/15 32/32/10 33/33/16
f 33/33/16 34/34/17 30/30/15
f 30/30/15 34/34/17 35/35/18
f 35/35/18 31/31/10 30/30/15
f 15/15/2 14/14/2 36/36/19
f 37/37/10 15/15/2 36/36/19
f 14/14/2 38/38/20 36/36/19
f 36/36/19 38/38/20 39/39/21
f 39/39/21 40/40/22 36/36/19
f 36/36/19 40/40/22 41/41/23
f 41/41/23 37/37/10 36/36/19
f 42/42/24 43/43/25 35/35/18
f 35/35/18 44/44/26 42/42/24
f 42/42/24 44/44/26 45/45/27
f 45/45/27 46/46/28 42/42/24
f 42/42/24 46/46/28 47/47/29
f 47/47/29 43/43/25 42/42/24
f 48/48/30 49/49/31 50/50/32
f 50/50/32 51/51/33 48/48/30
f 48/48/30 51/51/33 19/19/5
f 19/19/5 52/52/34 48/48/30
f 48/48/30 52/52/34 53/53/35
f 53/53/35 49/49/31 48/48/30
f 54/54/36 20/20/6 19/19/5
f 19/19/5 51/51/33 54/54/36
f 54/54/36 51/51/33 50/50/32
f 50/50/32 55/55/37 54/54/36
f 21/21/7 20/20/6 54/54/36
f 55/55/37 21/21/7 54/54/36
f 56/56/38 57/57/39 53/53/35
f 53/53/35 58/58/40 56/56/38
f 56/56/38 58/58/40 29/29/14
f 29/29/14 59/59/41 56/56/38
f 60/60/42 57/57/39 56/56/38
f 59/59/41 60/60/42 56/56/38
f 61/61/43 62/62/44 29/29/14
f 29/29/14 58/58/40 61/61/43
f 61/61/43 58/58/40 53/53/35
f 53/53/35 52/52/34 61/61/43
f 61/61/43 52/52/34 19/19/5
f 19/19/5 62/62/44 61/61/43
f 63/63/45 64/64/46 65/65/47
f 65/65/47 66/66/48 63/63/45
f 63/63/45 66/66/48 29/29/14
f 29/29/14 28/28/13 63/63/45
f 27/27/12 67/67/49 63/63/45
f 28/28/13 27/27/12 63/63/45
f 63/63/45 67/67/49 47/47/29
f 47/47/29 64/64/46 63/63/45
f 68/68/50 59/59/41 29/29/14
f 29/29/14 66/66/48 68/68/50
f 68/68/50 66/66/48 65/65/47
f 65/65/47 69/69/51 68/68/50
f 60/60/42 59/59/41 68/68/50
f 69/69/51 60/60/42 68/68/50
f 70/70/52 71/71/53 65/65/47
f 65/65/47 64/64/46 70/70/52
f 70/70/52 64/64/46 47/47/29
f 47/47/29 72/72/54 70/70/52
f 73/73/55 71/71/53 70/70/52
f 72/72/54 73/73/55 70/70/52
f 74/74/56 72/72/54 47/47/29
f 47/47/29 46/46/28 74/74/56
f 74/74/56 46/46/28 45/45/27
f 45/45/27 75/75/57 74/74/56
f 73/73/55 72/72/54 74/74/56
f 75/75/57 73/73/55 74/74/56
f 76/76/58 77/77/59 78/78/60
f 78/78/60 79/79/61 76/76/58
f 76/76/58 79/79/61 33/33/16
f 33/33/16 80/80/62 76/76/58
f 76/76/58 80/80/62 41/41/23
f 41/41/23 77/77/59 76/76/58
f 81/81/63 34/34/17 33/33/16
f 33/33/16 79/79/61 81/81/63
f 81/81/63 79/79/61 78/78/60
f 78/78/60 82/82/64 81/81/63
f 81/81/63 82/82/64 45/45/27
f 45/45/27 44/44/26 81/81/63
f 81/81/63 44/44/26 35/35/18
f 35/35/18 34/34/17 81/81/63
f 83/83/65 84/84/66 78/78/60
f 78/78/60 77/77/59 83/83/65
f 83/83/65 77/77/59 41/41/23
f 41/41/23 85/85/67 83/83/65
f 83/83/65 85/85/67 86/86/68
f 86/86/68 84/84/66 83/83/65
f 87/87/69 88/88/70 89/89/71
f 89/89/71 90/90/72 87/87/69
f 87/87/69 90/90/72 39/39/21
f 39/39/21 91/91/73 87/87/69
f 87/87/69 91/91/73 92/92/74
f 92/92/74 88/88/70 87/87/69
f 93/93/75 85/85/67 41/41/23
f 41/41/23 94/94/76 93/93/75
f 93/93/75 94/94/76 89/89/71
f 89/89/71 95/95/77 93/93/75
f 93/93/75 95/95/77 86/86/68
f 86/86/68 85/85/67 93/93/75
f 96/96/78 40/40/22 39/39/21
f 39/39/21 90/90/72 96/96/78
f 96/96/78 90/90/72 89/89/71
f 89/89/71 94/94/76 96/96/78
f 96/96/78 94/94/76 41/41/23
f 41/41/23 40/40/22 96/96/78
