# Blender 4.5.3 LTS
# www.blender.org
mtllib cortinas1.mtl
o curtain.001_meshId127.003
v 3.113125 14.819165 -5.146708
v 3.113125 14.670740 -5.205053
v 2.799267 14.670740 -5.205053
v 2.799267 14.819166 -5.146708
v 3.740843 14.819166 -5.146708
v 3.740843 14.670740 -5.205053
v 3.426984 14.670740 -5.205053
v 3.426984 14.819165 -5.146708
v 4.368560 14.819166 -5.146708
v 4.368560 14.670740 -5.205053
v 4.054701 14.670740 -5.205053
v 4.054701 14.819166 -5.146708
v 4.996277 14.819166 -5.146708
v 4.996278 14.670740 -5.205050
v 4.682420 14.670740 -5.205053
v 4.682420 14.819166 -5.146708
v 2.898845 12.579910 -5.177197
v 2.941858 14.067146 -5.161623
v 3.152357 14.540867 -5.154001
v 2.941040 11.598283 -5.176843
v 2.784144 7.265608 -5.238163
v 2.799267 14.522314 -5.146708
v 2.956196 14.596527 -5.175881
v 3.113125 14.596527 -5.175881
v 3.583913 14.596527 -5.175881
v 3.426984 14.596527 -5.175881
v 3.740843 14.522314 -5.146708
v 3.609225 14.187819 -5.159716
v 3.387751 14.540867 -5.154001
v 4.211631 14.596527 -5.175879
v 4.054701 14.596527 -5.175879
v 4.368560 14.596527 -5.175879
v 4.407792 14.540867 -5.154001
v 4.214159 13.814898 -5.153734
v 4.035086 14.540867 -5.154001
v 4.839348 14.596527 -5.175879
v 4.682420 14.596527 -5.175879
v 4.996277 14.596527 -5.175879
v 4.998168 13.822503 -5.165431
v 4.835125 14.064095 -5.146024
v 4.643187 14.540867 -5.154001
v 4.024324 12.571107 -5.177197
v 3.976237 14.522315 -5.146708
v 4.105317 11.829569 -5.176931
v 4.120498 7.235542 -5.191370
v 4.003652 11.591434 -5.176840
v 3.897772 14.522314 -5.146708
v 3.116530 10.577340 -5.145288
v 3.118233 7.197479 -5.144577
v 3.006870 7.225686 -5.097784
v 3.051142 11.088486 -5.122070
v 3.178954 11.556769 -5.176843
v 3.229595 7.174395 -5.191370
v 2.968046 10.610551 -5.145288
v 2.895507 7.247295 -5.144577
v 3.369633 10.557786 -5.145288
v 3.340958 7.168149 -5.144577
v 3.320695 11.551881 -5.176843
v 3.441763 11.061840 -5.122070
v 3.452321 7.170321 -5.050990
v 3.256567 12.546700 -5.177197
v 3.270054 14.522314 -5.146708
v 3.685162 13.062595 -5.169578
v 3.770378 11.714305 -5.174936
v 3.675045 7.235542 -5.191370
v 3.576326 11.705260 -5.174936
v 3.819307 14.522314 -5.146708
v 3.518116 10.582191 -5.145288
v 3.563683 7.204757 -5.144577
v 3.823530 10.618371 -5.145288
v 3.786408 7.259026 -5.144577
v 3.897772 11.113165 -5.122070
v 3.897772 7.278858 -5.050990
v 3.972013 10.618371 -5.145288
v 4.009135 7.259026 -5.144577
v 4.464734 12.548149 -5.114806
v 4.505226 11.553329 -5.114451
v 4.343222 7.178386 -5.097784
v 4.349566 11.806612 -5.114539
v 4.525489 14.522314 -5.146708
v 4.221745 11.570910 -5.145646
v 4.231860 7.204757 -5.144577
v 4.530529 10.557786 -5.145288
v 4.454586 7.168149 -5.144577
v 4.614478 11.059541 -5.168864
v 4.565948 7.174394 -5.191370
v 4.932118 10.610551 -5.145288
v 4.900037 7.247295 -5.144577
v 4.788674 7.225686 -5.097784
v 4.884881 11.586075 -5.114449
v 5.003839 11.601336 -5.192439
v 5.011401 7.265606 -5.238163
v 4.679015 10.577341 -5.145288
v 4.743141 11.577773 -5.114449
v 4.677312 7.197479 -5.144577
v 4.822456 12.567704 -5.114806
vn -0.0000 0.3658 -0.9307
vn -0.0000 -0.0000 -1.0000
vn 0.0068 0.0084 -0.9999
vn -0.0301 -0.0006 -0.9995
vn 0.0426 -0.0271 -0.9987
vn 0.2801 -0.0058 -0.9599
vn 0.6047 -0.0122 -0.7963
vn -0.0641 -0.1675 -0.9838
vn -0.0115 -0.2048 -0.9787
vn -0.0000 -0.3658 -0.9307
vn 0.0057 -0.2108 -0.9775
vn 0.0373 -0.1053 -0.9937
vn 0.0346 -0.0062 -0.9994
vn -0.0355 -0.0280 -0.9990
vn -0.0032 -0.2036 -0.9790
vn 0.0704 -0.0457 -0.9965
vn -0.0009 -0.0101 -0.9999
vn -0.0638 -0.0551 -0.9964
vn -0.0478 -0.2064 -0.9773
vn -0.0000 -0.1870 -0.9824
vn -0.1621 -0.0212 -0.9866
vn -0.1083 -0.0362 -0.9935
vn -0.0387 -0.0483 -0.9981
vn -0.0398 0.0072 -0.9992
vn -0.0612 0.0141 -0.9980
vn 0.1694 0.0082 -0.9855
vn 0.0223 -0.0018 -0.9997
vn -0.3278 -0.0050 -0.9447
vn -0.0008 0.0117 -0.9999
vn -0.3884 -0.0015 -0.9215
vn -0.3875 -0.0004 -0.9219
vn -0.0034 -0.0049 -1.0000
vn 0.0268 -0.0095 -0.9996
vn -0.2810 0.0027 -0.9597
vn 0.0038 -0.0020 -1.0000
vn 0.4672 -0.0110 -0.8841
vn 0.5337 -0.0117 -0.8456
vn 0.4266 -0.0096 -0.9044
vn 0.5289 -0.0047 -0.8486
vn 0.2823 -0.0010 -0.9593
vn -0.0264 -0.0112 -0.9996
vn 0.0169 -0.0099 -0.9998
vn 0.0002 0.0066 -1.0000
vn -0.0012 0.0154 -0.9999
vn 0.0165 0.0075 -0.9998
vn 0.1914 -0.0015 -0.9815
vn -0.0127 -0.0049 -0.9999
vn -0.1399 -0.0029 -0.9902
vn -0.0000 0.0157 -0.9999
vn -0.3847 -0.0111 -0.9230
vn -0.5309 -0.0073 -0.8474
vn 0.4020 -0.0101 -0.9156
vn 0.5249 -0.0060 -0.8512
vn -0.0000 -0.0093 -1.0000
vn -0.0000 -0.0101 -0.9999
vn -0.4613 -0.0128 -0.8872
vn -0.5249 -0.0060 -0.8512
vn -0.0209 -0.0107 -0.9997
vn -0.3117 0.0059 -0.9501
vn 0.0013 0.0045 -1.0000
vn 0.1533 -0.0101 -0.9881
vn -0.0050 -0.0160 -0.9999
vn 0.2478 -0.0009 -0.9688
vn 0.3875 0.0007 -0.9219
vn -0.4094 0.0118 -0.9123
vn -0.3872 0.0085 -0.9220
vn 0.0259 0.0043 -0.9997
vn -0.0215 0.0047 -0.9998
vn -0.5403 0.0067 -0.8414
vn -0.5254 0.0048 -0.8508
vn 0.0193 0.0015 -0.9998
vn -0.2810 0.0002 -0.9597
vn -0.6228 0.0078 -0.7824
vn -0.6424 0.0061 -0.7664
vn 0.3866 0.0010 -0.9223
vn 0.2367 -0.0013 -0.9716
vn 0.3875 -0.0004 -0.9219
vn -0.0411 -0.0117 -0.9991
vt 0.140625 0.898438
vt 0.140625 0.875000
vt 0.000000 0.875000
vt 0.000000 0.898438
vt 0.425781 0.898438
vt 0.425781 0.875000
vt 0.285156 0.875000
vt 0.285156 0.898438
vt 0.714844 0.898438
vt 0.714844 0.875000
vt 0.570312 0.875000
vt 0.570312 0.898438
vt 1.000000 0.898438
vt 1.000000 0.875000
vt 0.855469 0.875000
vt 0.855469 0.898438
vt 0.046875 0.571615
vt 0.064453 0.786947
vt 0.158691 0.857910
vt 0.066732 0.429688
vt 0.000000 0.003906
vt 0.000000 0.855469
vt 0.070312 0.865234
vt 0.140625 0.865234
vt 0.355469 0.865234
vt 0.285156 0.865234
vt 0.425781 0.855469
vt 0.367188 0.804688
vt 0.267090 0.857910
vt 0.642578 0.865234
vt 0.570312 0.865234
vt 0.714844 0.865234
vt 0.732422 0.857910
vt 0.643310 0.751465
vt 0.561523 0.857910
vt 0.927734 0.865234
vt 0.855469 0.865234
vt 1.000000 0.865234
vt 1.000000 0.751465
vt 0.925293 0.786947
vt 0.837891 0.857910
vt 0.555990 0.571615
vt 0.535156 0.855469
vt 0.592367 0.465169
vt 0.598145 0.003906
vt 0.546549 0.429688
vt 0.499512 0.855469
vt 0.145833 0.287760
vt 0.148438 0.003906
vt 0.098145 0.003906
vt 0.115885 0.358724
vt 0.173503 0.429688
vt 0.199219 0.003906
vt 0.079427 0.287760
vt 0.048828 0.003906
vt 0.261719 0.287760
vt 0.250000 0.003906
vt 0.238607 0.429688
vt 0.293945 0.358724
vt 0.300781 0.003906
vt 0.208333 0.571615
vt 0.212891 0.855469
vt 0.402344 0.642578
vt 0.441732 0.447428
vt 0.398926 0.003906
vt 0.353516 0.447428
vt 0.462891 0.855469
vt 0.328125 0.287760
vt 0.349609 0.003906
vt 0.466146 0.287760
vt 0.449219 0.003906
vt 0.499674 0.358724
vt 0.500000 0.003906
vt 0.532552 0.287760
vt 0.548828 0.003906
vt 0.756510 0.571615
vt 0.774089 0.429688
vt 0.699219 0.003906
vt 0.704020 0.465169
vt 0.785156 0.855469
vt 0.645508 0.429688
vt 0.648438 0.003906
vt 0.785156 0.287760
vt 0.750000 0.003906
vt 0.823242 0.358724
vt 0.800293 0.003906
vt 0.966146 0.287760
vt 0.949219 0.003906
vt 0.898926 0.003906
vt 0.945638 0.429688
vt 1.000000 0.429688
vt 1.000000 0.003906
vt 0.851562 0.287760
vt 0.880859 0.429688
vt 0.849609 0.003906
vt 0.917969 0.571615
s 1
usemtl f003_002_curtain_a_1.003
f 1/1/1 2/2/2 3/3/2
f 3/3/2 4/4/1 1/1/1
f 5/5/1 6/6/2 7/7/2
f 7/7/2 8/8/1 5/5/1
f 9/9/1 10/10/2 11/11/2
f 11/11/2 12/12/1 9/9/1
f 13/13/1 14/14/2 15/15/2
f 15/15/2 16/16/1 13/13/1
f 17/17/3 18/18/4 19/19/5
f 19/19/5 20/20/6 17/17/3
f 21/21/7 22/22/8 17/17/3
f 20/20/6 21/21/7 17/17/3
f 22/22/8 18/18/4 17/17/3
f 3/3/2 2/2/2 23/23/9
f 2/2/2 24/24/10 23/23/9
f 23/23/9 24/24/10 19/19/5
f 19/19/5 18/18/4 23/23/9
f 22/22/8 3/3/2 23/23/9
f 18/18/4 22/22/8 23/23/9
f 7/7/2 6/6/2 25/25/11
f 26/26/10 7/7/2 25/25/11
f 6/6/2 27/27/12 25/25/11
f 27/27/12 28/28/13 25/25/11
f 25/25/11 28/28/13 29/29/14
f 29/29/14 26/26/10 25/25/11
f 11/11/2 10/10/2 30/30/15
f 31/31/10 11/11/2 30/30/15
f 10/10/2 32/32/10 30/30/15
f 30/30/15 32/32/10 33/33/16
f 33/33/16 34/34/17 30/30/15
f 30/30/15 34/34/17 35/35/18
f 35/35/18 31/31/10 30/30/15
f 15/15/2 14/14/2 36/36/19
f 37/37/10 15/15/2 36/36/19
f 14/14/2 38/38/20 36/36/19
f 36/36/19 38/38/20 39/39/21
f 39/39/21 40/40/22 36/36/19
f 36/36/19 40/40/22 41/41/23
f 41/41/23 37/37/10 36/36/19
f 42/42/24 43/43/25 35/35/18
f 35/35/18 44/44/26 42/42/24
f 42/42/24 44/44/26 45/45/27
f 45/45/27 46/46/28 42/42/24
f 42/42/24 46/46/28 47/47/29
f 47/47/29 43/43/25 42/42/24
f 48/48/30 49/49/31 50/50/32
f 50/50/32 51/51/33 48/48/30
f 48/48/30 51/51/33 19/19/5
f 19/19/5 52/52/34 48/48/30
f 48/48/30 52/52/34 53/53/35
f 53/53/35 49/49/31 48/48/30
f 54/54/36 20/20/6 19/19/5
f 19/19/5 51/51/33 54/54/36
f 54/54/36 51/51/33 50/50/32
f 50/50/32 55/55/37 54/54/36
f 21/21/7 20/20/6 54/54/36
f 55/55/37 21/21/7 54/54/36
f 56/56/38 57/57/39 53/53/35
f 53/53/35 58/58/40 56/56/38
f 56/56/38 58/58/40 29/29/14
f 29/29/14 59/59/41 56/56/38
f 60/60/42 57/57/39 56/56/38
f 59/59/41 60/60/42 56/56/38
f 61/61/43 62/62/44 29/29/14
f 29/29/14 58/58/40 61/61/43
f 61/61/43 58/58/40 53/53/35
f 53/53/35 52/52/34 61/61/43
f 61/61/43 52/52/34 19/19/5
f 19/19/5 62/62/44 61/61/43
f 63/63/45 64/64/46 65/65/47
f 65/65/47 66/66/48 63/63/45
f 63/63/45 66/66/48 29/29/14
f 29/29/14 28/28/13 63/63/45
f 27/27/12 67/67/49 63/63/45
f 28/28/13 27/27/12 63/63/45
f 63/63/45 67/67/49 47/47/29
f 47/47/29 64/64/46 63/63/45
f 68/68/50 59/59/41 29/29/14
f 29/29/14 66/66/48 68/68/50
f 68/68/50 66/66/48 65/65/47
f 65/65/47 69/69/51 68/68/50
f 60/60/42 59/59/41 68/68/50
f 69/69/51 60/60/42 68/68/50
f 70/70/52 71/71/53 65/65/47
f 65/65/47 64/64/46 70/70/52
f 70/70/52 64/64/46 47/47/29
f 47/47/29 72/72/54 70/70/52
f 73/73/55 71/71/53 70/70/52
f 72/72/54 73/73/55 70/70/52
f 74/74/56 72/72/54 47/47/29
f 47/47/29 46/46/28 74/74/56
f 74/74/56 46/46/28 45/45/27
f 45/45/27 75/75/57 74/74/56
f 73/73/55 72/72/54 74/74/56
f 75/75/57 73/73/55 74/74/56
f 76/76/58 77/77/59 78/78/60
f 78/78/60 79/79/61 76/76/58
f 76/76/58 79/79/61 33/33/16
f 33/33/16 80/80/62 76/76/58
f 76/76/58 80/80/62 41/41/23
f 41/41/23 77/77/59 76/76/58
f 81/81/63 34/34/17 33/33/16
f 33/33/16 79/79/61 81/81/63
f 81/81/63 79/79/61 78/78/60
f 78/78/60 82/82/64 81/81/63
f 81/81/63 82/82/64 45/45/27
f 45/45/27 44/44/26 81/81/63
f 81/81/63 44/44/26 35/35/18
f 35/35/18 34/34/17 81/81/63
f 83/83/65 84/84/66 78/78/60
f 78/78/60 77/77/59 83/83/65
f 83/83/65 77/77/59 41/41/23
f 41/41/23 85/85/67 83/83/65
f 83/83/65 85/85/67 86/86/68
f 86/86/68 84/84/66 83/83/65
f 87/87/69 88/88/70 89/89/71
f 89/89/71 90/90/72 87/87/69
f 87/87/69 90/90/72 39/39/21
f 39/39/21 91/91/73 87/87/69
f 87/87/69 91/91/73 92/92/74
f 92/92/74 88/88/70 87/87/69
f 93/93/75 85/85/67 41/41/23
f 41/41/23 94/94/76 93/93/75
f 93/93/75 94/94/76 89/89/71
f 89/89/71 95/95/77 93/93/75
f 93/93/75 95/95/77 86/86/68
f 86/86/68 85/85/67 93/93/75
f 96/96/78 40/40/22 39/39/21
f 39/39/21 90/90/72 96/96/78
f 96/96/78 90/90/72 89/89/71
f 89/89/71 94/94/76 96/96/78
f 96/96/78 94/94/76 41/41/23
f 41/41/23 40/40/22 96/96/78
