# Blender 4.5.3 LTS
# www.blender.org
mtllib DadoPok.mtl
o Cube
v 1.000000 1.000000 -1.000000
v 1.000000 -1.000000 -1.000000
v 1.000000 1.000000 1.000000
v 1.000000 -1.000000 1.000000
v -1.000000 1.000000 -1.000000
v -1.000000 -1.000000 -1.000000
v -1.000000 1.000000 1.000000
v -1.000000 -1.000000 1.000000
vn -0.0000 1.0000 -0.0000
vn -0.0000 -0.0000 1.0000
vn -1.0000 -0.0000 -0.0000
vn -0.0000 -1.0000 -0.0000
vn 1.0000 -0.0000 -0.0000
vn -0.0000 -0.0000 -1.0000
vt 0.592991 0.699166
vt 0.417891 0.524066
vt 0.592991 0.524066
vt 0.177312 0.714144
vt 0.358406 0.533050
vt 0.358406 0.714144
vt 0.420929 0.340635
vt 0.583471 0.178094
vt 0.583471 0.340635
vt 0.613120 0.548467
vt 0.395679 0.331026
vt 0.613120 0.331026
vt 0.665753 0.718977
vt 0.851090 0.533639
vt 0.851090 0.718977
vt 0.423824 0.878795
vt 0.598175 0.704444
vt 0.598175 0.878795
vt 0.417891 0.699166
vt 0.177312 0.533050
vt 0.420929 0.178094
vt 0.395679 0.548467
vt 0.665753 0.533639
vt 0.423824 0.704444
s 0
usemtl Material.001
f 5/1/1 3/2/1 1/3/1
f 3/4/2 8/5/2 4/6/2
f 7/7/3 6/8/3 8/9/3
f 2/10/4 8/11/4 6/12/4
f 1/13/5 4/14/5 2/15/5
f 5/16/6 2/17/6 6/18/6
f 5/1/1 7/19/1 3/2/1
f 3/4/2 7/20/2 8/5/2
f 7/7/3 5/21/3 6/8/3
f 2/10/4 4/22/4 8/11/4
f 1/13/5 3/23/5 4/14/5
f 5/16/6 1/24/6 2/17/6
