# Blender 4.5.3 LTS
# www.blender.org
mtllib Egip6.mtl
o plank.001
v 38.370834 7.269879 14.895715
v 38.561081 7.448325 13.815213
v 38.370834 7.269879 12.408924
v 38.561081 7.448325 13.489426
v 38.808693 7.269879 14.895715
v 38.618446 7.448325 13.815213
v 38.808693 7.269879 12.408924
v 38.618446 7.448325 13.489426
v 38.321110 7.269879 12.126522
v 38.321110 7.269879 15.178117
v 38.858418 7.269879 12.126522
v 38.858418 7.269879 15.178117
v 38.370834 7.280867 12.408924
v 38.370834 7.280867 14.895715
v 38.808693 7.280867 12.408924
v 38.808693 7.280867 14.895715
v 38.321110 7.448325 15.178117
v 38.321110 7.448325 12.126522
v 38.858418 7.448325 12.126522
v 38.858418 7.448325 15.178117
v 38.561081 8.090939 13.815213
v 38.561081 8.090939 13.489426
v 38.618446 8.090939 13.489426
v 38.618446 8.090939 13.815213
v 38.370834 7.269879 6.438251
v 38.561081 7.448325 5.357750
v 38.370834 7.269879 3.951462
v 38.561081 7.448325 5.031963
v 38.808693 7.269879 6.438251
v 38.618446 7.448325 5.357750
v 38.808693 7.269879 3.951462
v 38.618446 7.448325 5.031963
v 38.321110 7.269879 3.669060
v 38.321110 7.269879 6.720654
v 38.858418 7.269879 3.669060
v 38.858418 7.269879 6.720654
v 38.370834 7.280867 3.951462
v 38.370834 7.280867 6.438251
v 38.808693 7.280867 3.951462
v 38.808693 7.280867 6.438251
v 38.321110 7.448325 6.720654
v 38.321110 7.448325 3.669060
v 38.858418 7.448325 3.669060
v 38.858418 7.448325 6.720654
v 38.561081 8.090939 5.357750
v 38.561081 8.090939 5.031963
v 38.618446 8.090939 5.031963
v 38.618446 8.090939 5.357750
v 38.370834 7.269879 -2.378040
v 38.561081 7.448325 -3.458541
v 38.370834 7.269879 -4.864830
v 38.561081 7.448325 -3.784329
v 38.808693 7.269879 -2.378040
v 38.618446 7.448325 -3.458541
v 38.808693 7.269879 -4.864830
v 38.618446 7.448325 -3.784329
v 38.321110 7.269879 -5.147233
v 38.321110 7.269879 -2.095638
v 38.858418 7.269879 -5.147233
v 38.858418 7.269879 -2.095638
v 38.370834 7.280867 -4.864830
v 38.370834 7.280867 -2.378040
v 38.808693 7.280867 -4.864830
v 38.808693 7.280867 -2.378040
v 38.321110 7.448325 -2.095638
v 38.321110 7.448325 -5.147233
v 38.858418 7.448325 -5.147233
v 38.858418 7.448325 -2.095638
v 38.561081 8.090939 -3.458541
v 38.561081 8.090939 -3.784329
v 38.618446 8.090939 -3.784329
v 38.618446 8.090939 -3.458541
v 38.370834 7.269879 -11.267962
v 38.561081 7.448325 -12.348463
v 38.370834 7.269879 -13.754751
v 38.561081 7.448325 -12.674251
v 38.808693 7.269879 -11.267962
v 38.618446 7.448325 -12.348463
v 38.808693 7.269879 -13.754751
v 38.618446 7.448325 -12.674251
v 38.321110 7.269879 -14.037154
v 38.321110 7.269879 -10.985559
v 38.858418 7.269879 -14.037154
v 38.858418 7.269879 -10.985559
v 38.370834 7.280867 -13.754751
v 38.370834 7.280867 -11.267962
v 38.808693 7.280867 -13.754751
v 38.808693 7.280867 -11.267962
v 38.321110 7.448325 -10.985559
v 38.321110 7.448325 -14.037154
v 38.858418 7.448325 -14.037154
v 38.858418 7.448325 -10.985559
v 38.561081 8.090939 -12.348463
v 38.561081 8.090939 -12.674251
v 38.618446 8.090939 -12.674251
v 38.618446 8.090939 -12.348463
v 38.529545 8.041974 15.593915
v 38.529545 8.161974 15.593915
v 38.529545 8.041974 -14.503816
v 38.529545 8.161974 -14.503816
v 38.649982 8.041974 15.593915
v 38.649982 8.161974 15.593915
v 38.649982 8.041974 -14.503816
v 38.649982 8.161974 -14.503816
v 38.561081 8.090939 13.815213
v 38.561081 8.090939 13.489426
v 38.618446 8.090939 13.489426
v 38.618446 8.090939 13.815213
v 38.561081 8.090939 13.815213
v 38.561081 8.090939 13.489426
v 38.618446 8.090939 13.489426
v 38.618446 8.090939 13.815213
v 38.561081 8.090939 5.357750
v 38.561081 8.090939 5.031963
v 38.618446 8.090939 5.031963
v 38.618446 8.090939 5.357750
v 38.561081 8.090939 5.357750
v 38.561081 8.090939 5.031963
v 38.618446 8.090939 5.031963
v 38.618446 8.090939 5.357750
v 38.561081 8.090939 -3.458541
v 38.561081 8.090939 -3.784329
v 38.618446 8.090939 -3.784329
v 38.618446 8.090939 -3.458541
v 38.561081 8.090939 -3.458541
v 38.561081 8.090939 -3.784329
v 38.618446 8.090939 -3.784329
v 38.618446 8.090939 -3.458541
v 38.561081 8.090939 -12.348463
v 38.561081 8.090939 -12.674251
v 38.618446 8.090939 -12.674251
v 38.618446 8.090939 -12.348463
v 38.561081 8.090939 -12.348463
v 38.561081 8.090939 -12.674251
v 38.618446 8.090939 -12.674251
v 38.618446 8.090939 -12.348463
vn -1.0000 -0.0000 -0.0000
vn -0.0000 -0.0000 -1.0000
vn 1.0000 -0.0000 -0.0000
vn -0.0000 -0.0000 1.0000
vn -0.0000 -1.0000 -0.0000
vn -0.0000 1.0000 -0.0000
vt 0.625000 0.000000
vt 0.375000 0.250000
vt 0.375000 0.000000
vt 0.625000 0.250000
vt 0.375000 0.500000
vt 0.625000 0.500000
vt 0.375000 0.750000
vt 0.625000 0.750000
vt 0.375000 1.000000
vt 0.351864 0.523136
vt 0.148136 0.523136
vt 0.736655 0.611655
vt 0.736655 0.638345
vt 0.148136 0.726864
vt 0.125000 0.500000
vt 0.351864 0.726864
vt 0.125000 0.750000
vt 0.763345 0.638345
vt 0.875000 0.500000
vt 0.875000 0.750000
vt 0.763345 0.611655
vt 0.625000 1.000000
s 0
usemtl Madera.007
f 17/1/1 9/2/1 10/3/1
f 18/4/2 11/5/2 9/2/2
f 19/6/3 12/7/3 11/5/3
f 20/8/4 10/9/4 12/7/4
f 7/10/4 13/11/4 3/11/4
f 8/12/3 24/13/3 6/13/3
f 1/14/5 9/15/5 3/11/5
f 3/11/5 11/5/5 7/10/5
f 7/10/5 12/7/5 5/16/5
f 5/16/5 10/17/5 1/14/5
f 5/16/1 15/10/1 7/10/1
f 3/11/3 14/14/3 1/14/3
f 1/14/2 16/16/2 5/16/2
f 2/18/6 18/19/6 17/20/6
f 4/21/6 19/6/6 18/19/6
f 8/12/6 20/8/6 19/6/6
f 6/13/6 17/20/6 20/8/6
f 2/18/1 22/21/1 4/21/1
f 6/13/4 21/18/4 2/18/4
f 4/21/2 23/12/2 8/12/2
f 41/1/1 33/2/1 34/3/1
f 42/4/2 35/5/2 33/2/2
f 43/6/3 36/7/3 35/5/3
f 44/8/4 34/9/4 36/7/4
f 31/10/4 37/11/4 27/11/4
f 32/12/3 48/13/3 30/13/3
f 25/14/5 33/15/5 27/11/5
f 27/11/5 35/5/5 31/10/5
f 31/10/5 36/7/5 29/16/5
f 25/14/5 36/7/5 34/17/5
f 29/16/1 39/10/1 31/10/1
f 27/11/3 38/14/3 25/14/3
f 25/14/2 40/16/2 29/16/2
f 26/18/6 42/19/6 41/20/6
f 28/21/6 43/6/6 42/19/6
f 32/12/6 44/8/6 43/6/6
f 30/13/6 41/20/6 44/8/6
f 26/18/1 46/21/1 28/21/1
f 30/13/4 45/18/4 26/18/4
f 28/21/2 47/12/2 32/12/2
f 65/1/1 57/2/1 58/3/1
f 66/4/2 59/5/2 57/2/2
f 67/6/3 60/7/3 59/5/3
f 68/8/4 58/9/4 60/7/4
f 55/10/4 61/11/4 51/11/4
f 56/12/3 72/13/3 54/13/3
f 49/14/5 57/15/5 51/11/5
f 51/11/5 59/5/5 55/10/5
f 55/10/5 60/7/5 53/16/5
f 53/16/5 58/17/5 49/14/5
f 53/16/1 63/10/1 55/10/1
f 51/11/3 62/14/3 49/14/3
f 49/14/2 64/16/2 53/16/2
f 50/18/6 66/19/6 65/20/6
f 52/21/6 67/6/6 66/19/6
f 56/12/6 68/8/6 67/6/6
f 54/13/6 65/20/6 68/8/6
f 50/18/1 70/21/1 52/21/1
f 54/13/4 69/18/4 50/18/4
f 52/21/2 71/12/2 56/12/2
f 89/1/1 81/2/1 82/3/1
f 90/4/2 83/5/2 81/2/2
f 91/6/3 84/7/3 83/5/3
f 92/8/4 82/9/4 84/7/4
f 79/10/4 85/11/4 75/11/4
f 80/12/3 96/13/3 78/13/3
f 73/14/5 81/15/5 75/11/5
f 75/11/5 83/5/5 79/10/5
f 79/10/5 84/7/5 77/16/5
f 77/16/5 82/17/5 73/14/5
f 77/16/1 87/10/1 79/10/1
f 75/11/3 86/14/3 73/14/3
f 73/14/2 88/16/2 77/16/2
f 74/18/6 90/19/6 89/20/6
f 76/21/6 91/6/6 90/19/6
f 80/12/6 92/8/6 91/6/6
f 78/13/6 89/20/6 92/8/6
f 74/18/1 94/21/1 76/21/1
f 78/13/4 93/18/4 74/18/4
f 76/21/2 95/12/2 80/12/2
f 98/1/1 99/2/1 97/3/1
f 100/4/2 103/5/2 99/2/2
f 104/6/3 101/7/3 103/5/3
f 102/8/4 97/9/4 101/7/4
f 103/5/5 97/17/5 99/15/5
f 100/19/6 102/8/6 104/6/6
f 105/18/6 112/13/6 109/18/6
f 110/21/6 112/13/6 111/12/6
f 107/12/6 110/21/6 111/12/6
f 108/13/6 111/12/6 112/13/6
f 106/21/6 109/18/6 110/21/6
f 113/18/6 120/13/6 117/18/6
f 118/21/6 120/13/6 119/12/6
f 115/12/6 118/21/6 119/12/6
f 116/13/6 119/12/6 120/13/6
f 114/21/6 117/18/6 118/21/6
f 121/18/6 128/13/6 125/18/6
f 126/21/6 128/13/6 127/12/6
f 123/12/6 126/21/6 127/12/6
f 124/13/6 127/12/6 128/13/6
f 122/21/6 125/18/6 126/21/6
f 129/18/6 136/13/6 133/18/6
f 134/21/6 136/13/6 135/12/6
f 131/12/6 134/21/6 135/12/6
f 132/13/6 135/12/6 136/13/6
f 130/21/6 133/18/6 134/21/6
f 17/1/1 18/4/1 9/2/1
f 18/4/2 19/6/2 11/5/2
f 19/6/3 20/8/3 12/7/3
f 20/8/4 17/22/4 10/9/4
f 7/10/4 15/10/4 13/11/4
f 8/12/3 23/12/3 24/13/3
f 1/14/5 10/17/5 9/15/5
f 3/11/5 9/15/5 11/5/5
f 7/10/5 11/5/5 12/7/5
f 5/16/5 12/7/5 10/17/5
f 5/16/1 16/16/1 15/10/1
f 3/11/3 13/11/3 14/14/3
f 1/14/2 14/14/2 16/16/2
f 2/18/6 4/21/6 18/19/6
f 4/21/6 8/12/6 19/6/6
f 8/12/6 6/13/6 20/8/6
f 6/13/6 2/18/6 17/20/6
f 2/18/1 21/18/1 22/21/1
f 6/13/4 24/13/4 21/18/4
f 4/21/2 22/21/2 23/12/2
f 41/1/1 42/4/1 33/2/1
f 42/4/2 43/6/2 35/5/2
f 43/6/3 44/8/3 36/7/3
f 44/8/4 41/22/4 34/9/4
f 31/10/4 39/10/4 37/11/4
f 32/12/3 47/12/3 48/13/3
f 25/14/5 34/17/5 33/15/5
f 27/11/5 33/15/5 35/5/5
f 31/10/5 35/5/5 36/7/5
f 25/14/5 29/16/5 36/7/5
f 29/16/1 40/16/1 39/10/1
f 27/11/3 37/11/3 38/14/3
f 25/14/2 38/14/2 40/16/2
f 26/18/6 28/21/6 42/19/6
f 28/21/6 32/12/6 43/6/6
f 32/12/6 30/13/6 44/8/6
f 30/13/6 26/18/6 41/20/6
f 26/18/1 45/18/1 46/21/1
f 30/13/4 48/13/4 45/18/4
f 28/21/2 46/21/2 47/12/2
f 65/1/1 66/4/1 57/2/1
f 66/4/2 67/6/2 59/5/2
f 67/6/3 68/8/3 60/7/3
f 68/8/4 65/22/4 58/9/4
f 55/10/4 63/10/4 61/11/4
f 56/12/3 71/12/3 72/13/3
f 49/14/5 58/17/5 57/15/5
f 51/11/5 57/15/5 59/5/5
f 55/10/5 59/5/5 60/7/5
f 53/16/5 60/7/5 58/17/5
f 53/16/1 64/16/1 63/10/1
f 51/11/3 61/11/3 62/14/3
f 49/14/2 62/14/2 64/16/2
f 50/18/6 52/21/6 66/19/6
f 52/21/6 56/12/6 67/6/6
f 56/12/6 54/13/6 68/8/6
f 54/13/6 50/18/6 65/20/6
f 50/18/1 69/18/1 70/21/1
f 54/13/4 72/13/4 69/18/4
f 52/21/2 70/21/2 71/12/2
f 89/1/1 90/4/1 81/2/1
f 90/4/2 91/6/2 83/5/2
f 91/6/3 92/8/3 84/7/3
f 92/8/4 89/22/4 82/9/4
f 79/10/4 87/10/4 85/11/4
f 80/12/3 95/12/3 96/13/3
f 73/14/5 82/17/5 81/15/5
f 75/11/5 81/15/5 83/5/5
f 79/10/5 83/5/5 84/7/5
f 77/16/5 84/7/5 82/17/5
f 77/16/1 88/16/1 87/10/1
f 75/11/3 85/11/3 86/14/3
f 73/14/2 86/14/2 88/16/2
f 74/18/6 76/21/6 90/19/6
f 76/21/6 80/12/6 91/6/6
f 80/12/6 78/13/6 92/8/6
f 78/13/6 74/18/6 89/20/6
f 74/18/1 93/18/1 94/21/1
f 78/13/4 96/13/4 93/18/4
f 76/21/2 94/21/2 95/12/2
f 98/1/1 100/4/1 99/2/1
f 100/4/2 104/6/2 103/5/2
f 104/6/3 102/8/3 101/7/3
f 102/8/4 98/22/4 97/9/4
f 103/5/5 101/7/5 97/17/5
f 100/19/6 98/20/6 102/8/6
f 105/18/6 108/13/6 112/13/6
f 110/21/6 109/18/6 112/13/6
f 107/12/6 106/21/6 110/21/6
f 108/13/6 107/12/6 111/12/6
f 106/21/6 105/18/6 109/18/6
f 113/18/6 116/13/6 120/13/6
f 118/21/6 117/18/6 120/13/6
f 115/12/6 114/21/6 118/21/6
f 116/13/6 115/12/6 119/12/6
f 114/21/6 113/18/6 117/18/6
f 121/18/6 124/13/6 128/13/6
f 126/21/6 125/18/6 128/13/6
f 123/12/6 122/21/6 126/21/6
f 124/13/6 123/12/6 127/12/6
f 122/21/6 121/18/6 125/18/6
f 129/18/6 132/13/6 136/13/6
f 134/21/6 133/18/6 136/13/6
f 131/12/6 130/21/6 134/21/6
f 132/13/6 131/12/6 135/12/6
f 130/21/6 129/18/6 133/18/6
usemtl Luz.006
f 15/10/5 14/14/5 13/11/5
f 39/10/5 38/14/5 37/11/5
f 63/10/5 62/14/5 61/11/5
f 87/10/5 86/14/5 85/11/5
f 15/10/5 16/16/5 14/14/5
f 39/10/5 40/16/5 38/14/5
f 63/10/5 64/16/5 62/14/5
f 87/10/5 88/16/5 86/14/5
