# Blender 4.5.3 LTS
# www.blender.org
mtllib esc1.mtl
o Cube.010
v -42.296906 0.365114 12.336199
v -42.296906 0.365114 10.018538
v -42.296906 4.075755 12.336199
v -42.296906 0.406801 12.303241
v -42.138371 0.365114 12.336199
v -42.138371 0.365114 10.018538
v -42.138371 0.282687 9.953370
v -42.138371 4.075756 10.018538
v -42.138371 4.082243 9.953370
v -42.138371 4.539577 10.010638
v -42.296906 4.082243 9.953370
v -42.296906 4.539577 10.010638
v -42.138371 4.513789 10.073388
v -42.296906 4.513789 10.073388
v -42.138371 4.900133 10.229022
v -42.296906 4.075756 10.018538
v -42.296906 4.072474 10.051496
v -42.296906 4.500747 10.105124
v -42.296906 0.406801 10.051496
v -42.862564 0.406801 10.051496
v -42.862564 0.406801 12.303241
v -42.862564 4.072474 12.303241
v -42.862564 4.072474 10.051496
v -42.296906 4.072474 12.303241
v -42.296906 4.500746 12.249612
v -42.862564 4.500746 12.249612
v -42.862564 4.875324 12.098719
v -42.862564 4.500747 10.105124
v -42.862564 4.875325 10.256018
v -42.862564 5.172592 10.491040
v -42.296906 4.875325 10.256018
v -42.862564 5.172591 11.863696
v -42.296906 5.172592 10.491040
v -42.296906 5.363449 10.787185
v -42.296906 5.206738 10.471426
v -42.296906 4.900133 10.229022
v -42.138371 5.206738 10.471426
v -42.138371 5.274253 10.432644
v -42.138371 5.403589 10.776874
v -42.138371 4.949186 10.175643
v -42.296906 4.949186 10.175643
v -42.296906 5.274253 10.432644
v -42.296906 5.212473 10.148647
v -42.296906 4.791099 9.978903
v -43.062199 4.791098 9.978903
v -42.296906 4.324002 9.770412
v -43.062199 5.212472 10.148647
v -43.062199 5.546877 10.413031
v -43.062199 5.212473 12.206089
v -43.062199 5.546878 11.941706
v -42.296906 5.212472 12.206089
v -43.062199 4.791099 12.375834
v -42.296906 5.546877 11.941706
v -42.296906 5.761578 11.608563
v -42.296906 5.274253 11.922092
v -42.296906 5.482959 11.598251
v -42.296906 5.555394 11.236678
v -42.138371 5.482959 11.598251
v -42.138371 5.555394 11.236678
v -42.138371 5.472967 11.231549
v -42.138371 5.555394 11.118058
v -42.138371 5.472967 11.123187
v -42.296906 5.472967 11.123187
v -42.296906 5.403589 10.776874
v -42.138371 5.482959 10.756485
v -42.296906 5.482959 10.756485
v -42.296906 5.555394 11.118058
v -42.296906 5.835559 11.115464
v -42.296906 5.761578 10.746173
v -42.296906 5.835559 11.239272
v -43.062199 5.835559 11.239272
v -43.062199 5.761578 11.608563
v -43.062199 5.835559 11.115464
v -43.062199 5.761578 10.746173
v -42.296906 5.546878 10.413031
v -42.296906 5.431280 11.125781
v -42.296906 5.431280 11.228955
v -42.862564 5.431280 11.125781
v -42.862564 5.363449 10.787185
v -42.296906 5.472967 11.231549
v -42.296906 5.403589 11.577863
v -42.296906 5.206737 11.883310
v -42.296906 5.363449 11.567552
v -42.138371 5.403589 11.577863
v -42.138371 5.206737 11.883310
v -42.138371 5.274253 11.922092
v -42.138371 4.900133 12.125714
v -42.138371 4.949186 12.179093
v -42.296906 4.900133 12.125714
v -42.296906 4.513789 12.281348
v -42.296906 4.875324 12.098719
v -42.296906 5.172591 11.863696
v -42.138371 4.513789 12.281348
v -42.138371 4.539577 12.344098
v -42.138371 4.075755 12.336199
v -42.138371 4.082242 12.401366
v -42.296906 4.082242 12.401366
v -42.138371 0.282687 12.401366
v -42.296906 0.282687 12.401366
v -42.296906 0.282687 9.953370
v -42.296906 0.241000 12.584324
v -42.296906 0.241000 9.770412
v -43.062199 0.241000 9.770412
v -43.062199 4.324001 9.770412
v -43.062199 4.324002 12.584324
v -42.296906 4.324001 12.584324
v -43.062199 0.241000 12.584324
v -42.296906 4.791098 12.375834
v -42.296906 4.539577 12.344098
v -42.296906 4.949186 12.179093
v -42.862564 5.363449 11.567552
v -42.862564 5.431280 11.228955
vn -0.0000 1.0000 -0.0000
vn 1.0000 -0.0000 -0.0000
vn -0.0000 -0.0000 -1.0000
vn -0.0000 -0.0000 1.0000
vn -0.0000 0.1243 -0.9923
vn -0.0000 -0.3737 0.9276
vn -0.0000 -0.1243 0.9923
vn -0.0000 -0.1242 0.9923
vn -0.0000 -0.1243 -0.9923
vn -0.0000 -0.3737 -0.9276
vn -0.0000 -0.6202 0.7844
vn -0.0000 -0.6202 0.7845
vn -0.0000 -0.8406 0.5417
vn -0.0000 0.3737 -0.9276
vn -0.0000 0.6202 -0.7844
vn -0.0000 0.4076 -0.9132
vn -1.0000 -0.0000 -0.0000
vn -0.0000 0.6202 0.7844
vn -0.0000 0.3737 0.9276
vn -0.0000 0.6202 0.7845
vn -0.0000 0.8406 0.5417
vn -0.0000 0.9805 0.1964
vn -0.0000 -1.0000 -0.0000
vn -0.0000 -0.9805 0.1964
vn -0.0000 0.8406 -0.5417
vn -0.0000 0.9805 -0.1964
vn -0.0000 -0.9805 -0.1964
vn -0.0000 -0.8406 -0.5417
vn -0.0000 -0.6202 -0.7844
vn -0.0000 -0.6202 -0.7845
vn -0.0000 0.1243 0.9923
vn -0.0000 0.4076 0.9132
vn -0.0000 -0.1242 -0.9923
vt 1.522191 3.000000
vt 1.379062 2.043201
vt 1.522191 2.043201
vt -0.526592 2.075674
vt 0.848532 2.059437
vt 0.868370 2.075674
vt 0.868370 0.630389
vt 2.904581 0.407272
vt 3.000000 1.852557
vt 2.904581 1.852557
vt 1.379062 3.000000
vt -1.960777 2.107779
vt -2.000000 2.139884
vt -2.000000 0.659967
vt -0.565815 2.107779
vt 2.924582 -0.233622
vt 2.829163 -0.233622
vt 2.829163 -1.678907
vt -1.960777 0.662494
vt -1.927763 0.491881
vt 2.638324 -1.840459
vt 2.733744 -1.840459
vt 2.733744 -1.662328
vt -1.965532 0.481837
vt 2.638324 -1.662328
vt 2.733744 -0.182411
vt 2.924582 -1.849520
vt 2.829163 -1.849520
vt 2.829163 -2.000000
vt 2.924582 -1.678907
vt -1.834090 0.341401
vt -0.526592 0.630389
vt -0.493578 0.459776
vt -0.474477 0.464856
vt -0.506755 2.059437
vt -0.506755 0.631667
vt 2.223658 1.826657
vt 2.734349 2.756245
vt 2.223657 2.756245
vt 2.223658 0.398887
vt 2.564119 1.826657
vt 2.734350 1.826657
vt 2.223658 2.043201
vt 0.868370 2.043201
vt 0.868370 0.615430
vt 2.223658 0.615430
vt 2.904581 0.398887
vt 2.564119 0.398887
vt 2.904581 1.826657
vt 0.848532 0.631667
vt 0.816254 0.464856
vt 2.564119 0.232076
vt 2.904581 0.232076
vt 2.564119 0.086179
vt 2.100559 0.302723
vt 2.191380 0.448620
vt 0.991468 0.302722
vt 0.900648 0.448619
vt 0.868370 2.706899
vt 1.379062 2.706899
vt 1.379062 2.803923
vt 1.132924 0.186938
vt 1.959103 0.186938
vt 2.223658 0.086179
vt 2.564119 0.232076
vt 0.868370 2.803923
vt -0.254006 0.189875
vt -0.063956 0.128836
vt -0.242201 0.203174
vt 0.868370 2.584640
vt -0.399905 0.309296
vt -0.383657 0.318959
vt 1.808448 2.826212
vt 1.665320 2.826212
vt 1.665320 2.726140
vt 2.924582 -2.000000
vt 1.808448 2.726140
vt 1.665320 2.600043
vt -1.504347 0.145306
vt -1.688191 0.221980
vt -1.711533 0.195683
vt -1.866218 0.322295
vt 2.638324 -2.000000
vt 2.733744 -2.000000
vt 1.665320 2.043201
vt 1.522191 2.149298
vt -0.178614 -1.874260
vt -0.333299 -1.747647
vt -0.349548 -1.757310
vt 1.665320 2.149298
vt -0.432613 -1.588106
vt -0.451714 -1.593185
vt 1.486781 -2.000000
vt 1.947398 -2.000000
vt 1.947398 -1.835876
vt 1.486781 -1.835876
vt 1.947398 -1.653943
vt -0.486918 -1.411252
vt -0.783417 -1.887559
vt -0.624289 -1.757310
vt -1.862629 -1.757310
vt 2.638324 -0.853037
vt 1.947398 -0.962183
vt 2.638324 -0.962183
vt -0.522123 -1.593185
vt -1.703501 -1.887559
vt 1.947398 -0.221955
vt 2.638324 -0.221955
vt 2.638324 -0.112809
vt 1.026163 -2.000000
vt 1.486781 -2.000000
vt 1.486781 -1.835876
vt 1.947398 -0.112809
vt -1.964796 -1.593185
vt 0.522945 -1.955550
vt 0.529152 -1.971185
vt 0.729665 -1.887559
vt 1.947398 -0.359486
vt 0.717859 -1.874259
vt 0.888793 -1.757310
vt 1.665320 2.630496
vt 1.522191 2.481227
vt 1.665320 2.481227
vt 0.305320 -1.983763
vt 1.665320 2.764187
vt 1.522191 2.630496
vt -1.230685 0.118284
vt -1.227599 0.086179
vt -1.009973 0.114392
vt -1.295907 0.118284
vt 1.522191 2.432257
vt -1.298994 0.086179
vt 1.808448 2.457074
vt 1.665320 2.457074
vt 1.665320 2.412339
vt 1.808448 2.600043
vt -1.516619 0.114392
vt 1.665320 2.282989
vt 1.522191 2.282989
vt 1.665320 2.432257
vt 0.233925 -1.983763
vt 0.016300 -1.955550
vt 0.010093 -1.971185
vt 0.306881 -2.000000
vt 0.232364 -2.000000
vt 2.638324 -0.511940
vt 1.947398 -0.511940
vt 1.947398 -0.563052
vt -1.502988 -1.971185
vt -1.280718 -2.000000
vt 2.638324 -0.359486
vt -1.206200 -2.000000
vt 2.638324 -0.563052
vt -0.983930 -1.971185
vt 2.638324 -0.715506
vt 1.947398 -0.715506
vt 1.947398 -0.853037
vt -0.190420 -1.887559
vt -0.070163 0.113201
vt 0.138278 0.086179
vt 0.139839 0.102416
vt 0.868370 2.444859
vt 1.379062 2.584641
vt 0.203499 0.086179
vt 0.201938 0.102416
vt 0.868370 2.402265
vt 1.379062 2.444859
vt 1.808448 2.269370
vt 1.808448 2.412339
vt 0.411940 0.113201
vt 1.665320 2.143273
vt 1.808448 2.143273
vt 0.595783 0.189875
vt 0.405733 0.128836
vt 1.665320 2.269370
vt -0.838401 0.221980
vt -0.815059 0.195683
vt -0.660374 0.322296
vt -1.022245 0.145306
vt 1.808448 2.043201
vt -0.692502 0.341402
vt 0.741683 0.309296
vt 0.583978 0.203174
vt 2.904581 0.086179
vt 3.000000 0.236659
vt 2.904581 0.236659
vt 0.835356 0.459776
vt 0.725434 0.318959
vt 3.000000 0.086179
vt 3.000000 0.407272
vt -0.598829 0.491881
vt -0.561060 0.481837
vt -0.526592 0.659967
vt -0.565815 0.662494
vt 2.829163 -1.662328
vt 2.733744 -1.662328
vt 2.829163 -0.182411
vt -0.526592 2.139884
vt 2.877479 2.837263
vt 2.734350 1.826657
vt 2.877479 1.826657
vt 1.006327 0.069942
vt -0.486918 0.086179
vt -0.467081 0.069942
vt 1.006327 -1.409975
vt 1.026163 0.086179
vt 1.947398 -2.000000
vt 1.486781 -1.653943
vt 1.947398 -0.156511
vt 1.486781 -0.156511
vt -0.467081 -1.409975
vt -0.486918 -1.411252
vt -0.486918 0.086179
vt -2.000000 -1.411252
vt 1.026163 -1.835876
vt 1.486781 -1.653943
vt 1.026163 -1.653943
vt 1.486781 -0.156511
vt -2.000000 0.086179
vt 0.872544 -1.747647
vt 0.990959 -1.593185
vt 0.971858 -1.588105
vt 1.026163 -1.411252
vt 1.665320 2.870285
vt 1.522191 2.764187
vt 2.829163 -1.840459
vt 2.733744 -2.000000
vt 2.829163 -2.000000
vt 1.522191 2.870285
vt 1.026163 -0.156511
vt 2.638324 -2.000000
vt 2.638324 -0.182411
vt 2.734350 2.837263
vt 0.868370 2.262483
vt 0.868370 2.140225
vt 1.379062 2.140225
vt 0.868370 2.043201
vt 1.379062 2.262483
vt 1.577063 0.086179
vt 1.780858 0.112599
vt 1.379062 2.402265
vt 1.514964 0.086179
vt 1.311169 0.112599
vt 2.223658 0.232076
vt 2.564119 0.398887
s 0
usemtl PiedraLisa.001
f 1/1/1 6/2/1 2/3/1
f 2/4/2 4/5/2 1/6/2
f 3/7/2 1/6/2 4/5/2
f 3/8/3 5/9/3 1/10/3
f 1/1/1 5/11/1 6/2/1
f 6/12/2 7/13/2 9/14/2
f 5/15/2 7/13/2 6/12/2
f 2/16/4 6/17/4 8/18/4
f 6/12/2 9/14/2 8/19/2
f 13/20/2 8/19/2 9/14/2
f 12/21/5 10/22/5 9/23/5
f 13/20/2 9/14/2 10/24/2
f 11/25/3 9/23/3 7/26/3
f 12/21/5 9/23/5 11/25/5
f 14/27/6 13/28/6 15/29/6
f 16/30/7 13/28/7 14/27/7
f 15/31/2 13/20/2 10/24/2
f 16/30/8 8/18/8 13/28/8
f 16/32/2 14/33/2 18/34/2
f 16/32/2 19/35/2 2/4/2
f 2/16/4 8/18/4 16/30/4
f 16/32/2 17/36/2 19/35/2
f 16/32/2 18/34/2 17/36/2
f 2/4/2 19/35/2 4/5/2
f 19/37/1 21/38/1 4/39/1
f 17/40/4 20/41/4 19/37/4
f 19/37/1 20/42/1 21/38/1
f 21/43/2 20/44/2 23/45/2
f 22/46/2 21/43/2 23/45/2
f 24/47/3 21/41/3 22/48/3
f 24/47/3 4/49/3 21/41/3
f 3/7/2 24/50/2 25/51/2
f 24/47/9 26/52/9 25/53/9
f 3/7/2 4/5/2 24/50/2
f 24/47/9 22/48/9 26/52/9
f 25/53/10 26/52/10 27/54/10
f 27/55/2 26/56/2 29/57/2
f 26/56/2 22/46/2 23/45/2
f 23/45/2 28/58/2 26/56/2
f 28/58/2 29/57/2 26/56/2
f 33/59/11 30/60/11 29/61/11
f 29/57/2 30/62/2 32/63/2
f 31/64/6 29/54/6 28/65/6
f 33/59/12 29/61/12 31/66/12
f 32/63/2 27/55/2 29/57/2
f 35/67/2 34/68/2 33/69/2
f 34/70/13 30/60/13 33/59/13
f 36/71/2 33/69/2 31/72/2
f 36/71/2 35/67/2 33/69/2
f 36/73/11 15/74/11 37/75/11
f 14/27/6 15/29/6 36/76/6
f 36/73/12 37/75/12 35/77/12
f 14/33/2 36/71/2 31/72/2
f 35/77/13 37/75/13 39/78/13
f 39/79/2 37/80/2 38/81/2
f 37/80/2 40/82/2 38/81/2
f 37/80/2 15/31/2 40/82/2
f 41/83/14 40/84/14 10/22/14
f 41/85/15 38/86/15 40/3/15
f 15/31/2 10/24/2 40/82/2
f 42/87/2 41/88/2 43/89/2
f 41/85/15 42/90/15 38/86/15
f 41/88/2 12/91/2 44/92/2
f 41/83/14 10/22/14 12/21/14
f 41/88/2 44/92/2 43/89/2
f 47/93/14 43/94/14 44/95/14
f 45/96/16 44/95/16 46/97/16
f 47/93/14 44/95/14 45/96/14
f 12/91/2 46/98/2 44/92/2
f 48/99/17 47/100/17 49/101/17
f 48/102/15 43/103/15 47/104/15
f 47/100/17 45/105/17 49/101/17
f 49/101/17 50/106/17 48/99/17
f 53/107/18 50/108/18 49/109/18
f 51/110/19 49/111/19 52/112/19
f 53/107/20 49/109/20 51/113/20
f 52/114/17 49/101/17 45/105/17
f 56/115/2 54/116/2 53/117/2
f 54/118/21 50/108/21 53/107/21
f 55/119/2 53/117/2 51/120/2
f 56/115/2 53/117/2 55/119/2
f 56/121/22 59/122/22 57/123/22
f 57/124/2 54/116/2 56/115/2
f 55/125/21 58/126/21 56/121/21
f 56/121/22 58/126/22 59/122/22
f 60/127/2 59/128/2 58/129/2
f 62/130/2 59/128/2 60/127/2
f 57/123/1 59/122/1 61/131/1
f 62/130/2 61/132/2 59/128/2
f 63/133/23 62/134/23 60/135/23
f 64/136/24 62/134/24 63/133/24
f 62/130/2 65/137/2 61/132/2
f 62/130/2 39/79/2 65/137/2
f 64/136/24 39/78/24 62/134/24
f 42/90/25 66/138/25 65/139/25
f 67/140/26 65/139/26 66/138/26
f 39/79/2 38/81/2 65/137/2
f 67/140/26 61/131/26 65/139/26
f 42/90/25 65/139/25 38/86/25
f 57/123/1 61/131/1 67/140/1
f 67/141/2 66/142/2 69/143/2
f 67/141/2 70/144/2 57/124/2
f 67/141/2 68/145/2 70/144/2
f 67/141/2 69/143/2 68/145/2
f 57/124/2 70/144/2 54/116/2
f 71/146/22 54/118/22 70/147/22
f 71/146/1 70/147/1 68/148/1
f 72/149/17 71/150/17 50/106/17
f 71/146/22 72/151/22 54/118/22
f 71/150/17 73/152/17 50/106/17
f 71/146/1 68/148/1 73/153/1
f 73/152/17 74/154/17 48/99/17
f 68/148/26 74/155/26 73/153/26
f 48/99/17 50/106/17 73/152/17
f 74/155/25 69/156/25 75/157/25
f 68/148/26 69/156/26 74/155/26
f 74/155/25 75/157/25 48/102/25
f 66/142/2 75/158/2 69/143/2
f 48/102/15 75/157/15 43/103/15
f 42/87/2 43/89/2 75/158/2
f 66/142/2 42/87/2 75/158/2
f 54/118/21 72/151/21 50/108/21
f 35/77/13 39/78/13 64/136/13
f 64/159/2 63/160/2 76/161/2
f 35/67/2 64/159/2 34/68/2
f 64/159/2 76/161/2 34/68/2
f 76/162/24 79/163/24 34/70/24
f 80/164/2 77/165/2 76/161/2
f 77/166/23 78/167/23 76/162/23
f 76/162/24 78/167/24 79/163/24
f 80/164/2 76/161/2 63/160/2
f 81/168/27 80/169/27 60/135/27
f 81/170/2 77/165/2 80/164/2
f 63/133/23 60/135/23 80/169/23
f 81/168/28 85/171/28 82/172/28
f 82/173/2 83/174/2 81/170/2
f 81/170/2 83/174/2 77/165/2
f 81/168/28 84/175/28 85/171/28
f 81/168/27 60/135/27 84/175/27
f 85/176/2 86/177/2 88/178/2
f 84/179/2 86/177/2 85/176/2
f 89/180/29 85/171/29 87/85/29
f 85/176/2 88/178/2 87/181/2
f 89/180/30 82/172/30 85/171/30
f 89/182/2 92/183/2 82/173/2
f 89/184/10 93/185/10 90/186/10
f 90/187/2 91/188/2 89/182/2
f 89/182/2 91/188/2 92/183/2
f 89/184/10 87/189/10 93/185/10
f 90/186/9 93/185/9 95/190/9
f 93/191/2 94/192/2 96/193/2
f 87/181/2 94/192/2 93/191/2
f 93/191/2 96/193/2 95/194/2
f 97/195/31 96/196/31 94/22/31
f 99/197/4 96/196/4 97/195/4
f 5/15/2 95/194/2 96/193/2
f 99/197/4 98/26/4 96/196/4
f 5/15/2 96/193/2 98/198/2
f 100/199/23 98/200/23 99/201/23
f 99/202/2 102/203/2 100/204/2
f 97/205/2 101/206/2 99/202/2
f 99/202/2 101/206/2 102/203/2
f 103/104/23 102/103/23 101/207/23
f 104/208/3 102/209/3 103/210/3
f 104/208/3 46/97/3 102/209/3
f 11/211/2 102/203/2 46/98/2
f 11/211/2 100/204/2 102/203/2
f 45/105/17 104/212/17 52/114/17
f 45/96/16 46/97/16 104/208/16
f 103/213/17 105/214/17 104/212/17
f 105/214/17 52/114/17 104/212/17
f 108/215/32 52/112/32 105/216/32
f 106/217/4 105/216/4 107/218/4
f 108/215/32 105/216/32 106/217/32
f 103/213/17 107/219/17 105/214/17
f 110/220/2 51/120/2 108/221/2
f 51/110/19 52/112/19 108/215/19
f 109/222/2 108/221/2 106/223/2
f 110/220/2 108/221/2 109/222/2
f 110/224/18 86/225/18 55/125/18
f 55/119/2 51/120/2 110/220/2
f 109/226/19 88/227/19 110/228/19
f 110/224/20 88/229/20 86/225/20
f 109/226/19 94/22/19 88/227/19
f 97/195/31 94/22/31 109/226/31
f 109/222/2 106/223/2 97/205/2
f 106/217/4 107/218/4 101/230/4
f 103/104/23 101/207/23 107/231/23
f 97/205/2 106/223/2 101/206/2
f 11/25/3 7/26/3 100/232/3
f 100/199/23 7/233/23 98/200/23
f 5/15/2 98/198/2 7/13/2
f 3/8/3 95/190/3 5/9/3
f 90/186/33 95/190/33 3/8/33
f 87/181/2 88/178/2 94/192/2
f 82/173/2 92/183/2 83/174/2
f 83/234/28 92/235/28 32/236/28
f 91/237/29 32/236/29 92/235/29
f 90/187/2 25/51/2 91/188/2
f 25/53/10 27/54/10 91/184/10
f 91/237/30 27/2/30 32/236/30
f 3/7/2 25/51/2 90/187/2
f 55/125/21 86/225/21 58/126/21
f 84/179/2 58/129/2 86/177/2
f 60/127/2 58/129/2 84/179/2
f 77/166/27 83/234/27 111/238/27
f 83/234/28 32/236/28 111/238/28
f 112/239/2 111/240/2 32/63/2
f 77/166/27 111/238/27 112/241/27
f 77/166/23 112/241/23 78/167/23
f 112/239/2 30/62/2 78/242/2
f 30/62/2 112/239/2 32/63/2
f 30/62/2 79/243/2 78/242/2
f 34/70/13 79/163/13 30/60/13
f 12/91/2 11/211/2 46/98/2
f 14/33/2 31/72/2 18/34/2
f 31/64/6 28/65/6 18/244/6
f 18/244/7 28/65/7 23/245/7
f 17/40/4 23/245/4 20/41/4
f 18/244/7 23/245/7 17/40/7
