# Blender 4.5.3 LTS
# www.blender.org
mtllib fach2.mtl
o Fachada.010
v -6.283891 7.248703 31.918304
v 7.611777 7.098868 31.918304
v -6.283891 2.298284 36.697826
v 7.611778 2.148454 35.918350
v 7.611778 2.148454 31.918335
v -6.283891 2.148454 32.697815
v -6.283891 0.879032 36.697826
v 7.611778 0.729202 35.918350
v 7.611778 0.729202 31.918335
v -6.283891 0.729202 32.697815
vn 1.0000 -0.0000 -0.0000
vn -1.0000 -0.0000 -0.0000
vn -0.0029 0.6123 0.7906
vn 0.0564 0.7067 0.7052
vn 0.0670 0.7223 0.6883
vn -0.0043 -0.1440 -0.9896
vn -0.0719 0.0446 -0.9964
vn -0.0697 0.0386 -0.9968
vn 0.0560 -0.0000 0.9984
vn -0.0560 -0.0000 -0.9984
vn -0.0141 0.5929 0.8051
vn 0.0243 -0.2216 -0.9748
vt 0.991524 0.951847
vt 0.776927 0.596535
vt 0.991524 0.596536
vt 0.990960 0.000000
vt 0.785966 0.124551
vt 0.776927 0.023407
vt 1.005411 0.333826
vt 0.009851 0.684416
vt 0.006955 0.315585
vt 1.000000 0.101145
vt 0.776927 0.494670
vt 0.036253 -0.004233
vt 0.302038 0.994587
vt 0.036651 0.994587
vt 0.991524 0.494671
vt 0.101965 0.998455
vt 0.177182 0.001545
vt 0.158940 1.000000
vt 0.701353 0.994587
vt 0.777040 -0.004233
vt 0.777439 0.994587
vt 1.006955 0.674916
vt 0.311288 -0.001869
vt 0.120207 0.000000
vt 0.700956 -0.004233
s 1
usemtl Material.012
f 2/1/1 4/2/1 5/3/1
f 7/4/2 6/5/2 10/6/2
f 4/7/3 1/8/4 3/9/5
f 3/10/2 1/11/2 6/5/2
f 6/12/6 2/13/7 5/14/8
f 9/15/1 4/2/1 8/11/1
f 4/16/9 7/17/9 8/18/9
f 9/19/10 6/20/6 5/21/8
f 7/4/2 3/10/2 6/5/2
f 4/7/3 2/22/11 1/8/4
f 6/12/6 1/23/12 2/13/7
f 9/15/1 5/3/1 4/2/1
f 4/16/9 3/24/9 7/17/9
f 9/19/10 10/25/10 6/20/6
