# Blender 4.5.3 LTS
# www.blender.org
mtllib palos.mtl
o curtain.001_meshId127.001
v -10.235188 14.871692 -4.898481
v -10.235188 14.695442 -4.796722
v 5.048141 14.695444 -4.796722
v 5.048141 14.871693 -4.898481
v -10.235188 14.871692 -5.101998
v -10.235188 14.871692 -4.898481
v 5.048141 14.871693 -4.898481
v 5.048141 14.871692 -5.101998
v -10.235188 14.695442 -5.203756
v 5.048141 14.695444 -5.203756
v -10.235188 14.519194 -5.101997
v 5.048141 14.519195 -5.101997
v -10.235188 14.519194 -4.898481
v -10.235188 14.519194 -5.101997
v 5.048141 14.519195 -5.101997
v 5.048141 14.519195 -4.898481
v 2.784147 7.265585 -5.238160
v 4.120501 7.235519 -5.191367
v 3.118236 7.197457 -5.144574
v 3.006873 7.225663 -5.097780
v 3.229598 7.174373 -5.191367
v 2.895510 7.247273 -5.144574
v 3.340961 7.168126 -5.144574
v 3.452324 7.170299 -5.050987
v 3.675049 7.235519 -5.191367
v 3.563686 7.204734 -5.144574
v 3.786412 7.259004 -5.144574
v 3.897775 7.278835 -5.050987
v 4.009138 7.259004 -5.144574
v 4.343225 7.178364 -5.097780
v 4.231863 7.204734 -5.144574
v 4.454589 7.168126 -5.144574
v 4.565951 7.174372 -5.191367
v 4.900040 7.247273 -5.144574
v 4.788677 7.225663 -5.097780
v 5.011404 7.265584 -5.238160
v 4.677316 7.197457 -5.144574
vn -0.0000 0.5000 0.8660
vn -0.0000 -0.0000 1.0000
vn -0.0000 0.8324 -0.5542
vn -0.0000 1.0000 -0.0000
vn -0.0000 -0.0000 -1.0000
vn -0.0000 -0.5000 -0.8660
vn -0.0000 -0.8324 0.5542
vn -0.0000 -1.0000 -0.0000
vt 1.000000 0.906250
vt 1.000000 0.937500
vt 0.000000 0.937500
vt 0.000000 0.906250
vt 1.000000 0.968750
vt 1.000000 0.996094
vt 0.000000 0.996094
vt 0.000000 0.968750
s 1
usemtl f003_002_curtain_1.003
f 1/1/1 2/2/2 3/3/2
f 3/3/2 4/4/1 1/1/1
f 5/5/3 6/6/4 7/7/4
f 7/7/4 8/8/3 5/5/3
f 9/2/5 5/5/3 8/8/3
f 8/8/3 10/3/5 9/2/5
f 11/1/6 9/2/5 10/3/5
f 10/3/5 12/4/6 11/1/6
f 13/5/7 14/6/8 15/7/8
f 15/7/8 16/8/7 13/5/7
f 2/2/2 13/5/7 16/8/7
f 16/8/7 3/3/2 2/2/2
l 19 20
l 19 21
l 20 22
l 17 22
l 21 23
l 23 24
l 25 26
l 24 26
l 25 27
l 27 28
l 18 29
l 28 29
l 30 31
l 18 31
l 30 32
l 32 33
l 34 35
l 34 36
l 35 37
l 33 37
